{"glyphs":{"0":{"ha":744,"x_min":56,"x_max":689,"o":"m 422 989 q 469 962 444 974 q 519 939 493 950 q 524 919 522 929 q 533 901 526 908 q 564 880 551 894 q 586 849 576 865 q 606 815 596 832 q 631 786 615 799 q 627 760 624 772 q 638 738 631 749 q 652 717 644 728 q 663 694 660 706 q 663 672 664 683 q 663 649 663 660 q 665 628 663 638 q 676 610 668 618 q 671 591 674 600 q 667 578 668 582 q 682 515 683 547 q 679 451 681 483 q 683 400 678 426 q 688 346 689 374 q 668 294 685 318 q 643 246 651 271 q 638 222 639 235 q 635 199 638 210 q 625 179 632 188 q 604 167 618 171 q 578 118 593 146 q 543 71 563 90 q 528 58 539 67 q 507 40 518 49 q 485 24 496 32 q 468 15 474 17 q 444 13 458 11 q 417 11 429 14 q 403 5 408 8 q 390 0 397 1 q 286 21 336 -3 q 208 81 236 44 q 197 100 201 89 q 186 121 193 111 q 172 138 179 131 q 158 151 164 144 q 147 180 151 163 q 135 213 143 197 q 102 267 122 236 q 78 332 82 299 q 76 385 75 360 q 69 438 76 410 q 61 458 67 449 q 56 479 56 468 q 61 497 56 488 q 69 513 67 506 q 71 558 74 535 q 71 606 68 582 q 77 620 72 613 q 85 636 82 628 q 115 747 100 699 q 164 836 129 796 q 169 865 163 849 q 185 894 175 882 q 219 933 199 913 q 265 969 240 953 q 314 994 289 985 q 361 1003 339 1004 q 378 997 371 1001 q 392 990 386 993 q 406 985 399 986 q 422 989 413 985 m 321 906 q 276 853 292 882 q 253 790 261 824 q 242 720 244 757 q 239 644 240 683 q 231 581 236 614 q 222 529 225 549 q 226 492 221 513 q 233 453 232 472 q 235 419 236 435 q 235 389 233 404 q 235 314 238 353 q 236 251 232 275 q 243 235 239 242 q 250 221 247 229 q 255 183 257 201 q 256 146 253 165 q 290 108 271 125 q 324 71 308 90 q 361 65 344 72 q 403 63 378 58 q 462 105 435 82 q 508 160 489 128 q 519 219 517 190 q 521 275 521 247 q 522 331 521 303 q 529 389 522 360 q 526 401 531 399 q 522 413 521 404 q 530 442 526 424 q 535 479 533 460 q 536 516 536 499 q 533 543 536 533 q 526 557 532 550 q 519 574 521 564 q 522 611 517 593 q 526 649 528 629 q 521 663 525 656 q 515 679 517 671 q 518 693 514 686 q 522 707 522 700 q 513 752 521 735 q 497 785 504 769 q 495 799 494 796 q 496 813 496 801 q 438 897 472 857 q 399 909 422 899 q 361 921 375 919 q 343 911 350 918 q 321 906 336 904 z "},"1":{"ha":588,"x_min":56,"x_max":532,"o":"m 338 963 q 367 934 351 947 q 382 889 382 921 q 378 851 378 872 q 378 809 378 831 q 378 766 378 788 q 374 728 378 744 q 379 663 379 701 q 374 599 379 625 q 381 558 381 581 q 378 512 381 536 q 373 463 375 488 q 374 413 371 438 q 378 388 375 397 q 379 367 381 378 q 374 331 378 353 q 374 286 371 308 q 374 240 375 263 q 374 194 374 217 q 378 153 375 172 q 393 118 382 133 q 419 102 408 115 q 446 83 429 89 q 455 83 450 82 q 465 83 460 85 q 486 75 476 82 q 508 72 496 68 q 524 54 515 61 q 531 36 532 47 q 516 15 529 19 q 486 10 503 11 q 453 9 469 10 q 428 0 436 8 q 404 5 417 10 q 379 0 392 0 q 370 2 375 0 q 360 4 365 4 q 343 1 351 4 q 326 0 335 -1 q 316 4 321 1 q 306 8 311 7 q 288 8 297 10 q 272 6 279 7 q 257 5 264 4 q 244 13 250 6 q 235 8 242 8 q 225 4 229 7 q 202 8 214 11 q 179 4 190 4 q 166 8 172 4 q 153 13 160 11 q 107 13 131 15 q 61 18 83 11 q 58 34 58 25 q 57 54 57 43 q 90 68 68 65 q 126 68 111 71 q 159 88 139 82 q 199 101 179 94 q 224 156 214 126 q 232 217 235 185 q 228 242 232 228 q 226 275 224 256 q 230 287 228 282 q 232 299 232 292 q 229 341 235 321 q 222 385 224 361 q 226 416 221 401 q 232 446 231 431 q 233 471 235 458 q 232 492 231 483 q 237 503 233 499 q 240 511 240 507 q 238 531 243 525 q 231 551 233 536 q 233 578 228 563 q 236 608 239 593 q 231 637 235 624 q 226 663 226 650 q 228 670 226 667 q 231 679 229 674 q 226 722 233 701 q 214 763 219 742 q 197 774 207 772 q 176 783 188 776 q 160 801 167 790 q 140 815 153 813 q 115 816 129 818 q 89 813 101 814 q 67 815 76 811 q 57 833 58 818 q 74 862 56 857 q 115 874 92 867 q 131 881 124 876 q 144 888 138 886 q 160 888 153 889 q 175 888 168 886 q 193 898 185 890 q 213 910 201 906 q 242 919 228 915 q 267 929 256 922 q 282 941 275 935 q 297 953 289 947 q 314 961 304 958 q 338 963 324 964 z "},"2":{"ha":713,"x_min":54,"x_max":658,"o":"m 547 163 q 565 188 556 175 q 583 213 574 200 q 587 233 586 222 q 593 251 588 244 q 613 256 600 256 q 635 253 626 256 q 644 144 651 204 q 625 29 638 83 q 590 6 610 11 q 549 2 571 0 q 506 10 528 4 q 464 21 483 15 q 445 11 451 19 q 428 0 439 3 q 378 3 403 -1 q 329 10 353 7 q 281 13 306 13 q 231 4 256 13 q 200 13 217 13 q 165 10 183 13 q 131 6 147 8 q 100 6 114 3 q 88 25 96 15 q 72 45 79 35 q 59 65 64 56 q 57 81 54 74 q 74 115 61 97 q 102 152 88 133 q 128 191 117 171 q 143 233 140 211 q 167 246 158 236 q 182 267 175 256 q 198 287 189 278 q 225 296 207 296 q 241 322 231 311 q 262 344 251 333 q 282 367 272 356 q 296 396 292 379 q 315 399 300 401 q 332 422 324 410 q 349 444 340 433 q 369 463 358 454 q 396 475 381 471 q 422 520 403 500 q 451 568 442 540 q 464 640 461 597 q 472 717 467 683 q 478 760 476 744 q 461 799 479 775 q 412 844 443 821 q 356 875 381 868 q 317 876 333 881 q 285 865 300 872 q 256 851 271 858 q 221 842 240 843 q 194 810 210 825 q 179 775 179 796 q 185 756 179 764 q 201 741 192 749 q 222 726 211 733 q 239 707 232 718 q 247 692 243 701 q 253 672 250 682 q 258 654 257 663 q 260 642 260 646 q 252 615 258 626 q 237 594 246 603 q 216 576 228 585 q 192 556 204 567 q 151 566 168 558 q 110 574 135 574 q 87 608 104 593 q 65 646 69 624 q 63 708 60 678 q 74 766 65 739 q 94 817 82 793 q 119 857 107 840 q 151 874 139 863 q 174 900 164 885 q 186 903 181 901 q 197 900 192 906 q 234 924 211 915 q 283 938 257 933 q 338 943 310 942 q 393 944 367 944 q 431 931 407 935 q 472 929 456 926 q 520 899 496 914 q 565 867 544 885 q 601 825 586 849 q 625 771 617 801 q 642 735 631 751 q 656 699 653 718 q 651 677 658 688 q 640 656 643 667 q 639 637 638 647 q 638 619 640 626 q 609 558 622 590 q 583 504 596 526 q 566 499 575 501 q 550 494 557 497 q 527 470 540 481 q 501 450 514 460 q 474 430 488 440 q 450 407 460 419 q 401 385 422 400 q 363 354 381 371 q 328 320 346 338 q 288 290 310 303 q 276 274 281 283 q 268 254 272 264 q 226 226 249 244 q 203 185 203 207 q 226 153 203 164 q 284 138 250 143 q 356 133 318 133 q 426 132 394 132 q 494 137 460 131 q 547 163 528 143 z "},"3":{"ha":726,"x_min":56,"x_max":671,"o":"m 544 451 q 556 453 551 449 q 563 454 560 457 q 578 442 574 453 q 592 425 583 432 q 604 417 597 419 q 617 410 611 415 q 625 393 622 403 q 631 374 628 383 q 638 356 633 364 q 653 344 643 349 q 655 326 649 333 q 664 311 661 319 q 665 286 667 299 q 671 263 663 274 q 665 250 668 256 q 657 239 661 244 q 647 181 656 207 q 624 132 639 156 q 610 113 618 122 q 597 97 601 104 q 594 87 594 92 q 592 78 594 82 q 556 51 578 58 q 514 39 533 44 q 497 28 503 36 q 481 15 492 19 q 438 11 461 8 q 397 4 415 14 q 369 10 382 18 q 340 0 357 1 q 332 1 336 0 q 322 4 328 3 q 288 4 307 7 q 251 4 268 1 q 236 7 244 4 q 219 11 228 10 q 208 11 214 13 q 199 11 203 10 q 178 26 189 14 q 153 50 168 39 q 122 76 135 65 q 99 104 110 86 q 83 122 92 114 q 74 133 75 129 q 71 144 71 138 q 69 154 71 150 q 63 169 67 163 q 58 182 58 175 q 56 215 56 196 q 58 246 56 235 q 70 269 61 258 q 86 290 79 279 q 94 310 90 297 q 108 328 97 324 q 117 329 111 331 q 129 331 122 328 q 151 341 138 333 q 179 346 164 349 q 213 318 199 343 q 228 271 226 293 q 216 224 229 242 q 194 186 203 206 q 180 173 185 181 q 169 157 175 165 l 169 115 q 191 104 179 106 q 217 97 203 103 q 242 83 232 90 q 274 74 253 76 q 294 67 285 72 q 313 61 304 63 q 338 62 326 60 q 363 61 350 64 q 391 63 378 60 q 415 69 404 65 q 442 85 435 76 q 460 110 449 94 q 488 125 479 113 q 506 149 496 138 q 499 176 497 163 q 506 201 500 189 q 517 226 511 214 q 525 247 524 238 q 524 263 526 254 q 519 283 521 272 q 516 303 517 293 q 521 325 515 314 q 510 348 518 339 q 500 371 503 357 q 497 392 499 381 q 489 414 496 404 q 478 422 485 418 q 465 431 471 425 q 440 458 454 443 q 410 483 425 474 l 394 483 q 377 494 385 489 q 361 506 369 500 q 338 503 351 500 q 308 503 324 506 q 296 498 301 501 q 283 494 290 494 q 256 501 269 493 q 239 515 242 508 q 251 537 236 533 q 278 549 267 540 q 303 540 292 544 q 332 538 315 535 q 346 544 339 539 q 363 553 353 550 q 381 555 374 556 q 396 557 389 554 q 406 566 400 560 q 417 579 411 572 q 428 590 422 586 q 439 601 435 594 q 440 609 440 604 q 442 618 439 614 q 458 638 449 629 q 471 653 468 646 q 473 671 474 663 q 474 686 472 679 q 478 697 475 692 q 483 707 481 701 q 484 717 485 711 q 485 728 483 722 q 488 768 488 744 q 476 811 488 792 q 464 826 474 818 q 449 840 454 833 q 428 872 438 856 q 404 896 419 889 q 378 905 394 901 q 344 909 361 908 q 310 908 326 910 q 282 903 293 907 q 232 865 257 890 q 243 825 235 844 q 259 786 251 806 q 269 745 267 767 q 261 699 271 724 q 234 683 249 689 q 204 668 219 676 q 178 668 190 671 q 154 668 165 665 q 144 677 146 671 q 135 688 142 683 q 125 690 131 690 q 115 693 119 690 q 93 719 100 703 q 75 747 86 736 q 76 779 78 763 q 75 812 75 796 q 78 840 75 828 q 93 861 81 853 q 100 891 94 876 q 115 914 106 906 q 127 918 121 917 q 139 924 133 919 q 149 933 146 929 q 156 942 153 938 q 163 949 158 946 q 179 954 168 951 q 197 963 189 957 q 213 969 206 968 q 231 970 222 972 q 251 969 240 968 q 272 978 263 972 q 292 985 281 983 q 318 984 304 988 q 343 985 332 981 q 367 976 353 978 q 396 975 381 975 q 428 976 411 975 q 464 974 446 976 q 506 956 486 969 q 547 935 525 942 q 574 903 558 918 q 600 867 589 889 q 613 848 607 857 q 622 826 619 839 q 622 817 624 822 q 622 807 621 813 q 631 783 625 796 q 638 757 638 771 q 633 744 638 751 q 626 728 629 738 q 619 705 621 717 q 610 683 617 693 q 601 672 607 676 q 592 663 594 668 q 580 640 585 651 q 565 622 575 629 q 539 608 546 619 q 518 578 532 596 q 496 555 510 567 q 489 519 482 543 q 494 513 490 514 q 504 506 499 513 q 507 498 507 503 q 510 490 507 493 q 528 474 518 481 q 544 451 539 467 z "},"4":{"ha":714,"x_min":54,"x_max":660,"o":"m 639 46 q 614 13 640 22 q 590 3 604 8 q 558 1 575 -1 q 527 6 547 4 q 493 1 507 7 q 475 5 488 4 q 458 1 463 6 q 392 8 426 6 q 318 7 357 10 q 282 19 303 18 q 278 26 279 24 q 274 32 278 28 q 289 56 279 44 q 310 75 299 67 q 341 82 328 75 q 363 99 354 89 q 380 122 372 110 q 394 143 388 133 q 374 200 394 183 q 318 221 353 217 q 302 217 314 218 q 281 218 290 217 q 260 224 269 219 q 242 229 251 228 q 211 227 226 232 q 178 226 196 222 q 173 224 174 226 q 169 221 172 221 q 119 225 142 219 q 79 239 97 231 q 68 258 72 250 q 57 274 64 265 q 69 329 54 314 q 85 365 72 353 q 110 390 99 376 q 118 404 113 403 q 129 455 118 432 q 161 490 140 478 q 209 578 185 535 q 271 653 233 622 q 280 669 272 664 q 286 688 288 674 q 322 739 307 711 q 349 799 338 767 q 364 813 360 803 q 378 829 368 822 q 409 881 393 857 q 449 925 425 906 q 490 926 469 922 q 525 925 510 931 q 542 910 539 921 q 551 888 546 899 l 551 857 q 555 826 556 843 q 551 790 554 810 q 549 786 551 788 q 547 782 547 785 q 549 744 543 764 q 543 710 554 725 q 549 695 550 707 q 543 679 547 683 q 544 663 544 669 q 541 649 543 656 q 538 637 539 643 q 540 624 538 631 q 544 597 544 613 q 543 561 543 581 q 547 546 549 554 q 551 535 546 538 q 548 524 546 531 q 543 513 550 517 q 541 474 540 492 q 544 436 542 457 q 540 412 539 424 q 543 388 540 400 q 549 366 546 376 q 554 346 553 356 q 569 331 561 339 q 583 317 576 324 q 628 301 610 314 q 657 272 646 288 q 647 232 660 243 q 614 211 633 221 q 582 212 594 217 q 562 196 569 207 q 551 169 554 185 q 547 139 547 154 q 575 96 561 115 q 621 68 589 76 q 630 57 624 61 q 639 46 636 53 m 382 358 q 394 396 393 369 q 397 447 396 422 q 388 471 390 457 q 386 501 386 485 q 388 535 386 518 q 388 569 389 553 q 374 591 379 578 q 358 607 369 604 q 331 598 339 611 q 313 575 322 585 q 294 560 303 565 q 279 547 285 554 q 258 517 274 531 q 240 481 243 503 q 233 473 233 479 q 225 465 232 467 q 219 448 225 457 q 213 428 213 439 q 208 427 208 429 q 206 425 208 425 q 202 407 206 414 q 194 394 199 400 q 185 381 189 388 q 181 365 181 375 q 174 358 175 364 q 169 350 172 353 q 188 314 175 331 q 232 299 201 297 q 242 308 240 301 q 253 317 243 315 q 267 307 263 317 q 285 299 272 297 q 291 301 289 299 q 300 306 293 303 q 335 303 319 307 q 367 306 350 299 q 379 329 372 321 q 382 358 386 338 z "},"5":{"ha":706,"x_min":56,"x_max":650,"o":"m 124 451 q 97 476 104 460 q 90 521 89 493 q 92 525 90 524 q 94 529 93 526 q 97 560 97 543 q 98 592 97 576 q 101 622 99 608 q 110 643 103 635 q 110 665 110 654 q 106 683 111 676 q 103 719 107 701 q 101 757 100 738 q 101 782 103 769 l 101 801 q 101 840 104 822 q 94 860 100 851 q 90 882 88 869 q 92 887 90 885 q 94 892 94 889 q 99 917 99 903 q 101 942 99 931 q 113 967 104 957 q 133 988 122 976 q 152 990 143 990 q 167 996 161 990 q 188 990 176 989 q 211 988 200 990 q 238 976 226 985 q 260 963 249 967 q 292 954 279 961 q 318 940 304 947 q 378 929 357 942 q 415 931 399 925 q 446 936 432 936 q 463 947 454 939 q 479 960 471 954 q 497 969 488 967 q 518 965 507 971 q 536 970 529 964 q 549 983 543 976 q 562 996 556 990 q 578 1000 568 1001 q 601 980 589 997 q 615 947 613 963 q 606 924 611 933 q 600 900 601 915 q 591 885 597 889 q 578 872 585 881 q 574 865 575 868 q 569 858 572 861 q 556 855 563 856 q 542 851 549 854 q 516 829 526 844 q 488 811 506 814 q 453 809 467 815 q 428 800 440 803 q 423 799 425 799 q 418 800 421 800 q 403 790 410 797 q 388 782 396 783 q 374 781 381 779 q 360 785 367 783 q 344 784 351 786 q 329 782 338 782 q 299 780 314 779 q 271 778 285 781 q 262 774 265 776 q 251 775 258 771 q 224 761 238 768 q 201 743 211 754 q 190 701 200 724 q 188 651 181 678 q 203 633 189 644 q 226 619 217 622 q 244 618 235 617 q 263 622 254 619 q 307 619 285 619 q 353 615 329 618 q 386 616 369 614 q 418 615 403 618 q 428 610 424 614 q 440 604 433 606 q 447 604 443 603 q 454 604 451 606 q 470 595 463 601 q 489 593 478 589 q 535 562 513 578 q 571 521 558 546 q 595 503 586 515 q 615 481 604 490 q 618 469 613 472 q 618 460 624 467 q 626 447 622 453 q 631 429 631 440 q 635 422 635 426 q 642 413 636 417 q 642 379 643 397 q 642 346 640 361 q 644 332 642 339 q 650 322 646 325 q 645 307 643 319 q 642 289 647 294 q 640 231 649 261 q 615 186 632 201 q 603 161 611 171 q 585 143 594 151 q 565 126 575 135 q 551 104 556 118 q 527 84 540 93 q 499 68 514 75 q 478 52 488 61 q 460 38 468 43 q 453 36 457 36 q 444 35 449 36 q 438 29 440 32 q 429 24 435 26 q 422 22 426 21 q 415 19 418 22 q 409 15 411 18 q 404 11 407 13 q 393 10 399 10 q 382 8 388 10 q 365 2 374 6 q 343 0 357 -1 q 339 2 340 0 q 335 6 338 4 q 297 7 321 8 q 257 8 274 6 q 244 14 250 10 q 233 19 239 18 q 215 21 222 22 q 199 24 208 19 q 194 27 196 25 q 189 32 192 29 q 178 34 183 35 q 169 35 172 33 q 158 44 163 38 q 146 56 153 51 q 128 65 138 63 q 113 76 119 67 q 91 119 106 101 q 69 160 76 136 q 68 195 69 179 q 57 222 67 211 q 65 274 56 254 q 83 318 75 293 q 107 337 94 326 q 133 353 119 347 q 149 354 144 357 q 163 349 153 351 q 181 344 172 344 q 197 339 189 344 q 208 327 204 333 q 219 318 213 321 q 225 301 221 307 q 235 288 229 294 q 234 252 235 269 q 231 219 233 235 q 201 190 215 206 q 172 158 188 174 q 176 128 168 138 q 188 106 185 119 q 245 72 213 90 q 326 61 278 54 q 358 72 342 64 q 386 88 375 79 q 406 113 401 97 q 410 113 410 110 q 415 115 411 115 q 439 147 424 133 q 461 178 454 161 q 464 215 461 197 q 468 253 467 233 q 474 271 472 260 q 477 294 476 282 q 478 320 478 307 q 482 343 479 333 q 478 371 475 357 q 479 399 482 385 q 469 417 476 410 q 464 436 461 425 q 451 458 458 447 q 443 479 444 468 q 404 514 425 497 q 396 520 400 517 q 389 526 392 524 q 385 527 388 528 q 382 526 383 526 q 370 538 378 531 q 356 549 363 546 q 333 550 344 554 q 306 549 321 546 q 294 552 300 549 q 282 557 289 556 q 264 555 272 558 q 246 551 256 551 q 235 546 240 549 q 226 538 229 543 q 203 528 211 535 q 188 514 196 521 q 165 483 181 494 q 138 457 149 472 q 128 456 131 458 q 124 451 126 453 z "},"6":{"ha":717,"x_min":54,"x_max":668,"o":"m 578 914 q 589 910 583 911 q 599 907 594 910 q 612 871 607 893 q 617 825 617 849 q 613 780 618 801 q 599 746 608 758 q 565 728 583 736 q 524 713 547 719 q 494 711 506 708 q 474 722 482 714 q 459 740 465 729 q 446 764 453 751 q 438 806 442 783 q 428 849 433 829 q 414 881 424 868 q 385 897 404 893 q 359 884 369 896 q 338 865 349 872 q 324 859 331 861 q 314 850 318 857 q 303 831 308 843 q 290 808 297 819 q 267 767 279 793 q 251 718 254 740 q 249 663 249 690 q 267 621 249 635 q 292 617 278 615 q 324 621 307 618 q 403 620 363 624 q 475 610 443 617 q 587 527 546 582 q 656 406 628 472 q 649 240 668 314 q 599 108 631 165 q 581 99 592 101 q 564 90 571 97 q 547 67 553 81 q 526 47 540 54 q 516 44 522 44 q 503 40 510 43 q 481 31 492 36 q 458 22 471 26 q 430 9 446 15 q 393 11 414 3 q 368 2 382 4 q 339 1 354 0 q 308 3 324 1 q 279 7 293 6 q 231 35 256 22 q 186 65 207 49 q 168 94 175 78 q 153 126 161 110 q 131 158 144 144 q 110 192 117 172 q 101 218 104 204 q 93 246 97 232 q 78 303 86 274 q 67 369 69 333 q 66 381 65 375 q 67 394 67 388 q 63 410 65 403 q 58 426 60 418 q 60 523 54 475 q 69 611 65 571 q 82 672 72 643 q 99 729 92 701 q 128 774 118 749 q 153 819 138 799 q 166 834 160 826 q 178 849 172 842 q 203 878 190 864 q 231 908 217 893 q 238 912 235 910 q 246 914 240 914 q 266 935 256 925 q 288 957 276 946 q 322 963 304 957 q 360 972 340 969 q 390 972 375 975 q 421 972 406 969 q 438 978 429 974 q 453 982 446 982 q 491 974 468 983 q 526 957 514 964 q 578 914 558 940 m 294 461 q 276 422 290 442 q 254 375 261 401 q 245 307 246 342 q 251 240 244 272 q 263 194 256 221 q 282 157 271 168 q 289 152 283 156 q 301 145 294 149 q 313 139 307 142 q 321 136 318 136 q 362 133 340 132 q 404 136 383 135 q 433 159 419 147 q 457 188 447 171 q 468 240 460 214 q 479 288 476 265 q 474 331 482 311 q 464 371 467 351 q 461 393 463 386 q 457 411 460 400 q 436 463 449 439 q 404 500 424 488 q 375 503 392 501 q 343 501 358 504 q 315 485 324 499 q 294 461 306 472 z "},"7":{"ha":678,"x_min":56,"x_max":622,"o":"m 467 525 q 460 501 461 511 q 451 479 458 490 q 455 474 451 475 q 457 469 458 474 q 451 457 450 464 q 444 443 451 450 q 444 430 447 433 q 438 418 440 426 q 437 409 436 414 q 436 401 438 404 q 433 399 435 399 q 432 396 432 399 q 431 370 429 383 q 433 340 432 357 q 431 335 433 336 q 428 332 429 335 q 429 317 428 321 q 419 290 422 310 q 419 249 417 269 q 418 244 421 244 q 414 240 415 243 q 414 203 417 219 q 414 171 411 186 q 417 168 415 169 q 419 164 419 167 q 420 154 421 160 q 421 144 419 149 q 428 126 424 133 q 429 103 432 118 q 424 89 428 96 q 418 75 421 82 q 419 70 417 71 q 419 67 421 69 q 405 42 413 56 q 378 17 397 29 q 354 4 368 11 q 328 0 340 -3 q 314 5 324 1 q 294 13 304 8 q 275 22 283 17 q 264 31 267 26 q 245 58 254 46 q 239 97 236 69 q 244 119 244 104 q 242 144 244 133 q 256 186 247 165 q 253 232 265 207 q 255 249 256 239 q 253 265 254 260 q 278 308 268 283 q 297 360 289 333 q 314 413 306 386 q 335 460 322 439 q 349 514 339 492 q 348 519 350 518 q 347 522 346 519 q 367 553 354 538 q 386 583 379 568 q 385 587 386 586 q 383 590 383 588 q 398 608 390 600 q 404 628 406 615 q 427 660 413 644 q 444 696 442 676 q 462 715 454 703 q 476 738 469 728 q 487 753 483 747 q 496 768 490 758 q 504 781 499 775 q 507 793 510 788 q 492 803 504 804 q 468 808 479 801 q 375 810 424 804 q 285 808 326 815 q 256 806 269 806 q 231 801 243 806 q 213 794 221 799 q 194 792 206 789 q 179 777 188 783 q 164 763 171 771 q 160 754 161 760 q 157 744 160 749 q 142 731 150 736 q 131 714 133 725 q 131 710 129 711 q 132 706 133 708 q 124 683 128 696 q 117 658 121 671 q 106 635 113 646 q 88 619 100 624 q 68 628 78 615 q 61 651 58 642 q 59 656 63 656 q 56 661 56 657 q 58 678 60 669 q 56 696 56 688 q 58 700 56 699 q 61 704 60 701 q 60 723 64 713 q 64 738 57 733 q 65 744 65 742 q 63 750 64 747 q 67 755 69 750 q 67 763 65 760 q 69 766 67 765 q 71 768 71 767 q 72 798 75 782 q 69 828 68 814 q 78 846 71 839 q 83 864 85 853 q 103 889 94 875 q 131 910 111 903 q 166 906 150 917 q 194 893 182 896 q 233 901 218 889 q 261 924 247 913 q 272 926 268 922 q 282 928 275 929 q 355 939 318 942 q 428 933 392 936 q 453 943 439 942 q 475 933 467 944 q 517 936 497 933 q 550 928 536 939 q 597 925 579 936 q 622 899 614 914 q 620 886 621 894 q 622 875 619 878 q 613 835 615 857 q 576 794 589 814 q 550 751 563 775 q 551 736 549 744 q 538 717 546 725 q 531 692 531 708 q 494 628 513 658 q 463 561 476 597 l 463 533 q 464 528 461 529 q 467 525 467 528 z "},"8":{"ha":772,"x_min":54,"x_max":718,"o":"m 299 997 q 347 998 321 1004 q 392 999 372 992 q 413 990 400 994 q 441 985 426 986 q 469 985 456 983 q 494 996 483 988 l 517 996 q 541 978 531 989 q 563 958 551 968 q 585 940 574 949 q 613 926 597 931 q 619 917 615 919 q 629 913 624 915 q 643 892 635 901 q 658 874 651 883 q 665 852 657 858 q 674 832 674 846 q 692 817 686 828 q 707 800 699 807 q 699 748 711 765 q 671 717 688 731 l 671 707 q 665 699 668 701 q 658 693 661 696 q 638 654 654 668 q 604 629 622 640 q 595 607 601 617 q 582 588 589 597 q 571 569 575 579 q 571 544 567 558 q 588 520 582 533 q 601 494 593 507 q 622 473 610 482 q 649 456 635 464 q 678 409 661 429 q 707 365 696 389 q 710 341 708 350 q 715 322 711 332 q 716 263 714 294 q 707 215 718 231 q 704 190 707 200 q 697 171 701 179 q 688 153 693 163 q 681 133 683 144 q 682 118 681 122 q 676 108 676 117 q 647 89 660 100 q 622 65 633 78 q 597 42 610 53 q 567 24 583 31 q 535 19 546 26 q 511 8 525 13 q 503 10 504 6 q 494 13 501 14 q 461 2 482 6 q 413 1 440 -1 q 400 4 406 1 q 388 8 394 7 q 369 8 378 10 q 353 8 360 7 q 347 10 350 8 q 342 13 344 13 q 333 13 338 14 q 324 13 328 13 q 306 20 314 15 q 290 28 297 25 q 235 28 258 29 q 193 40 213 28 q 189 46 190 43 q 185 50 188 49 q 164 59 176 56 q 143 69 151 63 q 130 81 135 74 q 115 90 125 89 q 113 97 114 93 q 111 104 113 101 q 94 126 104 117 q 74 145 83 135 q 61 169 65 156 q 61 201 57 182 q 56 235 54 213 q 57 275 58 257 q 60 296 63 283 q 76 324 68 313 q 86 358 83 335 q 133 412 114 382 q 168 476 153 442 q 169 497 171 489 q 163 513 167 506 q 153 528 158 521 q 144 543 147 535 q 142 552 142 547 q 140 561 143 557 q 130 574 136 568 q 118 585 124 579 q 108 599 113 592 q 107 615 104 606 q 91 636 100 626 q 75 660 82 646 q 76 677 78 669 q 71 692 74 685 q 69 733 68 707 q 68 776 71 758 q 65 786 67 782 q 65 794 64 790 q 73 812 65 803 q 83 832 81 821 q 83 837 85 835 q 83 842 82 839 q 92 853 86 849 q 96 872 97 858 q 122 896 111 882 q 153 914 132 910 q 204 954 175 940 q 260 988 233 968 q 281 990 275 988 q 299 997 288 993 m 472 826 q 440 850 458 838 q 396 865 422 863 q 337 868 368 868 q 285 854 306 868 l 269 854 q 240 815 249 840 q 217 771 231 790 q 215 759 218 763 q 213 750 211 756 q 223 724 219 739 q 236 699 226 708 l 236 681 q 255 663 242 668 q 283 653 268 657 q 311 644 297 649 q 333 629 325 639 q 365 622 349 626 q 394 629 382 618 l 418 629 q 443 644 429 638 q 472 657 457 650 q 490 715 485 682 q 494 785 494 747 q 478 801 485 792 q 472 826 471 810 m 236 361 q 214 326 225 343 q 206 276 203 308 q 199 258 199 268 q 201 237 199 249 q 205 213 203 225 q 206 186 207 200 q 275 96 240 138 q 281 94 281 99 q 288 93 282 90 q 299 80 294 88 q 314 69 303 72 q 372 68 338 63 q 433 69 406 74 q 444 76 438 76 q 458 81 451 76 q 470 92 465 85 q 482 104 475 100 q 487 104 485 106 q 492 104 489 103 q 493 108 493 106 q 496 111 493 110 q 502 113 499 113 q 508 114 506 113 q 525 134 521 124 q 539 153 529 144 q 549 156 546 151 q 556 163 551 160 q 564 196 557 182 q 567 238 571 210 q 558 254 563 246 q 556 275 554 263 q 539 302 544 288 q 518 328 533 317 q 458 358 486 344 q 403 393 429 372 q 385 398 392 390 q 369 408 379 406 q 332 409 351 413 q 293 407 313 406 q 264 385 276 399 q 236 361 251 371 z "},"9":{"ha":749,"x_min":56,"x_max":693,"o":"m 453 958 q 467 945 460 951 q 481 932 474 939 q 514 924 503 935 q 540 903 525 914 q 566 885 556 893 q 583 863 576 876 q 592 841 588 853 q 606 821 597 829 q 624 788 607 801 q 623 785 624 785 q 621 782 622 785 q 639 750 635 765 q 648 734 640 743 q 658 717 656 725 q 658 714 660 714 q 657 711 656 714 q 665 698 660 704 q 669 685 669 692 q 668 669 671 678 q 674 654 665 661 q 672 637 671 647 q 676 622 674 626 q 676 601 671 611 q 678 583 681 592 q 681 578 678 579 q 683 574 685 578 q 682 567 681 572 q 682 560 683 563 q 692 535 690 549 q 691 508 693 522 q 686 477 689 493 q 683 447 683 461 q 674 401 674 428 q 664 358 675 375 q 663 351 664 356 q 665 347 663 347 q 663 342 665 343 q 660 339 661 342 q 653 307 661 319 q 653 300 653 303 q 656 294 654 297 q 649 274 647 286 q 622 232 635 254 q 593 189 608 210 q 594 185 593 186 q 594 182 594 185 q 589 178 590 181 q 585 175 588 176 q 582 161 586 168 q 574 144 578 154 q 567 131 571 138 q 561 122 564 125 q 535 92 550 104 q 510 63 519 81 q 504 62 504 65 q 500 60 504 58 q 454 31 481 40 q 404 10 428 22 q 361 4 385 7 q 314 1 338 1 q 269 3 290 0 q 232 18 247 7 q 197 26 208 14 q 174 49 186 38 q 157 64 163 58 q 147 76 151 69 q 131 94 140 86 q 119 110 122 103 q 119 122 118 115 q 113 131 119 128 q 114 135 113 133 q 114 140 115 136 q 112 145 115 144 q 108 151 108 146 q 111 172 111 158 q 108 194 111 186 q 112 201 113 197 q 113 211 111 206 q 115 213 114 213 q 118 214 117 213 q 117 217 119 217 q 115 221 114 218 q 122 229 118 225 q 129 239 126 233 q 128 242 129 242 q 126 246 126 243 q 133 258 128 247 q 139 268 138 268 q 148 274 142 271 q 161 278 154 276 q 185 292 176 283 q 211 300 193 300 q 243 294 226 297 q 271 282 260 290 q 283 260 276 269 q 297 239 290 250 q 306 213 304 224 q 310 205 307 210 q 314 197 314 200 q 313 193 315 194 q 313 189 311 192 q 322 167 317 178 q 339 154 328 157 q 347 154 343 153 q 353 154 350 156 q 367 146 360 151 q 385 142 375 140 q 406 156 397 144 q 422 174 415 167 q 456 211 442 197 q 476 247 469 225 q 477 260 475 256 q 483 271 479 265 q 483 276 485 275 q 481 281 481 278 q 486 286 485 281 q 486 293 485 289 q 485 299 488 297 q 486 303 483 303 q 490 307 489 304 q 492 321 486 317 q 493 336 497 325 q 499 349 497 338 q 497 367 500 360 q 496 371 497 369 q 493 375 494 372 q 493 378 490 378 q 494 382 496 379 q 484 398 490 392 q 475 411 478 404 q 452 410 460 417 q 431 401 444 403 q 409 389 424 393 q 376 383 394 385 q 340 381 358 381 q 307 383 322 382 q 285 392 292 386 q 265 401 278 397 q 253 402 260 403 q 239 404 246 401 q 222 415 229 407 q 207 426 214 424 l 197 426 q 135 464 165 443 q 104 513 106 485 q 99 519 99 517 q 94 525 100 522 q 74 581 85 556 q 75 585 74 583 q 75 590 76 588 q 71 598 72 596 q 72 608 69 600 q 68 614 72 614 q 65 619 64 614 q 67 623 69 619 q 68 629 65 626 q 63 654 63 639 q 60 682 63 669 q 56 710 56 689 q 60 740 56 732 q 60 751 60 746 q 58 758 61 756 q 82 791 68 774 q 106 824 96 808 q 131 844 121 832 q 151 869 142 857 q 173 891 161 881 q 204 907 185 901 q 248 935 224 924 q 296 958 272 946 l 313 958 q 344 971 326 968 q 381 972 363 974 q 418 967 400 971 q 453 958 436 963 m 307 838 q 289 815 299 825 q 270 795 279 806 q 256 771 261 785 q 254 736 251 757 q 248 710 247 729 q 250 679 249 692 q 244 666 243 676 q 250 651 246 656 q 254 615 247 629 q 258 579 261 601 q 311 525 269 543 q 326 510 317 513 q 349 510 336 508 q 378 515 363 513 q 411 517 394 518 q 461 569 443 544 q 490 629 479 593 q 494 651 492 638 q 497 678 496 664 q 498 705 499 692 q 493 726 497 718 q 494 735 496 729 q 494 743 493 740 q 489 749 488 746 q 490 757 490 753 q 488 758 490 756 q 485 764 485 761 q 479 779 483 774 q 468 794 475 785 q 459 807 461 800 q 453 819 457 814 q 427 845 442 835 q 396 858 413 856 q 361 856 382 860 q 335 847 349 851 q 307 838 322 842 z "},"\u0000":{"ha":0,"x_min":0,"x_max":0,"o":""},"\r":{"ha":417,"x_min":0,"x_max":0,"o":""}," ":{"ha":417,"x_min":0,"x_max":0,"o":""},"!":{"ha":319,"x_min":56,"x_max":264,"o":"m 113 258 q 114 263 110 261 q 119 267 118 264 q 117 274 119 269 q 115 282 114 278 q 119 292 118 288 q 122 296 119 294 q 124 300 124 297 q 122 303 124 301 q 121 307 121 304 q 123 315 121 311 q 118 325 125 319 q 119 340 121 332 q 114 355 117 347 q 110 371 111 363 q 113 388 108 379 q 111 390 114 390 q 110 393 108 390 q 111 408 113 400 q 117 422 110 417 q 101 503 110 461 q 99 596 92 544 q 89 651 92 622 q 83 713 86 681 q 74 778 79 744 q 56 847 68 813 q 58 894 61 874 q 58 942 56 914 q 98 983 82 963 q 140 1017 114 1004 q 178 1013 161 1014 q 210 1010 196 1013 q 234 1001 224 1007 q 253 983 244 996 q 261 884 260 932 q 264 792 263 836 q 258 776 260 785 q 250 760 256 767 q 245 699 253 733 q 229 642 238 664 q 229 590 232 619 q 219 543 226 561 q 223 485 217 515 q 219 432 229 456 q 215 426 218 429 q 210 421 213 424 q 209 409 206 414 q 213 397 213 404 q 210 383 215 390 q 207 368 206 375 q 210 364 207 365 q 213 360 213 363 q 208 343 213 353 q 203 326 204 333 q 205 317 203 321 q 207 308 207 313 q 203 300 206 304 q 203 292 201 296 q 203 290 203 290 q 204 288 204 289 q 202 281 204 283 q 199 275 200 278 q 199 271 197 272 q 200 267 200 269 q 199 263 200 264 q 199 261 199 263 q 199 250 201 256 q 197 238 196 244 q 192 221 197 228 q 192 212 193 217 q 189 203 190 207 q 190 199 189 200 q 190 194 192 197 q 189 193 190 193 q 186 192 186 192 q 186 189 186 189 q 160 185 179 182 q 132 190 142 188 q 124 207 125 197 q 124 225 122 217 q 122 233 121 229 q 122 242 122 238 q 121 251 122 247 q 113 258 119 256 m 124 4 q 106 24 113 13 q 93 47 100 36 q 113 113 90 93 q 174 129 135 133 q 175 128 175 129 q 178 126 175 126 q 180 126 179 125 q 182 128 181 128 q 183 126 182 126 q 183 125 183 126 q 185 124 183 124 q 189 124 188 122 q 193 122 190 125 q 204 115 197 119 q 214 108 211 111 q 222 94 221 101 q 224 74 222 88 q 226 69 225 71 q 226 63 226 67 q 223 56 226 60 q 217 47 219 53 q 213 36 214 42 q 210 28 213 31 q 190 6 200 13 q 172 -1 185 1 q 144 -3 160 -4 q 134 2 138 -1 q 124 4 131 6 z "},"\"":{"ha":417,"x_min":56,"x_max":363,"o":"m 236 946 q 240 953 239 949 q 246 960 240 957 q 239 984 239 971 q 236 1013 239 997 q 233 1029 233 1021 q 232 1044 232 1038 q 230 1051 232 1047 q 228 1058 228 1054 q 229 1064 228 1061 q 232 1071 231 1067 q 232 1078 232 1074 q 233 1085 232 1082 q 244 1094 235 1089 q 261 1103 253 1100 q 274 1103 268 1104 q 288 1104 281 1103 q 299 1106 294 1104 q 311 1108 304 1108 q 330 1103 322 1107 q 346 1096 338 1099 q 350 1088 346 1090 q 354 1081 354 1085 q 352 1076 354 1078 q 350 1071 350 1074 q 355 1065 351 1068 q 360 1060 358 1063 q 360 1054 361 1057 q 360 1049 358 1051 q 361 1042 360 1046 q 360 1033 363 1038 q 357 1031 360 1032 q 354 1026 354 1029 q 352 1014 351 1021 q 354 1003 353 1007 q 358 995 356 999 q 358 988 360 992 q 356 983 358 985 q 353 979 353 982 q 353 960 350 969 q 353 944 356 951 q 347 939 353 944 q 344 923 344 932 q 344 907 344 914 q 346 903 344 904 q 347 899 347 901 q 343 893 343 894 q 341 884 340 889 q 339 875 342 879 q 338 871 338 872 q 339 868 339 869 q 339 856 340 861 q 338 851 340 853 q 338 849 336 850 q 339 846 338 846 q 342 844 340 844 q 339 841 340 842 q 336 839 338 840 q 336 833 333 836 q 339 826 339 829 q 335 822 335 822 l 335 819 q 335 815 338 817 q 333 810 332 813 q 335 804 335 808 q 331 802 333 803 q 329 800 328 801 q 332 788 329 793 q 328 779 335 783 q 315 778 321 778 q 303 776 310 778 q 292 778 296 778 q 281 778 288 778 q 276 779 281 779 q 269 782 272 779 q 269 787 268 785 q 268 792 271 789 q 265 795 267 794 q 264 799 264 796 q 262 810 261 806 q 260 822 263 815 q 258 833 258 826 q 260 843 260 838 q 258 853 261 849 q 251 860 251 860 q 252 863 251 863 q 253 867 253 864 q 253 873 254 869 q 251 879 251 876 q 255 885 253 882 q 257 890 257 888 q 256 892 256 892 q 254 894 256 893 q 251 906 251 900 q 249 918 250 911 q 245 920 247 919 q 243 924 243 921 q 242 934 240 929 q 236 944 243 939 l 236 946 m 186 818 q 178 809 174 815 q 178 799 182 803 q 178 788 179 794 q 169 778 176 782 q 142 774 161 775 q 114 778 124 774 l 115 778 l 115 779 q 111 781 113 779 q 112 784 110 783 q 113 786 114 785 q 110 791 113 789 q 110 796 108 793 q 104 806 104 804 q 103 813 106 808 q 101 819 100 817 q 103 821 104 821 q 101 824 101 821 q 102 825 101 825 q 103 828 103 825 q 99 831 101 829 q 99 835 97 832 q 99 836 99 836 q 99 841 101 839 q 96 844 96 843 q 97 849 94 847 q 99 854 100 851 q 94 863 97 858 q 90 871 90 868 q 93 874 90 874 q 96 876 96 875 q 93 883 97 879 q 90 890 89 886 q 94 896 92 893 q 94 901 97 899 q 88 904 92 904 q 83 907 85 904 q 81 931 75 918 q 85 954 88 943 q 78 973 79 961 q 79 993 76 985 q 67 1014 72 1001 q 65 1033 63 1026 q 60 1039 61 1036 q 56 1044 58 1042 q 58 1072 57 1058 q 65 1101 60 1086 q 95 1108 78 1108 q 142 1110 113 1108 q 171 1101 160 1107 q 197 1089 182 1096 q 200 1076 200 1082 q 204 1063 200 1071 q 190 1017 189 1040 q 182 975 192 994 q 185 938 190 956 q 175 903 179 919 q 180 896 182 900 q 183 889 178 892 q 181 887 183 886 q 179 885 179 888 q 184 877 185 881 q 181 869 183 874 q 176 862 178 865 q 178 854 175 858 q 174 849 171 851 q 178 844 176 847 q 175 840 174 840 q 176 839 175 839 q 178 836 178 839 q 182 831 182 832 q 181 827 185 829 q 179 822 178 825 q 184 820 181 821 q 186 818 188 819 z "},"#":{"ha":974,"x_min":56,"x_max":918,"o":"m 803 421 q 844 418 824 418 q 885 411 865 418 q 896 392 892 400 q 901 364 900 383 q 891 344 894 356 q 879 326 888 333 q 851 313 868 317 q 819 308 835 310 q 794 316 807 308 q 763 321 781 324 q 756 317 760 319 q 750 315 753 315 q 735 315 742 313 q 721 318 728 318 q 712 317 717 318 q 701 314 707 315 q 701 286 701 299 q 701 258 700 274 q 701 188 704 225 q 701 115 699 150 q 702 99 703 107 q 701 79 701 90 q 705 67 703 72 q 707 56 707 63 q 707 30 708 44 q 701 4 706 15 q 697 -4 700 0 q 690 -14 693 -8 q 675 -31 682 -26 q 651 -37 668 -36 q 633 -20 642 -28 q 611 -11 624 -12 q 596 11 603 -3 q 600 74 594 43 q 599 136 606 106 q 594 147 597 142 q 590 158 592 153 q 589 197 588 176 q 593 235 590 217 q 597 243 594 239 q 599 251 599 247 q 600 321 604 285 q 570 319 585 319 q 538 321 556 318 q 511 326 524 322 q 489 326 499 329 q 483 323 486 325 q 475 321 479 321 q 464 324 469 319 q 451 329 458 328 q 435 328 444 331 q 417 324 426 325 q 399 322 406 321 q 385 315 392 322 q 364 319 374 319 q 360 233 365 276 q 363 185 363 211 q 363 131 363 158 q 364 78 363 104 q 371 33 365 53 q 367 10 367 19 q 365 -11 368 1 q 346 -28 354 -21 q 326 -42 338 -36 q 296 -39 307 -39 q 276 -29 285 -39 q 268 16 271 -7 q 263 63 265 39 q 265 72 265 67 q 268 82 265 78 q 267 106 267 90 q 267 138 267 121 q 269 169 268 154 q 274 193 271 185 q 271 240 271 213 q 274 286 271 267 q 274 301 274 293 q 272 317 274 308 q 222 318 249 315 q 171 318 196 321 q 158 317 164 317 q 144 318 151 318 q 135 315 139 317 q 125 311 131 313 q 106 313 118 311 q 86 318 94 314 q 80 323 83 319 q 74 329 76 326 q 60 344 63 338 q 56 368 57 351 q 68 387 63 378 q 76 408 74 396 q 83 417 79 414 q 92 424 88 421 q 140 419 117 425 q 188 421 164 414 q 195 424 192 421 q 203 429 199 428 q 232 431 217 432 q 261 426 247 429 q 265 425 263 425 l 265 429 q 269 438 267 433 q 274 446 271 442 q 273 465 276 457 q 268 485 269 474 q 269 512 265 499 q 271 539 272 525 q 268 548 271 543 q 265 557 265 553 q 267 591 264 571 q 271 628 271 611 q 269 644 271 636 q 267 658 268 651 q 260 660 264 660 q 193 656 226 653 q 129 649 160 660 q 113 652 119 653 q 96 654 106 651 q 83 674 89 665 q 74 693 76 682 q 76 724 75 713 q 83 743 76 735 q 117 751 100 749 q 153 757 135 754 q 160 754 156 754 q 167 751 164 754 q 198 752 179 754 q 229 746 217 750 q 247 749 238 749 q 268 749 257 749 q 271 763 271 757 q 271 774 272 769 q 268 786 269 779 q 269 797 268 793 q 268 807 269 800 q 268 843 265 822 q 268 883 271 864 q 274 947 267 917 q 272 983 271 965 q 274 1019 274 1000 q 272 1038 274 1029 q 271 1054 269 1046 q 274 1062 272 1058 q 276 1069 275 1065 q 276 1076 278 1072 q 276 1082 275 1079 q 293 1101 282 1097 q 317 1102 304 1106 q 341 1092 329 1099 q 360 1076 353 1085 q 370 1003 369 1044 q 368 931 371 963 q 369 901 371 917 q 367 869 368 885 q 367 839 365 853 q 378 814 369 825 q 375 801 381 807 q 368 788 369 794 q 368 772 367 781 q 371 756 369 764 q 407 754 392 758 q 415 751 411 753 q 421 746 418 749 q 435 747 428 743 q 450 751 442 750 q 471 750 461 754 q 490 749 481 746 q 498 751 494 749 q 504 754 501 754 q 531 752 515 756 q 558 749 546 749 q 575 751 567 749 q 590 754 583 754 q 599 753 594 754 q 606 753 603 753 l 606 763 q 602 774 604 769 q 599 786 600 779 q 600 801 599 793 q 601 817 601 808 q 600 830 601 824 q 599 843 599 836 q 601 860 601 854 q 599 892 603 872 q 596 924 596 911 q 597 945 596 935 q 599 967 599 956 q 601 1021 601 994 q 608 1075 601 1047 q 628 1090 619 1085 q 654 1096 636 1094 q 675 1083 664 1089 q 693 1067 686 1078 q 706 1030 703 1053 q 711 988 710 1007 q 703 953 711 971 q 699 913 696 936 q 702 903 700 907 q 704 894 704 900 q 704 868 707 885 q 701 844 701 851 q 705 823 701 833 q 707 803 708 813 q 703 789 707 796 q 699 775 700 782 q 698 764 699 769 q 697 753 697 758 q 723 751 708 754 q 751 751 738 749 q 800 746 776 754 q 826 747 813 749 q 854 746 839 746 q 867 748 861 746 q 881 749 874 750 q 886 745 883 747 q 892 743 889 743 q 897 742 894 742 q 901 743 899 743 q 915 726 913 738 q 916 703 918 715 q 908 678 914 690 q 897 660 903 667 q 842 649 874 650 q 788 651 811 649 q 765 650 776 649 q 742 652 753 651 q 719 652 731 653 q 700 643 708 651 q 700 622 700 632 q 699 600 700 611 q 694 565 697 583 q 693 536 690 547 q 697 527 694 531 q 699 518 699 524 q 696 503 700 511 q 690 488 692 496 q 692 465 689 476 q 696 440 694 453 q 697 428 697 433 q 697 418 697 422 q 699 417 699 418 q 701 417 700 417 q 711 419 707 417 q 721 421 715 421 l 733 417 q 752 420 743 417 q 771 424 761 424 q 787 422 778 424 q 803 421 796 421 m 529 426 q 547 424 538 426 q 564 421 556 421 q 583 422 575 419 q 599 424 590 425 l 599 440 q 595 463 599 451 q 590 485 592 475 q 592 491 590 488 q 593 499 593 494 q 594 543 596 521 q 593 589 593 565 q 596 613 593 600 q 599 636 599 625 q 597 657 599 650 l 594 657 q 578 661 586 658 q 561 657 569 664 q 537 659 549 661 q 513 655 525 657 q 488 652 500 653 q 464 657 476 651 q 460 656 461 658 q 456 654 458 653 q 437 657 449 658 q 418 663 425 656 q 389 660 403 661 q 360 657 375 660 q 363 632 357 642 q 360 599 358 615 q 365 567 363 583 q 367 535 367 551 q 363 503 368 519 q 364 498 361 499 q 365 493 367 497 q 363 467 361 482 q 357 443 364 451 l 357 425 q 385 422 369 422 q 417 421 400 421 q 434 424 425 419 q 450 429 443 428 q 456 428 453 429 q 461 426 458 426 q 494 425 476 424 q 529 426 511 426 z "},"$":{"ha":800,"x_min":56,"x_max":744,"o":"m 421 1088 q 422 1070 424 1079 q 414 1057 419 1061 q 416 1047 417 1051 q 417 1038 415 1042 q 420 1032 418 1035 q 422 1026 422 1029 q 419 1013 422 1018 q 417 1000 417 1007 q 417 992 415 996 q 419 985 419 989 q 417 959 421 971 q 419 935 413 947 q 407 913 413 924 q 392 892 401 901 q 350 891 372 889 q 322 907 328 893 q 319 925 324 917 q 314 943 315 933 q 315 951 313 947 q 317 960 317 954 q 315 974 317 967 q 314 988 314 981 q 310 1024 311 1006 q 311 1057 308 1042 q 314 1067 311 1063 q 317 1076 317 1072 q 314 1090 317 1083 q 311 1103 311 1096 q 313 1110 311 1106 q 317 1118 315 1114 q 317 1128 318 1122 q 317 1138 315 1135 q 332 1152 319 1147 q 359 1157 344 1157 q 387 1153 374 1157 q 404 1140 400 1149 q 412 1113 407 1125 q 421 1088 417 1101 m 421 44 q 422 27 424 36 q 414 14 419 18 q 416 3 417 8 q 417 -6 415 -1 q 420 -11 418 -8 q 422 -17 422 -14 q 419 -31 422 -25 q 417 -43 417 -36 q 417 -51 415 -47 q 419 -58 419 -54 q 417 -84 421 -72 q 419 -108 413 -96 q 407 -131 413 -119 q 392 -151 401 -142 q 350 -152 372 -154 q 322 -136 328 -150 q 319 -118 324 -126 q 314 -100 315 -110 q 315 -92 313 -96 q 317 -83 317 -89 q 315 -69 317 -76 q 314 -56 314 -62 q 310 -19 311 -37 q 311 14 308 -1 q 314 24 311 19 q 317 33 317 29 q 314 47 317 40 q 311 60 311 53 q 313 67 311 63 q 317 75 315 71 q 317 85 318 79 q 317 94 315 92 q 332 109 319 104 q 359 114 344 114 q 387 110 374 114 q 404 97 400 106 q 412 70 407 82 q 421 44 417 58 m 668 839 q 671 834 668 835 q 674 829 674 833 q 669 760 671 799 q 669 694 667 722 q 660 668 663 683 q 653 640 658 653 q 638 620 649 626 q 606 622 628 614 q 567 681 579 653 q 533 739 556 710 q 527 758 536 751 q 508 776 518 765 q 503 786 506 781 q 499 796 501 792 q 478 815 490 807 q 453 832 465 822 q 428 856 440 843 q 394 871 417 868 q 370 874 381 867 q 347 881 360 881 q 334 879 340 882 q 317 875 328 876 q 303 869 310 874 q 289 861 296 865 q 269 849 279 854 q 249 838 258 844 q 218 805 228 824 q 201 774 208 786 q 201 757 203 767 q 207 746 200 747 q 222 692 210 714 q 267 656 235 671 q 288 652 281 657 q 306 646 294 647 q 331 628 315 635 q 363 617 346 621 q 397 608 381 613 q 429 596 414 603 q 471 585 454 594 q 507 569 488 576 q 546 557 532 568 q 574 535 560 546 l 597 535 l 606 526 q 618 501 607 511 q 640 478 629 492 q 673 460 661 471 q 693 435 685 449 q 707 408 701 422 q 721 382 713 394 q 726 356 719 367 q 732 329 733 346 q 734 324 731 324 q 738 318 738 324 q 735 315 735 318 q 736 308 736 311 q 742 276 743 296 q 744 235 742 256 q 742 230 744 231 q 739 226 739 229 q 738 207 740 214 q 732 193 736 200 q 733 178 732 182 q 723 155 725 167 q 714 132 721 143 q 690 104 703 115 q 676 74 676 93 q 639 49 658 60 q 604 21 619 38 q 578 15 590 24 q 553 4 565 7 q 541 4 547 3 q 529 4 535 6 q 509 -1 518 3 q 492 -6 500 -6 q 481 -2 486 -6 q 469 1 476 1 q 457 -3 463 1 q 444 -8 451 -8 q 410 -3 425 -11 q 375 11 394 6 q 335 17 351 8 q 300 28 319 25 q 295 28 297 29 q 290 28 293 26 q 272 37 279 32 q 258 47 265 42 q 242 54 251 51 q 219 56 233 57 q 207 53 215 54 q 194 49 199 51 q 188 42 190 46 q 182 35 185 38 q 170 30 176 32 q 158 25 164 28 q 140 11 149 18 q 119 1 132 4 q 63 67 58 14 q 58 96 56 75 q 57 131 61 117 q 58 135 56 135 q 63 139 61 136 q 61 153 63 147 q 65 163 60 160 q 65 171 64 165 q 64 178 67 176 q 65 183 63 182 q 69 186 68 183 q 69 247 68 215 q 67 306 69 278 q 69 310 67 308 q 72 314 72 311 q 80 351 71 340 q 104 378 89 363 q 125 378 113 376 q 144 374 138 379 q 160 356 151 369 q 172 332 169 342 q 174 324 175 329 q 175 317 174 319 q 191 295 181 303 q 210 275 201 288 q 216 261 214 269 q 222 246 218 253 q 239 229 229 235 q 257 213 249 224 q 285 193 275 207 q 295 181 289 188 q 308 165 301 174 q 323 143 318 154 q 349 132 328 132 q 368 124 358 128 q 386 115 378 121 q 413 113 401 117 q 428 115 419 115 q 443 113 436 114 q 465 115 458 108 q 483 125 472 122 q 513 129 499 129 q 539 136 526 129 q 552 147 544 139 q 567 163 560 154 q 579 178 574 171 q 588 189 585 185 q 593 194 590 193 q 596 197 596 196 q 597 206 597 200 q 597 214 596 211 q 601 216 599 215 q 603 218 603 217 q 603 224 604 221 q 606 229 601 226 l 606 254 q 601 261 607 258 q 591 301 599 286 q 568 333 583 315 q 531 349 547 339 q 499 370 515 360 q 465 390 483 381 q 425 401 447 399 q 412 410 421 411 q 392 411 403 408 q 380 417 385 413 q 369 425 375 422 q 347 433 358 431 q 329 444 336 435 q 240 476 281 457 q 168 522 200 494 l 160 522 q 150 533 153 526 q 143 547 147 540 q 125 564 136 557 q 107 581 114 571 q 98 606 100 592 q 88 631 96 619 q 89 635 88 633 q 89 642 90 638 q 81 660 88 649 q 74 682 75 672 q 76 713 72 696 q 74 749 79 731 q 77 756 78 751 q 78 765 76 760 q 79 767 78 767 q 82 768 81 767 q 81 772 83 771 q 81 775 79 772 q 92 794 85 786 q 97 815 100 803 q 101 820 104 817 q 100 826 99 824 q 121 860 107 844 q 146 892 135 875 q 160 905 151 900 q 179 915 169 910 q 198 927 189 921 q 213 942 207 933 q 236 947 225 944 q 256 956 247 949 q 297 958 275 957 q 336 956 318 958 q 354 955 344 953 q 369 958 364 957 q 403 957 388 963 q 436 949 419 951 q 447 949 442 947 q 457 949 451 950 q 467 942 464 946 q 475 935 469 938 q 498 925 483 929 q 524 918 513 921 q 540 917 535 915 q 557 921 546 919 q 569 922 564 922 q 581 921 575 921 q 605 931 593 924 q 628 935 617 938 q 652 915 639 932 q 667 886 665 897 q 665 876 667 881 q 665 867 664 872 q 669 855 667 861 q 668 839 671 849 z "},"%":{"ha":1244,"x_min":56,"x_max":1189,"o":"m 765 836 q 758 823 764 829 q 749 810 751 817 q 743 787 743 799 q 739 764 743 775 q 733 752 736 757 q 725 736 729 747 q 719 725 722 731 q 714 715 715 719 q 713 706 713 711 q 713 697 714 701 q 703 676 708 686 q 700 654 697 665 q 690 622 692 638 q 685 589 688 606 q 679 556 683 572 q 665 524 675 540 q 665 519 663 519 q 665 514 668 518 q 656 488 658 503 q 644 464 653 472 q 622 358 632 408 q 590 254 613 307 q 570 165 585 210 q 556 81 556 121 q 546 58 549 67 q 538 36 543 49 q 514 19 524 28 q 492 6 504 11 q 461 8 472 8 q 444 19 450 8 q 449 64 446 40 q 454 111 451 88 q 460 120 457 114 q 465 129 463 126 q 476 171 468 146 q 493 214 485 196 q 503 260 496 233 q 518 307 510 288 q 531 376 528 339 q 549 450 533 414 q 555 458 551 454 q 561 467 558 463 q 566 486 568 478 q 567 506 564 494 q 574 533 568 519 q 583 560 581 546 q 583 569 585 564 q 583 578 582 574 q 594 612 586 592 q 608 650 603 632 q 611 672 611 661 q 614 693 611 682 q 621 715 617 704 q 628 736 625 725 q 628 743 629 739 q 629 750 628 747 q 637 767 632 760 q 644 785 642 775 q 647 797 647 792 q 647 808 646 801 q 651 818 649 814 q 653 829 653 822 q 662 865 653 844 q 674 906 671 886 q 682 938 676 924 q 696 971 688 953 q 704 1005 699 988 q 715 1042 710 1022 q 719 1060 718 1051 q 722 1078 719 1068 q 726 1084 724 1081 q 732 1092 729 1088 q 733 1098 733 1094 q 735 1104 733 1101 q 757 1124 744 1119 q 781 1125 769 1128 q 803 1115 793 1122 q 817 1099 813 1107 q 808 1026 818 1068 q 786 953 797 985 q 779 923 785 939 q 769 891 774 907 q 762 861 764 875 q 765 836 760 847 m 918 640 q 921 642 917 642 q 1006 625 965 635 q 1079 597 1047 615 q 1106 557 1093 578 q 1135 514 1118 536 q 1145 502 1139 508 q 1154 490 1151 496 q 1163 463 1161 478 q 1169 432 1164 447 q 1177 420 1172 425 q 1185 408 1182 415 q 1188 378 1188 396 q 1188 340 1189 360 q 1183 303 1186 321 q 1175 274 1179 286 q 1173 243 1169 258 q 1174 214 1176 228 q 1169 206 1172 210 q 1163 197 1165 203 q 1156 177 1157 189 q 1151 157 1156 165 q 1142 143 1149 151 q 1129 126 1135 135 q 1110 99 1118 111 q 1090 72 1101 88 q 1073 51 1079 58 q 1050 33 1067 43 q 1042 32 1047 31 q 1033 31 1038 33 q 1024 23 1026 28 q 1019 15 1022 18 q 965 2 994 3 q 911 6 935 1 q 835 28 868 13 q 775 67 803 43 q 761 92 768 81 q 746 118 754 104 q 733 131 740 125 q 719 144 725 138 q 718 152 717 147 q 717 160 719 157 q 703 173 711 168 q 693 185 696 178 q 692 197 690 192 q 693 208 694 201 q 686 219 692 215 q 678 231 681 224 q 673 261 672 246 q 660 286 674 276 q 668 331 667 306 q 672 381 669 357 q 687 406 683 394 q 694 435 690 418 q 706 468 701 453 q 717 505 710 486 q 739 542 724 524 q 753 553 743 547 q 769 565 763 558 q 793 588 781 575 q 820 612 806 601 q 853 628 835 622 q 897 633 872 635 q 908 636 906 632 q 918 640 911 640 m 975 60 q 1036 206 1042 117 q 1042 216 1040 210 q 1050 225 1044 222 q 1046 248 1046 236 q 1046 272 1046 260 q 1044 294 1046 283 q 1035 317 1042 306 q 1042 346 1036 332 q 1044 375 1047 360 q 1039 388 1043 382 q 1033 401 1035 394 q 1035 426 1031 414 q 1038 451 1039 439 q 1023 513 1035 483 q 996 571 1011 543 q 975 585 981 575 q 958 597 969 594 q 930 598 943 601 q 903 588 917 594 q 878 575 890 582 q 853 565 865 568 q 841 540 843 553 q 836 510 839 528 q 827 479 833 494 q 821 451 821 464 q 824 438 821 444 q 826 425 828 432 q 821 403 826 414 q 813 382 815 393 q 810 331 810 360 q 814 282 811 303 q 819 267 817 275 q 821 253 821 260 q 817 238 821 246 q 813 224 814 231 q 824 143 810 182 q 861 74 839 104 q 895 62 885 74 q 921 43 906 50 q 947 52 938 46 q 975 60 957 58 m 433 1088 q 447 1066 436 1074 q 460 1046 457 1058 q 494 1022 479 1036 q 524 988 510 1007 q 533 969 531 978 q 540 947 536 961 q 559 911 547 928 q 574 874 571 894 q 571 854 575 864 q 568 833 567 844 q 576 793 571 813 q 578 747 581 774 q 570 712 576 729 q 560 676 564 694 q 558 663 557 669 q 557 650 560 657 q 517 585 544 614 q 469 526 489 557 q 430 500 450 513 q 385 476 410 488 q 325 473 357 474 q 265 482 293 472 q 237 503 253 494 q 205 522 221 513 q 175 544 189 532 q 154 572 161 556 q 144 576 151 575 q 135 579 138 576 q 94 645 117 614 q 67 715 71 676 q 68 726 65 721 q 69 738 71 732 q 63 751 68 744 q 57 767 58 758 q 59 790 56 778 q 65 818 63 803 q 67 842 67 831 q 69 865 67 854 q 77 883 74 876 q 83 907 81 890 q 93 935 86 921 q 108 961 100 949 q 122 986 115 974 q 131 1011 129 999 q 140 1019 133 1017 q 150 1026 147 1021 q 153 1038 153 1033 q 156 1049 154 1043 q 178 1062 163 1060 q 210 1074 194 1064 q 227 1091 221 1081 q 246 1104 233 1101 q 263 1103 254 1106 q 278 1101 271 1101 q 292 1107 288 1103 q 304 1113 297 1111 q 328 1116 310 1115 q 358 1115 347 1117 q 394 1104 379 1114 q 433 1088 410 1094 m 344 1074 q 288 1065 315 1071 q 247 1047 260 1060 q 233 1028 240 1042 q 219 999 225 1014 q 208 969 213 983 q 203 947 203 954 q 206 933 203 940 q 210 919 210 926 q 201 891 208 906 q 193 860 194 876 q 193 819 192 840 q 197 777 194 799 q 199 735 199 756 q 196 696 200 714 q 190 686 194 690 q 185 675 186 682 q 178 648 182 664 q 176 626 175 632 q 195 603 179 615 q 221 579 211 592 q 243 553 232 564 q 261 531 254 542 q 308 515 286 524 q 353 514 329 507 q 385 535 372 519 q 418 557 399 550 q 432 600 422 581 q 433 640 442 619 q 447 660 443 649 q 451 683 450 671 q 454 706 453 694 q 461 729 456 718 q 448 788 447 757 q 444 842 449 819 q 444 884 442 864 q 444 924 447 904 q 426 975 440 951 q 408 1032 413 999 q 390 1042 397 1035 q 374 1056 382 1049 q 360 1069 367 1064 q 344 1074 353 1074 z "},"&":{"ha":1065,"x_min":56,"x_max":1010,"o":"m 142 46 q 132 66 142 58 q 124 86 122 74 q 88 137 100 113 q 63 190 76 161 q 65 194 65 190 q 65 201 64 199 q 63 207 67 207 q 60 213 58 207 q 62 231 63 221 q 60 253 61 242 q 60 274 60 264 q 65 288 61 283 q 59 311 60 300 q 56 338 58 322 q 63 346 61 340 q 72 356 65 351 q 84 389 75 375 q 106 418 93 403 q 104 422 106 421 q 104 425 103 422 q 150 482 124 453 q 200 540 176 511 q 212 544 207 542 q 222 547 217 546 q 231 556 229 551 q 236 564 233 560 q 261 590 256 575 q 278 618 267 604 q 278 638 276 626 q 276 656 279 649 q 283 680 283 668 q 281 703 283 692 q 274 724 278 714 q 272 744 271 735 q 278 758 274 751 q 274 772 283 765 q 278 788 278 782 q 285 801 278 794 q 288 824 285 817 q 300 842 292 831 q 299 855 300 850 q 303 864 297 860 q 301 879 304 871 q 321 901 314 889 q 334 926 328 914 q 347 951 340 939 q 365 976 354 964 q 378 978 375 975 q 392 981 382 982 q 422 999 403 997 q 463 1003 442 1000 q 472 1006 468 1004 q 482 1010 476 1008 q 508 1014 493 1013 q 532 1014 522 1015 q 549 1008 542 1013 q 565 1003 556 1004 q 574 1003 569 1001 q 583 1003 579 1004 q 614 984 599 999 q 640 958 629 969 q 663 939 656 947 q 678 919 671 931 q 689 890 678 901 q 686 845 689 864 q 678 811 683 826 q 667 782 674 796 q 656 751 661 768 q 641 744 646 749 q 631 733 636 739 q 619 724 626 728 q 600 721 613 721 q 549 681 572 703 q 497 643 526 658 q 490 620 492 633 q 482 596 489 607 l 482 564 q 489 547 486 556 q 496 529 492 538 q 505 519 500 522 q 513 510 510 515 q 513 501 514 507 q 514 493 513 496 q 518 489 515 490 q 524 483 521 488 q 531 466 529 476 q 540 447 533 456 q 554 433 547 439 q 564 418 561 426 q 563 415 565 415 q 563 413 561 414 q 576 390 567 400 q 589 369 585 381 q 592 358 592 364 q 594 346 592 351 q 600 341 597 343 q 606 335 603 339 q 615 322 610 331 q 627 305 619 313 q 647 294 635 297 q 675 294 658 290 q 685 303 678 296 q 701 319 693 310 q 717 337 710 328 q 725 350 724 346 q 724 354 726 353 q 724 358 722 356 q 728 366 724 361 q 726 378 732 371 q 739 403 735 386 q 740 440 743 421 q 735 449 739 444 q 731 458 732 453 q 732 462 731 461 q 732 465 733 463 q 715 500 726 485 q 694 529 704 515 q 665 543 675 532 q 646 564 656 554 q 650 593 649 583 q 665 610 651 603 q 746 619 707 614 q 822 618 785 624 q 860 616 839 615 q 900 617 881 617 q 935 612 919 617 q 956 593 950 607 q 956 572 953 582 q 933 551 950 558 q 903 533 915 544 q 859 505 871 526 q 838 467 847 483 q 838 460 836 463 q 839 454 839 457 q 831 440 833 449 q 827 424 829 432 q 822 407 825 415 q 811 394 818 399 q 799 361 810 375 q 778 332 789 347 q 774 310 778 319 q 767 292 771 300 q 758 274 763 283 q 754 253 754 265 q 744 244 747 249 q 738 232 742 239 q 738 220 740 222 q 735 210 736 218 q 736 203 732 204 q 740 197 740 203 q 739 174 735 182 q 751 161 743 167 q 769 144 761 154 q 792 129 776 135 q 798 129 794 128 q 804 129 801 131 q 814 124 810 128 q 822 118 818 121 q 846 115 833 115 q 869 115 858 115 q 894 129 883 124 q 915 146 904 135 q 926 164 922 153 q 938 185 931 175 q 947 193 942 190 q 954 200 951 196 q 956 204 957 203 q 958 208 956 206 q 981 215 971 217 q 997 206 990 214 q 1007 184 1004 197 q 1007 157 1010 171 q 1006 152 1008 153 q 1003 149 1003 151 q 1002 143 1000 144 q 1004 139 1004 142 q 992 121 997 129 q 986 99 988 113 q 972 79 975 92 q 961 57 969 67 q 949 47 957 51 q 935 35 940 43 q 900 1 922 17 q 846 -21 878 -15 q 834 -23 840 -22 q 824 -25 828 -24 q 792 -24 806 -26 q 765 -17 778 -21 q 740 -7 753 -12 q 711 1 726 -1 q 663 39 692 25 q 597 60 633 53 q 569 42 578 56 q 527 26 546 40 q 486 8 508 13 q 479 9 483 8 q 472 8 475 10 q 435 -6 453 4 q 392 -17 417 -15 q 365 -12 379 -10 q 336 -14 351 -15 q 315 -8 325 -11 q 296 -3 306 -4 q 258 -1 276 0 q 226 8 240 -3 q 213 8 217 11 q 200 6 208 4 q 188 17 193 10 q 178 30 183 24 q 164 41 172 36 q 142 46 156 46 m 553 910 q 519 928 538 917 q 483 933 501 939 q 456 926 468 931 q 433 907 443 921 q 433 903 432 906 q 432 899 433 901 q 413 872 421 882 q 410 833 404 861 q 404 828 408 829 q 409 799 410 818 q 404 769 408 781 q 411 756 408 761 q 411 736 414 751 q 450 722 426 719 q 497 728 474 725 q 507 734 503 731 q 518 739 511 738 q 523 752 522 746 q 525 767 524 758 q 532 775 526 771 q 542 786 538 779 q 542 791 543 789 q 543 796 542 793 q 552 806 546 801 q 560 814 558 811 q 561 823 563 817 q 563 832 560 829 q 567 837 564 836 q 568 843 571 838 q 563 854 564 850 q 558 865 563 858 q 564 878 564 872 q 560 888 564 883 q 554 898 557 893 q 553 910 551 903 m 271 478 q 243 458 250 471 q 233 429 236 446 q 229 426 231 426 q 228 421 228 425 q 231 407 228 415 q 224 390 224 404 q 231 372 224 375 q 228 361 228 369 q 231 350 228 353 q 224 338 226 343 q 221 321 222 332 q 224 317 221 318 q 226 313 226 315 q 231 298 224 303 q 236 282 239 293 q 244 270 242 275 q 249 258 246 265 q 247 256 249 256 q 247 253 246 256 q 268 220 254 235 q 279 194 282 206 q 286 185 286 192 q 290 172 286 178 q 308 156 296 164 q 331 140 321 147 q 340 133 336 138 q 347 126 344 128 q 358 124 351 124 q 368 122 364 125 q 387 111 375 118 q 414 108 399 104 q 428 115 422 114 q 451 113 438 111 q 477 120 464 115 q 501 131 490 125 q 514 140 511 138 q 520 156 519 146 q 519 178 521 167 q 501 205 510 193 q 482 232 493 217 q 471 253 479 244 q 460 272 463 261 q 442 287 444 276 q 436 304 439 297 q 428 314 433 310 q 419 324 422 318 q 413 335 417 329 q 408 346 410 342 q 409 349 407 349 q 410 351 411 349 q 399 366 407 358 q 394 381 392 374 q 391 384 389 379 q 392 392 393 389 q 372 424 386 404 q 346 460 357 443 q 338 471 343 464 q 324 484 332 478 q 308 492 317 490 q 289 490 299 494 q 278 485 282 489 q 271 478 275 481 z "},"'":{"ha":244,"x_min":56,"x_max":190,"o":"m 64 946 q 67 953 67 949 q 74 960 68 957 q 67 984 67 971 q 64 1013 67 997 q 60 1029 61 1021 q 60 1044 60 1038 q 58 1051 60 1047 q 56 1058 56 1054 q 57 1064 56 1061 q 60 1071 58 1067 q 60 1078 60 1074 q 61 1085 60 1082 q 72 1094 63 1089 q 89 1103 81 1100 q 102 1103 96 1104 q 115 1104 108 1103 q 127 1106 122 1104 q 139 1108 132 1108 q 158 1103 150 1107 q 174 1096 165 1099 q 178 1088 174 1090 q 182 1081 182 1085 q 180 1076 182 1078 q 178 1071 178 1074 q 183 1065 179 1068 q 188 1060 186 1063 q 188 1054 189 1057 q 188 1049 186 1051 q 189 1042 188 1046 q 188 1033 190 1038 q 185 1031 188 1032 q 182 1026 182 1029 q 180 1014 179 1021 q 182 1003 181 1007 q 185 995 183 999 q 186 988 188 992 q 183 983 186 985 q 181 979 181 982 q 181 960 178 969 q 181 944 183 951 q 175 939 181 944 q 172 923 172 932 q 172 907 172 914 q 174 903 172 904 q 175 899 175 901 q 171 893 171 894 q 169 884 168 889 q 167 875 169 879 q 166 871 165 872 q 167 868 167 869 q 167 856 168 861 q 166 851 168 853 q 165 849 164 850 q 167 846 165 846 q 169 844 168 844 q 167 841 168 842 q 164 839 165 840 q 164 833 161 836 q 167 826 167 829 q 163 822 163 822 l 163 819 q 163 815 165 817 q 161 810 160 813 q 163 804 163 808 q 158 802 161 803 q 157 800 156 801 q 160 788 157 793 q 156 779 163 783 q 143 778 149 778 q 131 776 138 778 q 119 778 124 778 q 108 778 115 778 q 104 779 108 779 q 97 782 100 779 q 97 787 96 785 q 96 792 99 789 q 93 795 94 794 q 92 799 92 796 q 90 810 89 806 q 88 822 90 815 q 86 833 86 826 q 88 843 88 838 q 86 853 89 849 q 79 860 79 860 q 80 863 79 863 q 81 867 81 864 q 81 873 82 869 q 79 879 79 876 q 83 885 81 882 q 85 890 85 888 q 83 892 83 892 q 82 894 83 893 q 78 906 79 900 q 76 918 78 911 q 73 920 75 919 q 71 924 71 921 q 69 934 68 929 q 64 944 71 939 l 64 946 z "},"(":{"ha":549,"x_min":56,"x_max":493,"o":"m 472 28 q 493 24 482 24 l 493 -4 q 490 -5 490 -4 q 486 -6 489 -6 q 447 -6 467 -8 q 428 -3 436 -4 q 411 3 419 -1 q 402 5 407 6 q 393 6 397 4 q 374 17 385 13 q 357 29 364 22 q 348 35 353 33 q 339 40 343 38 l 318 51 q 308 56 313 53 q 299 61 304 58 q 272 79 282 67 l 228 122 q 201 142 219 133 l 193 150 q 167 185 182 168 q 164 189 164 188 q 156 207 161 200 q 144 222 150 214 q 142 232 144 226 q 132 253 139 246 q 123 267 126 260 q 115 281 119 274 q 110 293 113 288 q 101 304 107 299 q 94 319 97 311 q 88 333 92 326 q 78 360 83 350 q 76 388 76 375 q 75 415 75 400 l 69 425 q 67 430 68 428 q 64 435 67 432 q 64 487 63 461 q 63 538 65 513 q 58 548 60 544 q 56 556 57 551 q 57 565 56 563 q 62 576 60 572 q 64 586 64 581 q 67 600 64 593 q 72 613 69 607 q 76 648 75 631 q 79 685 76 665 l 96 711 q 97 725 96 718 q 97 739 97 732 q 111 757 104 749 q 124 776 118 765 q 135 792 128 785 q 144 810 142 799 q 156 824 150 817 q 164 842 161 831 q 167 846 164 843 l 175 854 q 189 867 182 861 q 203 879 196 872 l 243 918 q 286 953 265 932 q 298 959 292 957 q 310 967 304 961 l 325 982 q 331 985 328 985 q 346 992 338 990 q 365 997 358 992 q 379 1003 372 1003 q 393 1007 386 1004 q 419 1013 407 1013 q 433 1015 426 1014 q 447 1015 440 1015 l 493 1015 l 493 1006 q 488 1004 490 1006 l 451 993 q 444 988 447 990 q 436 982 440 985 q 419 974 428 974 q 383 951 399 972 q 371 941 378 944 q 357 933 364 938 q 332 907 338 926 q 326 896 329 901 q 318 888 322 890 q 307 876 313 881 q 294 864 301 871 q 289 858 292 861 q 283 849 286 854 q 274 833 279 840 q 264 818 268 825 q 257 801 257 811 q 254 785 256 793 q 253 768 253 776 q 242 743 246 756 q 232 717 238 731 q 231 666 231 692 q 231 617 231 640 l 219 593 q 216 474 215 533 q 219 353 217 414 l 231 324 q 238 310 233 317 q 242 296 242 303 q 247 280 243 286 q 253 265 250 274 q 254 237 256 250 q 257 208 253 224 l 286 156 l 300 139 l 317 121 q 326 109 322 115 q 335 96 331 103 q 339 90 336 92 q 344 89 342 89 q 358 86 351 88 q 367 78 364 85 q 374 68 369 72 q 385 61 378 64 q 401 54 393 58 q 419 47 410 50 q 438 41 431 46 q 457 36 446 36 q 465 33 461 35 q 472 28 469 31 z "},")":{"ha":549,"x_min":56,"x_max":493,"o":"m 71 -4 l 56 -4 l 56 24 q 67 24 63 24 q 79 28 72 25 q 110 35 92 35 q 139 43 126 35 q 156 53 147 50 q 171 64 164 57 q 186 74 176 71 q 219 104 206 81 q 226 115 224 110 q 232 125 229 119 l 249 146 q 256 162 250 156 q 268 175 261 168 q 276 185 274 178 l 282 190 q 285 195 283 193 q 286 201 286 197 q 296 228 289 215 q 310 253 303 240 l 325 272 l 325 331 q 326 349 325 342 q 331 360 326 356 q 339 378 338 369 q 340 396 340 386 l 340 472 q 341 535 340 504 q 339 599 342 567 q 337 615 336 607 q 338 629 338 622 q 331 660 340 644 q 327 669 328 664 q 325 678 326 674 l 325 697 q 321 706 322 701 q 317 717 319 710 l 314 775 q 304 792 307 782 q 299 811 301 801 l 283 833 q 277 848 278 840 q 274 863 276 856 q 268 870 271 867 q 261 878 265 874 q 253 886 258 882 q 243 896 249 890 q 222 929 231 908 l 185 964 q 155 981 169 974 q 125 994 140 988 q 94 998 110 996 q 64 1007 79 1000 q 56 1006 58 1007 l 56 1015 l 108 1015 q 120 1015 115 1015 q 132 1014 125 1014 q 136 1013 135 1014 l 156 1004 q 167 1002 161 1003 q 178 999 174 1001 l 183 996 q 193 993 189 993 q 218 985 207 990 q 226 981 222 982 q 233 976 229 979 q 251 963 243 969 q 271 951 260 957 l 279 946 q 294 931 289 935 q 314 919 299 928 q 328 913 321 917 q 342 903 336 908 q 347 896 344 899 q 353 889 350 893 q 360 875 357 882 q 371 861 364 868 q 379 851 376 857 q 385 839 382 844 q 385 836 385 838 q 386 832 386 835 q 400 812 393 821 q 417 794 407 803 q 439 763 435 782 q 444 751 442 757 q 449 738 447 744 q 454 722 449 731 l 468 707 q 469 699 468 701 q 469 693 469 696 q 475 674 469 681 q 479 662 478 667 q 482 651 481 657 l 482 624 l 482 590 l 486 581 q 493 554 493 568 l 493 549 l 493 449 q 483 411 493 426 q 482 404 483 408 l 478 338 q 474 326 476 331 q 468 314 471 321 q 464 303 467 307 q 458 294 461 299 q 453 281 456 288 q 447 268 450 275 q 438 250 442 261 q 426 235 432 239 q 414 215 419 226 q 404 193 408 204 q 390 174 400 183 q 385 167 388 171 q 382 161 383 164 q 373 148 379 154 q 360 135 367 142 q 349 124 354 129 q 335 115 343 119 q 321 107 326 113 q 308 96 315 101 l 282 67 q 272 58 278 63 q 260 50 267 53 q 247 49 253 50 q 233 47 240 49 q 215 33 222 40 q 196 19 207 24 q 174 7 185 14 l 163 4 q 147 3 151 4 l 132 -3 q 119 -4 126 -4 l 71 -4 z "},"*":{"ha":371,"x_min":56,"x_max":318,"o":"m 301 792 q 313 764 318 775 q 292 765 301 765 q 279 761 283 765 q 270 764 275 763 q 261 767 265 765 q 231 792 243 781 q 207 810 218 803 q 203 811 204 811 q 199 813 201 811 q 199 799 200 807 q 201 784 201 792 q 201 767 200 776 q 204 756 203 761 q 206 744 206 751 q 205 740 206 742 q 204 735 204 738 q 203 730 203 732 q 204 725 204 728 q 197 708 203 711 q 185 707 192 704 q 174 716 179 710 q 165 729 168 722 q 164 771 163 750 q 168 804 165 792 l 168 814 q 161 806 167 811 l 149 793 q 144 787 146 790 q 140 781 143 783 q 129 769 136 776 q 115 757 122 761 q 108 753 113 754 q 101 750 104 753 q 83 742 89 743 q 71 747 78 742 q 68 767 67 758 q 74 781 69 775 q 83 790 78 786 q 89 796 88 793 q 122 818 107 810 q 146 835 136 826 q 149 839 149 838 q 151 842 149 840 q 153 844 153 843 q 154 846 153 844 q 127 860 142 853 q 99 871 113 867 q 85 879 92 876 q 69 888 79 882 q 60 903 65 896 q 56 918 56 911 q 65 930 63 925 q 79 932 68 935 q 110 913 96 922 q 136 897 125 904 q 141 893 139 894 q 143 889 143 892 q 158 878 150 885 q 171 867 167 871 q 174 865 172 865 q 172 871 172 868 q 171 878 171 874 q 169 893 169 882 q 166 922 168 906 q 164 961 164 939 q 173 977 169 972 q 186 985 176 982 q 195 969 190 975 q 203 953 200 964 q 206 927 206 942 q 204 903 206 913 q 201 890 203 896 q 197 876 199 883 q 218 899 207 888 q 236 921 229 910 q 248 931 243 926 q 261 943 253 936 q 273 949 269 944 q 283 951 276 953 q 297 937 289 943 q 300 921 306 931 q 274 897 286 908 q 250 876 261 886 q 245 874 247 875 q 240 872 243 872 q 225 861 233 867 q 210 853 217 856 q 207 849 208 850 q 204 846 206 849 q 217 840 210 843 q 231 833 224 836 q 238 829 235 831 q 246 825 242 828 q 253 824 249 824 q 260 821 257 824 q 290 803 275 815 q 296 797 293 800 q 301 792 299 794 z "},"+":{"ha":701,"x_min":56,"x_max":646,"o":"m 633 565 q 642 549 640 556 q 646 526 644 543 q 636 506 640 515 q 632 483 632 496 q 626 474 629 478 q 619 468 622 471 q 586 472 603 467 q 554 472 569 478 q 549 467 551 471 q 543 463 546 464 q 522 461 533 460 q 503 465 511 463 q 498 469 500 467 q 493 472 496 471 q 465 474 478 476 q 436 465 451 472 q 417 471 428 471 q 394 472 406 471 q 392 471 393 472 q 388 465 392 467 q 394 404 390 433 q 390 346 399 375 q 394 295 397 321 q 403 247 392 269 q 399 235 399 240 q 397 222 400 229 q 378 212 386 217 q 357 204 369 207 q 326 206 338 206 q 306 213 314 206 q 297 237 300 224 q 292 264 294 250 q 294 269 294 267 q 297 275 294 272 q 297 299 294 285 q 303 322 299 313 q 300 349 300 333 q 303 375 300 364 q 296 416 304 394 q 294 457 288 438 q 298 462 296 460 q 303 467 300 464 l 303 468 q 297 471 300 469 q 290 472 293 472 q 276 469 283 472 q 263 468 269 465 q 257 473 260 469 q 251 478 254 476 q 238 480 246 481 q 224 478 231 479 q 218 474 221 476 q 213 472 215 472 q 203 473 207 471 q 196 475 200 475 q 188 473 192 475 q 182 472 185 471 q 177 474 179 472 q 172 475 175 475 q 159 472 165 475 q 146 468 153 468 q 135 469 140 468 q 124 472 129 471 q 95 474 108 475 q 67 481 82 474 q 58 501 61 492 q 56 529 56 510 q 62 549 60 538 q 71 568 64 560 q 90 581 78 578 q 113 586 101 585 q 131 578 122 586 q 153 574 140 571 q 157 577 156 575 q 161 581 158 579 q 172 580 167 582 q 181 578 176 578 q 192 580 188 576 q 203 583 197 583 q 210 578 207 582 q 217 574 214 575 q 240 571 231 571 q 269 574 256 571 q 300 575 283 576 q 297 585 299 581 q 294 596 294 590 q 297 608 294 603 q 297 619 299 613 q 294 628 294 625 q 297 638 294 633 q 300 647 299 642 q 299 654 300 651 q 297 661 297 657 q 297 667 296 664 q 297 672 299 669 q 297 693 293 681 q 297 717 300 706 q 303 753 293 732 q 301 774 300 764 q 303 794 303 783 q 301 804 303 800 q 300 814 299 808 q 302 818 300 817 q 306 822 304 819 q 306 826 307 825 q 306 829 304 828 q 323 840 311 838 q 347 842 335 843 q 372 835 360 840 q 390 826 383 831 q 402 785 401 808 q 400 743 403 763 q 401 726 403 735 q 399 708 400 717 q 399 690 397 699 q 410 676 401 682 q 406 669 413 672 q 400 663 400 665 q 401 649 397 656 q 403 636 404 643 q 400 629 401 632 q 397 619 399 626 q 393 614 396 617 q 390 608 390 611 q 392 603 390 606 q 393 597 394 600 q 390 585 393 590 q 393 574 388 581 l 393 571 l 394 571 q 406 574 401 574 q 417 581 411 574 q 436 575 426 574 q 457 578 446 576 q 473 576 465 578 q 490 578 481 575 q 526 577 507 581 q 565 578 546 574 q 574 577 569 578 q 585 578 578 576 q 591 580 588 578 q 597 583 594 582 q 610 583 603 585 q 624 578 618 581 q 633 565 628 574 z "},",":{"ha":274,"x_min":56,"x_max":218,"o":"m 60 -156 q 71 -126 57 -137 q 93 -97 85 -114 q 104 -74 99 -87 q 113 -44 110 -60 q 118 -15 117 -29 q 115 8 119 -1 q 94 29 108 24 q 69 50 81 35 q 56 100 65 81 q 65 126 58 115 q 75 151 72 136 q 121 166 96 164 q 166 160 146 168 q 197 133 186 151 q 203 86 208 115 q 210 77 204 79 q 217 67 215 75 q 217 34 218 47 q 215 10 217 21 q 211 -13 214 -1 q 206 -42 208 -25 q 178 -69 186 -49 q 154 -107 171 -89 q 139 -123 150 -112 q 115 -144 128 -133 q 92 -162 103 -154 q 75 -168 81 -169 q 67 -162 71 -167 q 60 -156 63 -158 z "},"-":{"ha":433,"x_min":56,"x_max":378,"o":"m 140 575 q 162 576 151 579 q 178 567 172 574 q 189 569 183 571 q 200 571 194 568 q 207 574 204 572 q 214 576 210 576 q 231 574 224 578 q 246 571 238 571 q 255 572 251 569 q 264 574 258 574 q 294 569 279 575 q 324 574 308 564 q 350 558 336 565 q 375 539 364 550 q 377 515 376 528 q 376 489 378 501 q 370 467 375 476 q 357 454 365 458 q 335 451 346 457 q 314 444 325 446 q 304 445 308 443 q 294 447 300 447 q 277 446 286 447 q 260 444 268 444 q 217 440 239 442 q 178 440 196 438 q 165 444 171 442 q 154 447 160 447 q 137 444 144 447 q 122 440 129 440 q 114 444 118 442 q 104 447 110 446 q 92 447 99 449 q 81 447 85 446 q 63 467 69 451 q 56 500 57 482 q 60 534 56 518 q 76 554 65 550 q 110 563 94 557 q 140 575 125 569 z "},".":{"ha":276,"x_min":53,"x_max":221,"o":"m 147 165 q 175 161 164 167 q 194 145 186 156 q 208 123 203 135 q 221 101 214 111 q 215 56 221 76 q 196 21 210 35 q 154 -1 181 7 q 103 8 128 -8 q 94 17 99 11 q 85 28 90 24 q 69 41 78 35 q 58 58 61 47 q 62 108 53 82 q 86 144 71 133 q 115 157 100 154 q 147 165 131 160 z "},"/":{"ha":529,"x_min":56,"x_max":474,"o":"m 414 818 q 406 803 414 810 q 396 789 399 796 q 390 764 390 776 q 385 738 390 751 q 378 724 382 731 q 369 706 375 717 q 363 694 367 700 q 357 683 360 689 q 356 674 356 679 q 356 663 357 668 q 345 639 351 651 q 342 615 339 626 q 330 578 333 596 q 324 542 326 560 q 318 506 322 525 q 303 469 314 488 q 303 463 300 464 q 303 458 306 463 q 292 428 296 446 q 279 401 289 411 q 254 282 265 339 q 219 167 243 225 q 210 117 217 142 q 197 67 203 92 q 185 19 190 43 q 181 -26 181 -4 q 169 -52 172 -42 q 160 -76 167 -62 q 134 -96 144 -87 q 108 -110 124 -104 q 75 -107 88 -107 q 56 -96 63 -107 q 60 -46 57 -72 q 67 7 64 -19 q 73 17 71 11 q 79 28 75 24 q 91 75 82 47 q 111 122 100 103 q 122 174 114 143 q 139 226 129 204 q 152 305 150 263 q 172 386 154 347 q 179 396 175 392 q 188 406 183 400 q 192 427 193 417 q 192 449 190 438 q 201 479 194 464 q 211 510 208 494 q 211 520 213 515 q 211 531 210 525 q 224 568 214 546 q 239 610 233 590 q 242 634 242 622 q 244 658 242 646 q 253 683 247 671 q 261 706 258 694 q 263 722 261 717 q 270 742 265 733 q 279 760 275 750 q 281 774 282 767 q 283 788 281 781 q 287 799 285 794 q 289 810 289 803 q 299 850 290 826 q 313 896 308 874 q 322 932 315 915 q 338 968 328 949 q 347 1008 340 988 q 360 1049 353 1028 q 363 1069 363 1060 q 367 1089 363 1078 q 372 1096 368 1092 q 378 1104 375 1100 q 379 1112 379 1108 q 381 1118 379 1115 q 406 1140 392 1135 q 433 1141 419 1144 q 457 1129 446 1138 q 472 1113 468 1121 q 463 1031 474 1078 q 438 949 451 985 q 430 915 436 933 q 418 880 424 897 q 410 847 413 863 q 414 818 407 831 z "},":":{"ha":274,"x_min":54,"x_max":218,"o":"m 196 11 q 154 0 176 0 q 106 0 132 0 q 85 22 96 8 q 66 52 74 36 q 56 86 58 68 q 63 121 54 104 q 72 132 67 128 q 84 140 78 136 q 97 149 90 144 q 106 163 103 154 q 131 165 115 167 q 161 159 146 164 q 188 147 176 154 q 204 135 200 140 q 215 105 211 125 q 218 71 218 85 q 210 38 218 51 q 196 11 203 24 m 125 628 q 176 618 161 631 q 200 571 192 606 q 206 553 203 560 q 210 539 210 546 q 197 507 208 526 q 171 483 185 488 q 158 482 167 483 q 140 480 150 481 q 122 479 131 479 q 111 479 114 479 q 92 488 100 481 q 76 508 83 496 q 64 532 71 519 q 56 553 57 544 q 58 565 56 556 q 65 583 61 574 q 72 601 68 592 q 79 613 76 610 q 97 624 88 622 q 125 628 107 626 z "},";":{"ha":296,"x_min":51,"x_max":242,"o":"m 75 -179 q 72 -153 68 -165 q 85 -131 76 -142 q 103 -110 93 -119 q 118 -89 113 -100 q 124 -39 131 -60 q 105 -1 118 -18 q 77 29 92 15 q 58 58 63 43 q 62 100 51 86 q 89 126 72 114 q 117 147 103 138 q 164 151 132 157 q 191 126 176 139 q 217 97 206 113 q 235 62 229 82 q 238 17 242 42 q 219 -31 232 -8 q 199 -76 206 -53 q 174 -110 185 -92 q 149 -144 163 -128 q 119 -170 136 -160 q 75 -179 101 -181 m 147 592 q 175 588 164 594 q 194 572 186 582 q 208 550 203 563 q 221 528 214 538 q 215 483 221 504 q 196 449 210 461 q 154 426 181 433 q 103 435 128 418 q 94 444 99 438 q 86 454 90 450 q 70 467 79 461 q 58 485 61 474 q 62 534 53 508 q 88 571 71 560 q 116 583 100 581 q 147 592 132 586 z "},"<":{"ha":497,"x_min":58,"x_max":446,"o":"m 442 106 q 442 91 442 99 q 443 76 443 83 q 442 46 446 60 q 435 32 440 40 l 426 19 q 424 13 425 17 q 421 3 424 8 q 415 -11 418 -6 q 401 -22 411 -18 q 386 -22 393 -25 q 379 -14 382 -18 q 371 -4 376 -10 q 363 3 365 1 q 359 6 360 4 q 356 8 358 7 q 350 19 354 14 q 344 31 347 28 q 329 53 338 43 q 320 67 325 60 q 311 81 315 74 q 297 103 304 93 q 283 124 290 114 q 271 143 276 133 q 261 164 265 153 q 253 167 257 163 q 243 174 249 171 q 242 172 243 172 q 233 193 239 186 q 222 211 226 200 q 222 214 222 213 q 221 217 221 215 q 218 224 221 221 q 208 243 213 238 l 196 264 q 195 266 196 265 q 194 268 194 267 q 193 272 194 271 q 186 278 192 275 q 183 280 183 279 q 179 282 182 281 q 174 290 179 282 q 168 300 171 299 q 164 303 165 303 q 160 306 163 303 q 157 314 157 308 q 154 325 157 322 q 146 340 151 336 q 133 353 142 346 q 129 360 131 358 q 124 368 126 365 q 113 388 119 378 q 107 397 110 392 q 101 408 104 401 q 99 414 99 411 q 96 421 99 418 q 90 429 93 428 q 88 432 89 431 q 86 435 88 433 q 74 444 86 436 l 60 458 l 58 458 l 58 460 l 60 461 q 61 468 61 463 l 64 471 q 67 474 67 471 q 72 482 69 476 q 78 489 75 486 q 83 501 81 496 q 88 510 85 507 q 96 521 92 511 q 101 529 100 529 q 104 531 104 529 q 105 533 104 532 q 106 535 106 533 q 111 539 111 538 q 114 547 114 540 q 117 556 114 553 l 121 556 q 125 564 125 557 q 129 572 126 569 q 136 576 133 576 q 142 581 139 578 q 150 597 146 586 q 158 613 154 608 q 161 613 161 615 q 164 614 164 610 q 172 625 168 615 q 179 639 176 636 q 186 640 183 642 q 193 649 190 640 q 196 667 193 656 q 222 700 207 692 q 250 729 236 708 q 258 744 254 736 q 269 761 263 753 q 292 786 281 778 q 300 806 296 796 q 311 828 304 817 q 324 847 318 839 q 335 860 329 854 l 339 872 q 343 885 343 878 q 360 900 351 892 q 376 917 368 908 q 411 944 393 933 q 428 915 424 938 q 434 891 431 904 q 442 860 438 878 q 442 808 446 832 q 438 785 439 797 q 435 758 438 772 q 419 738 425 742 q 413 728 417 735 q 406 715 410 722 q 378 700 392 711 q 365 688 371 694 q 351 675 358 682 l 326 650 q 301 631 313 636 q 260 576 281 593 q 238 561 249 569 q 217 544 228 553 q 211 529 217 535 q 203 517 207 525 q 202 515 203 515 q 201 517 201 515 q 199 517 201 519 q 190 500 194 504 q 181 493 185 494 q 176 491 178 492 q 171 489 174 490 q 163 478 167 488 q 157 475 158 479 q 151 467 154 468 l 150 465 l 178 442 q 179 438 179 440 q 180 435 179 436 q 181 432 181 433 q 186 428 183 431 q 190 425 188 428 q 196 417 193 424 q 201 408 199 414 q 206 401 206 406 q 208 399 207 400 q 210 396 208 397 q 221 386 215 394 q 231 378 224 381 q 235 376 232 376 q 239 375 238 376 q 242 368 242 372 q 244 361 242 364 q 253 350 249 356 q 261 339 257 344 q 281 321 271 326 q 283 319 283 319 q 288 319 285 321 q 306 297 297 314 q 322 274 315 281 q 329 271 328 271 q 335 269 332 272 q 342 256 340 261 q 345 249 344 253 q 349 242 346 244 q 354 233 351 238 q 360 224 357 229 q 367 215 364 218 q 372 210 369 213 q 378 207 378 207 q 383 206 381 208 q 392 197 388 203 q 395 191 394 194 q 399 185 396 188 q 402 181 401 182 q 404 178 403 179 q 408 175 407 176 q 410 172 408 174 q 414 158 414 165 q 418 144 415 153 l 424 139 q 429 136 426 139 q 435 121 435 128 q 442 106 436 113 z "},"=":{"ha":635,"x_min":65,"x_max":590,"o":"m 454 554 q 437 552 446 553 q 418 553 428 551 q 393 560 403 554 q 375 557 382 557 q 356 557 367 560 q 350 556 353 556 q 344 554 347 556 q 333 553 342 553 q 320 553 326 553 q 307 554 314 553 q 282 557 293 557 q 268 556 276 558 q 251 556 261 553 q 204 560 226 556 q 157 556 182 564 q 135 562 146 558 q 113 568 125 565 q 72 581 88 575 q 69 619 65 600 q 100 644 74 638 q 136 646 122 642 q 153 650 144 649 q 172 653 163 651 q 188 651 182 653 q 204 650 193 650 q 218 650 211 650 q 232 651 225 650 q 260 651 247 654 q 294 653 276 653 q 329 654 311 653 q 364 655 349 656 q 393 653 379 654 q 414 650 403 653 q 431 649 421 649 q 445 649 439 649 q 458 650 451 649 q 471 652 465 651 q 482 653 476 653 q 497 651 492 653 q 505 650 501 650 q 513 649 508 650 q 533 649 521 646 q 551 649 546 650 q 579 633 571 646 q 590 608 590 622 q 583 583 590 593 q 558 569 575 572 q 530 567 543 568 q 504 563 517 565 q 454 554 479 556 m 204 451 q 239 451 221 454 q 263 446 258 449 q 281 447 274 449 q 299 449 293 447 q 305 450 303 450 q 310 451 307 450 q 321 453 313 453 q 335 453 329 454 q 347 451 342 453 q 371 449 361 449 q 386 449 379 446 q 400 450 390 450 q 449 447 422 451 q 494 450 469 443 q 516 444 506 447 q 538 439 526 442 q 576 426 560 435 q 579 390 583 411 q 547 367 575 374 q 514 365 529 369 q 497 362 506 363 q 479 360 489 361 q 464 361 469 360 q 449 363 460 363 q 435 363 442 363 q 421 361 428 363 q 407 360 414 360 q 393 360 400 360 q 360 358 376 358 q 325 357 343 358 q 263 357 292 354 q 253 358 258 358 q 243 360 249 358 q 226 363 232 363 q 213 362 219 363 q 199 360 206 361 q 187 358 192 358 q 175 357 182 357 q 169 358 172 358 q 161 360 165 358 q 154 361 158 361 q 146 363 150 361 q 139 363 143 363 q 128 361 135 363 q 108 363 114 361 q 82 375 90 365 q 72 399 72 388 q 79 422 72 414 q 103 438 89 433 q 131 440 118 439 q 156 444 143 442 q 180 449 168 447 q 204 451 192 450 z "},">":{"ha":497,"x_min":57,"x_max":444,"o":"m 443 460 q 442 453 442 458 l 439 450 q 436 449 436 453 q 431 439 432 444 q 425 432 428 435 q 415 413 421 415 q 407 400 411 408 q 401 392 406 396 q 399 389 399 392 q 398 388 399 388 q 397 386 397 388 q 392 382 392 383 q 389 374 389 381 q 386 367 389 369 q 382 365 385 365 q 378 357 378 363 q 374 349 375 350 q 370 347 371 347 q 367 344 369 346 q 361 340 363 344 q 353 322 358 336 q 344 308 349 313 q 342 308 342 306 q 339 308 339 311 q 332 296 333 306 q 324 283 328 285 q 317 281 318 281 q 311 274 314 281 q 310 268 310 271 q 308 263 310 265 q 308 258 308 260 q 307 254 307 256 q 281 219 297 229 q 253 193 264 210 q 244 176 249 185 q 233 158 240 168 q 211 135 224 142 q 203 115 207 125 q 192 93 199 104 q 168 63 181 75 q 164 49 167 57 q 160 36 160 42 q 144 21 151 29 q 126 4 136 13 q 109 -10 118 -3 q 92 -24 100 -17 q 75 4 82 -18 q 69 30 72 15 q 61 63 65 44 q 59 89 58 76 q 61 113 60 101 q 65 136 64 124 q 68 163 65 149 q 83 183 78 179 q 97 207 88 188 q 125 222 111 211 q 138 233 132 228 q 151 246 144 239 q 164 259 158 253 q 176 272 169 265 q 201 292 190 286 q 243 343 224 329 q 286 378 267 360 q 292 393 286 388 q 296 399 294 396 q 300 406 297 401 q 301 407 300 407 q 301 406 301 407 q 304 406 303 404 q 313 421 308 417 q 322 426 315 424 q 327 429 325 428 q 332 432 329 431 q 340 443 336 433 q 346 446 344 442 q 351 454 349 453 q 353 456 351 456 l 325 479 q 324 483 324 481 q 323 486 324 485 q 322 489 322 488 q 319 490 319 490 q 318 492 318 490 l 314 496 q 310 499 311 497 q 307 503 310 500 q 304 508 306 506 q 301 513 303 510 q 293 525 294 522 q 283 535 289 526 q 274 544 278 542 q 268 544 269 546 q 265 547 265 544 q 261 554 264 547 q 258 561 261 558 q 251 572 254 567 q 242 582 247 576 q 224 600 232 593 q 219 600 219 601 q 215 601 217 600 q 197 624 207 607 q 190 637 194 631 q 181 647 185 643 q 175 650 175 650 q 169 653 172 650 q 161 665 163 657 q 158 674 158 669 q 154 681 157 678 q 149 688 151 683 q 143 697 146 692 q 136 706 139 703 q 131 711 133 708 q 125 713 126 714 q 119 715 122 713 q 111 724 115 717 q 104 736 110 728 q 101 740 101 739 q 99 743 100 742 q 95 746 96 744 q 93 749 94 747 q 90 755 90 751 q 89 763 90 758 q 85 776 89 769 q 79 781 81 781 q 74 785 76 782 q 68 800 68 793 q 61 817 67 808 q 60 831 61 824 q 60 844 60 838 q 61 875 57 861 q 68 889 63 881 q 72 895 71 892 q 76 901 74 899 q 78 908 78 904 q 82 917 79 913 q 88 932 83 926 q 101 942 93 939 q 117 943 110 946 q 124 935 121 939 q 132 925 126 931 q 140 918 138 919 q 147 913 143 917 q 153 901 150 910 q 158 890 156 893 q 165 880 161 885 q 174 868 169 875 q 183 854 179 861 q 192 840 188 847 q 219 797 206 815 q 232 778 226 788 q 242 757 238 768 q 250 754 246 760 q 255 750 253 751 q 260 747 257 749 q 261 749 260 749 q 269 726 264 732 q 281 710 276 719 q 281 707 281 708 q 282 703 282 706 q 283 700 283 701 q 285 697 283 699 q 290 687 288 692 q 296 676 293 682 q 301 667 299 672 q 307 657 304 663 q 308 655 307 656 q 308 653 308 654 q 310 649 308 650 q 317 643 311 646 q 320 641 319 642 q 324 639 321 640 q 329 631 328 635 q 333 626 332 628 q 336 621 333 624 q 339 618 336 618 q 343 615 340 618 q 346 607 346 613 q 349 596 346 600 q 357 579 350 585 q 363 574 360 576 q 369 568 365 571 q 374 561 372 563 q 379 553 374 561 q 390 533 383 543 q 396 524 393 529 q 401 514 399 519 q 404 507 404 511 q 406 503 406 504 q 407 500 406 501 q 413 492 410 493 q 415 489 414 490 q 417 486 415 488 q 429 475 417 485 q 438 468 435 471 q 443 464 440 465 l 444 464 l 444 463 l 443 460 z "},"?":{"ha":663,"x_min":56,"x_max":608,"o":"m 600 828 q 603 823 600 824 q 606 818 606 822 q 606 785 606 799 q 600 760 606 772 q 604 725 608 740 q 586 700 600 710 q 565 651 585 672 q 532 606 546 629 q 522 602 525 604 q 511 599 518 600 q 503 592 504 596 q 497 582 501 588 q 492 579 494 581 q 486 576 490 578 q 467 558 476 569 q 444 539 457 546 q 430 532 439 533 q 414 525 421 531 q 406 517 408 522 q 400 510 404 513 q 382 499 392 503 q 363 488 372 494 q 356 480 360 485 q 347 471 353 475 q 338 467 344 468 q 326 461 332 465 q 313 449 318 456 q 301 433 308 442 q 287 420 294 425 q 272 407 279 415 q 267 395 269 403 q 261 382 264 388 q 253 356 258 376 q 246 319 249 336 q 251 296 250 306 q 253 278 253 286 q 256 260 254 269 q 265 239 258 251 q 263 224 263 231 q 261 211 264 218 q 241 199 250 204 q 219 192 232 194 q 185 193 199 193 q 164 200 172 193 q 151 228 157 214 q 142 258 146 243 q 145 265 144 261 q 149 271 146 268 q 147 283 144 282 q 151 294 149 283 q 145 324 147 307 q 146 354 143 342 q 150 361 146 357 q 150 365 147 363 q 157 381 154 372 q 165 396 160 390 q 175 405 172 403 q 181 414 178 407 q 188 425 183 421 q 197 435 193 429 q 202 450 200 442 q 210 465 204 458 q 230 489 218 476 q 253 517 242 501 q 306 574 276 549 q 363 635 336 600 q 390 658 381 644 q 403 688 399 672 q 413 717 408 703 q 429 744 418 732 q 430 756 428 751 q 435 765 432 760 q 431 808 431 785 q 422 847 432 832 q 424 853 425 849 q 424 860 422 857 q 415 878 417 868 q 404 892 413 885 q 389 908 396 899 q 383 920 385 914 q 378 929 381 926 q 349 944 368 938 q 315 958 331 951 q 305 962 311 960 q 296 964 299 964 q 266 961 281 967 q 232 958 251 956 q 189 933 210 947 q 158 900 168 919 q 163 876 160 885 q 171 859 167 867 q 179 844 175 851 q 185 826 183 838 q 213 793 199 810 q 239 761 226 776 q 231 717 240 732 q 210 682 222 701 q 185 675 196 679 q 160 672 174 671 q 135 683 147 675 q 111 692 124 692 q 86 722 96 708 q 69 753 76 736 q 67 758 67 756 q 63 764 67 761 q 61 801 63 779 q 56 838 60 822 q 60 853 61 846 q 65 865 60 860 q 64 869 65 868 q 63 872 63 869 q 77 908 69 890 q 107 939 85 925 q 119 952 110 949 q 136 961 129 956 q 145 970 142 964 q 154 981 149 976 q 164 985 158 983 q 175 990 169 986 q 193 1002 183 996 q 214 1015 203 1008 q 291 1020 256 1021 q 367 1022 326 1019 q 447 990 415 1015 q 465 988 458 992 q 479 981 471 983 l 492 981 q 538 944 515 961 q 564 900 560 926 q 588 869 579 885 q 600 828 596 853 m 222 163 q 251 159 239 165 q 271 143 263 153 q 286 121 279 133 q 301 99 293 108 q 300 53 304 75 q 283 19 296 32 q 243 -3 268 4 q 190 7 218 -11 q 182 15 186 10 q 171 25 178 21 q 155 39 164 32 q 143 56 146 46 q 142 105 136 79 q 164 142 149 131 q 192 154 176 151 q 222 163 207 157 z "},"@":{"ha":938,"x_min":56,"x_max":882,"o":"m 693 199 q 702 210 694 204 q 719 222 710 215 q 738 234 729 228 q 751 244 747 240 l 767 263 l 767 308 q 771 324 767 318 q 774 333 771 328 q 783 347 781 340 q 785 363 785 354 l 785 424 q 785 476 785 449 q 783 528 786 503 q 783 540 782 535 q 783 553 783 546 q 774 576 786 567 q 770 585 771 581 q 767 593 769 589 l 767 607 l 760 624 q 756 645 757 633 q 754 672 756 657 q 747 685 750 676 q 740 701 743 693 q 730 709 733 704 q 721 717 726 714 q 715 730 717 724 q 711 742 714 736 q 699 754 707 751 q 690 763 696 760 q 681 769 685 765 q 656 797 667 778 q 615 825 636 810 q 583 839 599 833 q 550 851 567 844 q 516 853 532 851 q 483 860 500 854 q 469 858 481 861 l 429 850 l 413 839 q 406 835 410 838 q 396 833 401 833 q 354 814 372 832 q 342 806 350 810 q 328 800 335 803 q 299 778 308 796 q 292 771 296 775 q 285 764 289 767 q 272 753 278 757 q 260 743 267 750 q 253 738 257 740 q 247 732 250 736 q 235 719 242 725 q 225 706 229 713 q 218 692 218 700 q 216 679 217 685 q 215 665 215 674 q 201 645 208 656 q 190 624 194 635 q 189 583 189 604 q 189 542 189 561 q 184 533 186 536 q 179 524 182 529 q 174 424 172 474 q 179 326 175 375 l 189 301 q 197 292 192 297 q 201 282 201 288 q 208 268 204 274 q 215 257 211 263 q 216 232 217 243 q 218 210 215 221 q 250 165 232 188 q 264 153 260 156 l 283 139 q 303 117 293 131 q 314 113 304 113 q 328 110 321 111 q 338 104 335 108 q 357 89 344 93 q 376 83 367 86 q 396 79 385 79 q 415 72 407 78 q 435 67 424 67 q 446 65 442 67 q 453 63 450 64 q 477 59 465 60 q 500 63 489 58 q 535 67 517 67 q 551 68 543 67 q 565 75 558 69 q 584 83 575 79 q 600 92 593 86 q 607 97 603 94 q 618 100 611 99 q 638 108 625 100 q 658 111 650 115 q 670 96 669 104 q 665 81 671 88 q 651 70 660 74 q 638 69 643 67 q 621 60 626 64 q 601 47 611 51 q 581 38 592 43 l 571 35 q 556 33 561 35 l 540 29 q 529 28 536 28 l 483 28 q 463 26 469 28 q 425 26 443 24 q 408 29 415 28 q 392 33 400 31 q 383 35 388 36 q 374 36 379 35 q 357 45 367 42 q 340 56 347 49 q 324 65 335 63 q 313 69 317 67 q 303 74 308 71 q 294 77 299 75 q 286 82 290 79 q 260 97 272 88 l 219 135 q 208 144 214 140 q 193 151 201 147 q 186 157 188 154 q 161 188 176 172 l 158 190 q 151 206 156 200 q 139 219 146 213 q 136 226 139 224 q 128 244 133 239 q 119 256 122 250 q 111 268 115 263 q 106 279 108 274 q 100 289 104 285 q 93 301 96 296 q 86 313 90 307 l 75 336 q 74 359 74 347 q 74 382 74 371 l 69 390 q 64 399 65 397 q 64 443 63 422 q 63 486 65 464 q 58 494 60 492 q 56 501 57 497 q 57 510 56 507 q 62 519 60 515 q 64 528 64 522 q 72 549 64 538 q 74 580 74 564 q 76 611 74 596 l 94 632 q 95 644 94 639 q 96 656 96 650 q 108 672 103 664 q 119 689 114 681 q 130 701 124 696 q 139 715 136 707 q 151 728 146 722 q 158 743 156 735 q 161 747 158 744 l 168 754 l 194 775 q 232 808 215 792 q 274 838 254 821 q 285 844 279 842 q 296 850 292 846 l 310 861 q 315 864 313 864 q 331 871 322 869 q 349 875 340 871 q 362 880 356 879 q 374 883 368 881 q 400 888 386 888 q 413 890 407 889 q 425 890 418 890 l 519 890 q 530 890 525 890 q 540 889 535 889 q 544 888 543 889 q 564 881 557 885 q 575 879 569 879 q 585 876 581 879 l 590 874 q 595 873 593 874 q 600 872 597 872 q 624 864 611 869 l 638 857 q 654 847 646 851 q 672 838 663 842 l 681 832 q 695 820 690 824 q 713 810 700 817 q 740 794 726 804 q 746 789 743 792 q 750 783 749 786 q 757 771 754 776 q 767 761 760 765 q 775 751 772 757 q 781 740 778 746 q 781 739 781 739 q 782 736 782 739 q 811 703 792 717 q 831 678 826 693 q 836 667 833 672 q 840 654 839 661 q 846 642 840 650 q 853 635 849 639 q 860 629 857 632 q 860 622 860 625 q 861 617 861 619 q 865 601 861 607 q 872 582 869 593 l 872 558 l 872 532 l 876 522 q 882 500 882 513 l 882 494 l 882 410 q 874 379 882 392 q 872 374 874 376 l 868 317 q 865 307 867 311 q 860 297 863 303 q 856 288 858 292 q 850 281 853 285 l 839 258 q 829 242 832 250 q 825 235 826 239 q 821 229 824 232 q 810 212 814 222 q 799 194 806 201 q 769 179 788 183 q 734 176 751 175 q 704 182 717 176 q 693 199 692 188 m 738 319 q 770 333 761 319 q 793 358 779 347 q 816 358 804 357 q 835 356 828 358 q 844 317 849 335 q 827 282 839 299 q 803 248 815 265 q 788 210 790 231 q 767 194 776 201 q 747 176 757 186 q 699 176 719 171 q 660 193 678 182 q 626 219 642 204 q 594 247 610 233 q 577 243 585 247 q 562 233 569 239 q 547 220 554 226 q 531 210 539 214 q 513 206 524 206 q 494 203 503 206 q 452 189 481 197 q 400 182 424 181 q 353 193 376 182 q 312 222 331 204 q 282 263 293 240 q 271 311 271 286 q 276 349 271 331 q 285 386 282 367 q 315 417 297 403 q 349 443 332 431 q 384 469 367 456 q 414 500 401 482 q 433 494 421 494 q 456 490 446 494 q 501 513 475 506 q 554 528 526 521 q 599 571 585 544 q 606 636 613 597 q 590 675 601 657 q 572 711 578 693 q 526 720 551 721 q 474 717 500 719 q 458 675 458 700 q 458 625 458 650 q 452 579 458 600 q 419 551 446 558 q 390 551 406 549 q 362 561 375 554 q 339 577 349 568 q 325 594 329 586 q 318 640 315 615 q 331 689 321 665 q 355 731 340 713 q 382 758 369 750 q 419 761 399 756 q 461 772 439 767 q 505 778 483 778 q 543 765 526 779 q 632 749 596 775 q 689 686 668 724 q 703 657 696 675 q 713 632 711 639 q 709 611 714 621 q 704 590 704 601 q 708 572 704 581 q 714 553 713 564 q 712 535 715 543 q 708 517 708 526 q 713 500 710 508 q 718 482 717 492 q 718 440 719 463 q 717 397 717 418 q 721 354 717 375 q 738 319 725 333 m 428 294 q 440 282 432 289 q 456 269 447 275 q 474 259 465 263 q 488 256 483 256 q 501 260 496 256 q 513 270 507 265 q 526 278 519 275 q 544 279 533 282 q 569 310 550 294 q 597 349 589 326 q 600 367 599 354 q 602 394 601 379 q 603 421 603 408 q 601 438 603 433 q 585 463 600 449 q 560 472 571 476 q 529 463 549 467 q 503 453 510 458 q 493 444 496 450 q 485 432 490 438 q 462 418 474 424 q 436 404 450 413 q 427 375 431 389 q 417 350 424 361 q 424 324 426 339 q 428 294 421 308 z "},"A":{"ha":1090,"x_min":56,"x_max":1035,"o":"m 781 25 q 764 14 769 22 q 750 0 758 6 q 722 -2 735 3 q 699 0 710 -7 q 681 -3 692 -3 q 658 0 669 -3 q 652 5 656 1 q 643 11 649 8 q 624 20 632 17 q 619 43 617 24 q 626 53 621 50 q 635 64 631 57 q 649 67 643 64 q 665 67 654 69 q 707 84 693 71 q 725 125 721 97 q 726 136 725 129 q 725 150 726 143 q 719 162 724 157 q 713 174 715 167 q 712 182 711 178 q 710 190 713 186 q 699 208 707 197 q 689 229 692 219 q 689 233 688 231 q 690 238 690 235 q 684 249 689 242 q 672 265 679 257 q 658 281 665 274 q 647 289 651 288 q 606 290 626 289 q 575 301 586 290 q 543 291 563 296 q 508 293 524 286 q 458 283 482 292 q 407 283 433 275 q 402 283 403 285 q 399 279 401 282 q 358 258 376 281 q 358 255 357 257 q 358 251 360 253 q 342 234 351 240 q 331 214 333 228 q 329 186 328 199 q 334 163 331 174 q 342 144 338 153 q 349 125 346 135 q 370 105 363 118 q 390 83 378 92 q 415 72 401 76 q 432 51 429 68 q 419 21 426 32 q 394 3 411 10 l 297 3 q 246 10 274 17 q 194 -3 218 3 q 166 1 182 1 q 134 -1 150 0 q 105 -1 118 -3 q 83 8 92 0 l 69 8 q 57 33 58 17 q 63 63 56 49 q 83 76 74 67 q 106 92 92 86 q 121 96 113 94 q 136 101 129 97 q 151 115 144 107 q 164 129 157 122 l 171 129 q 194 157 181 143 q 221 226 203 197 q 250 293 239 256 q 262 307 257 299 q 272 324 267 315 q 275 347 272 338 q 282 364 278 356 q 290 382 286 372 q 296 404 293 392 q 310 435 299 419 q 331 463 322 451 q 335 489 333 476 q 346 508 336 501 q 352 538 347 525 q 363 561 357 550 q 374 583 368 572 q 383 610 381 594 q 385 612 386 608 q 389 613 385 615 q 429 694 403 660 q 435 724 431 711 q 442 756 439 736 q 450 777 444 767 q 463 794 456 788 q 474 824 465 817 q 473 831 474 826 q 472 839 472 835 q 478 865 479 846 q 485 887 488 872 q 490 913 483 901 q 499 921 493 915 q 508 933 504 926 q 524 954 517 944 q 543 967 532 964 q 549 966 546 967 q 556 967 553 965 q 571 970 563 968 q 588 969 579 972 q 603 958 597 967 q 624 951 608 950 q 641 930 631 940 q 654 904 651 919 q 654 890 656 897 q 654 876 653 883 q 659 863 656 869 q 665 851 663 857 q 671 818 665 831 q 682 788 676 806 q 686 782 682 786 q 685 768 683 776 q 690 757 686 760 q 690 748 689 753 q 689 740 692 743 q 706 693 697 715 q 721 644 715 671 q 728 625 724 633 q 735 606 732 617 q 742 597 742 603 q 746 583 743 590 q 751 575 749 579 q 756 565 754 571 q 756 555 757 560 q 756 544 754 550 q 767 521 758 532 q 781 497 776 510 q 780 492 781 494 q 781 486 779 489 q 785 470 782 478 q 790 454 789 463 q 789 440 790 447 q 790 426 788 433 q 797 414 792 419 q 801 399 803 408 q 815 374 810 388 q 826 347 821 360 q 835 327 836 339 q 836 304 833 315 q 845 285 838 294 q 857 265 853 276 q 859 255 860 260 q 860 247 858 250 q 871 228 864 238 q 882 213 878 219 q 884 195 879 203 q 892 181 889 188 q 897 165 894 168 q 906 153 899 161 q 919 124 915 140 q 940 104 924 108 q 967 83 950 89 q 999 67 985 78 q 1025 55 1021 69 q 1035 26 1029 40 q 1028 16 1031 22 q 1022 3 1025 10 q 993 -7 1007 1 q 965 -17 979 -15 q 943 -14 954 -17 q 920 -8 932 -11 q 897 -4 908 -6 q 874 -7 885 -3 q 840 -3 860 0 q 806 0 819 -6 q 781 25 794 14 m 500 629 q 500 621 504 622 q 497 613 496 619 q 481 588 486 603 q 467 567 476 574 q 462 549 464 557 q 453 536 460 542 q 450 520 456 525 q 442 506 444 515 q 442 499 440 503 q 442 490 443 494 q 437 475 440 483 q 432 460 433 467 q 435 430 429 440 q 444 408 442 419 q 481 394 463 406 q 518 390 499 383 l 542 390 q 571 393 556 397 q 601 394 586 389 q 615 407 608 403 q 624 422 621 411 q 623 453 628 440 q 612 479 618 467 q 601 506 606 492 q 599 538 596 519 q 594 542 597 540 q 592 547 592 543 q 579 577 589 567 q 568 607 569 588 q 563 613 564 608 q 558 618 561 617 q 551 634 558 628 q 535 642 544 640 q 515 642 525 644 q 500 629 506 639 z "},"B":{"ha":974,"x_min":57,"x_max":918,"o":"m 113 63 q 127 71 118 69 q 143 78 136 72 q 163 97 156 85 q 175 122 171 110 q 181 125 179 122 q 186 131 183 128 q 187 161 182 146 q 194 189 192 176 q 194 277 200 233 q 190 372 188 321 q 185 392 185 379 q 186 418 186 406 q 192 439 192 426 q 200 458 193 451 q 201 493 199 474 q 197 524 203 513 q 194 595 194 558 q 195 668 194 632 q 195 739 196 704 q 190 806 194 774 q 188 810 190 808 q 186 815 186 813 q 184 830 183 822 q 182 844 185 838 q 174 860 179 853 q 168 879 168 868 q 150 888 158 882 q 129 897 142 894 q 101 901 114 900 q 83 915 89 901 q 65 923 74 918 q 57 936 57 928 q 67 952 57 946 q 91 961 76 958 q 122 965 106 964 q 149 965 138 965 q 179 971 156 974 q 222 971 203 968 q 284 973 249 975 q 351 974 319 971 q 383 974 368 976 q 413 971 399 971 q 426 974 419 971 q 439 978 432 978 q 451 975 446 978 q 464 971 457 972 q 492 972 478 968 q 517 974 506 976 q 535 967 526 972 q 553 965 543 963 q 574 972 558 971 q 593 965 589 972 l 624 965 q 631 967 631 964 q 636 971 631 971 q 678 965 661 972 q 718 956 694 958 q 765 933 742 939 q 799 906 781 918 q 838 882 818 893 q 851 863 840 868 q 869 849 861 857 q 880 820 872 832 q 892 793 888 808 q 888 760 888 782 q 892 726 888 738 q 882 697 889 708 q 874 665 875 685 q 857 646 867 654 q 839 626 847 638 q 837 622 836 624 q 838 618 838 619 q 828 608 835 614 q 818 600 822 603 q 815 599 817 599 q 811 599 813 600 q 809 594 808 596 q 807 589 810 592 q 803 588 806 588 q 799 586 800 588 q 783 568 792 581 q 763 549 774 556 q 740 531 753 542 q 724 506 726 519 q 726 488 721 494 q 738 475 731 481 q 753 465 746 469 q 764 451 760 460 q 801 434 788 447 q 826 404 815 421 q 865 372 850 393 q 900 338 879 351 q 908 293 907 318 q 918 256 908 268 l 918 206 q 915 199 915 203 q 910 194 915 194 q 892 147 908 167 q 867 104 875 128 q 840 78 850 92 q 813 63 825 71 q 790 47 800 54 q 749 31 765 43 q 710 11 733 18 q 685 7 692 13 q 658 4 678 1 q 644 -1 653 -1 q 628 2 636 0 q 610 5 619 4 q 596 0 601 6 q 583 4 592 7 q 571 8 575 1 q 540 1 557 0 q 506 0 522 3 q 498 -4 501 -1 q 490 -7 494 -7 q 467 -3 479 -8 q 443 0 456 3 q 433 -4 438 -1 q 425 -7 429 -7 q 409 -3 417 -7 q 394 4 401 1 l 358 4 q 351 2 354 4 q 344 0 347 0 q 337 1 339 -1 q 329 4 335 3 q 295 5 314 8 q 263 8 276 1 q 247 5 256 3 q 232 0 238 7 q 186 3 213 -3 q 133 4 160 10 q 115 -3 122 1 q 94 -4 107 -7 q 72 13 85 -1 q 63 38 60 26 q 78 56 64 46 q 113 63 93 67 m 611 890 q 593 894 603 893 q 576 897 583 894 q 567 903 571 899 q 557 908 563 907 q 500 910 529 914 q 439 908 471 906 q 412 894 424 903 q 386 879 400 886 q 381 867 385 872 q 374 853 376 861 q 372 840 371 846 q 371 828 374 833 q 365 822 368 825 q 363 814 363 818 q 363 801 361 806 q 367 793 365 797 q 373 756 372 776 q 371 718 374 736 q 365 695 369 707 q 358 671 361 683 q 356 647 356 658 q 367 625 357 635 q 372 573 363 593 q 402 542 382 553 q 449 528 422 531 q 504 529 475 525 q 551 541 522 542 q 608 544 581 540 q 652 566 636 547 q 682 604 668 585 q 690 614 685 610 q 697 621 694 618 q 701 640 701 631 q 708 657 701 649 q 710 721 711 693 q 711 781 708 749 q 698 808 703 793 q 687 836 693 824 q 669 858 681 849 q 639 871 658 868 q 626 881 636 875 q 611 890 615 888 m 556 47 q 577 57 565 57 q 604 58 589 57 q 626 65 615 61 q 642 71 636 68 q 646 72 644 72 q 650 74 647 72 q 661 80 657 76 q 668 85 665 83 q 672 85 671 86 q 675 85 674 85 q 678 90 678 88 q 682 96 679 93 q 686 96 685 97 q 690 97 688 94 q 701 110 697 103 q 711 122 704 118 q 717 142 711 133 q 726 161 724 150 q 727 190 729 176 q 735 214 725 203 q 733 226 729 219 q 735 240 736 233 q 732 244 733 243 q 729 249 731 246 q 728 299 726 272 q 718 340 729 325 q 719 346 717 344 q 719 351 721 347 q 701 372 713 363 q 682 392 689 381 q 680 398 679 394 q 679 404 681 401 q 660 421 672 415 q 636 431 649 426 q 625 440 632 438 q 610 445 618 443 q 592 450 601 447 q 578 457 583 453 q 550 460 560 454 q 524 467 540 467 q 486 464 507 463 q 444 466 465 465 q 406 463 424 467 q 381 446 389 460 q 378 434 382 440 q 376 417 374 428 q 359 362 358 397 q 363 293 360 326 q 366 290 363 290 q 367 285 369 290 q 367 278 369 279 q 363 274 364 276 q 367 265 368 271 l 367 144 q 381 103 374 121 q 407 74 388 86 q 407 68 406 69 q 410 64 408 67 q 434 58 419 57 q 456 51 449 58 q 505 58 478 65 q 556 47 532 50 z "},"C":{"ha":893,"x_min":53,"x_max":840,"o":"m 771 363 q 806 350 793 361 q 826 326 819 339 l 826 301 q 822 290 822 296 q 818 279 822 285 q 817 259 817 268 q 815 239 818 250 q 811 228 814 235 q 806 215 808 222 q 806 210 804 213 q 806 206 807 208 q 799 196 803 200 q 792 186 794 192 q 790 178 789 182 q 788 171 790 174 q 785 169 788 168 q 782 167 783 169 q 779 160 779 164 q 778 154 779 156 q 771 149 775 151 q 764 143 767 146 q 764 140 763 142 q 764 136 765 138 q 756 126 761 131 q 744 114 750 121 q 706 75 729 94 q 661 40 683 56 q 655 39 658 39 q 647 38 651 39 q 636 31 640 35 q 629 28 632 28 q 619 28 624 26 q 608 28 614 29 q 597 20 601 25 q 586 13 593 15 q 565 10 575 10 q 547 3 556 11 q 536 3 540 6 q 525 0 532 1 q 492 3 508 -1 q 461 7 476 8 q 436 6 447 6 q 414 13 425 6 q 389 15 401 15 q 365 17 376 14 q 356 22 360 18 q 347 28 351 25 q 337 28 342 29 q 328 31 332 28 q 311 40 319 33 q 296 51 303 47 q 276 62 285 57 q 260 75 267 67 q 242 82 249 76 q 228 93 235 88 q 221 94 228 94 q 197 121 210 108 q 174 146 185 133 q 155 178 167 165 q 128 203 143 192 q 117 219 125 215 q 119 228 119 224 q 114 235 118 233 q 115 243 114 240 q 92 298 101 271 q 71 353 82 325 q 63 389 71 379 q 64 404 60 399 q 67 418 68 410 q 64 428 67 424 q 60 436 61 432 q 59 466 57 451 q 60 500 61 481 q 58 539 53 517 q 63 576 64 561 q 64 581 61 581 q 67 585 67 582 q 81 678 71 636 q 122 743 90 721 q 144 788 133 767 q 165 833 156 810 q 181 843 175 836 q 193 857 186 850 q 217 871 208 861 q 231 893 225 881 q 250 896 239 897 q 269 899 261 894 q 285 913 278 904 q 303 929 292 922 q 310 931 307 932 q 318 932 314 931 q 324 938 321 935 q 331 944 326 942 q 356 952 342 951 q 382 957 369 953 q 401 968 394 961 q 424 971 408 975 q 441 971 431 968 q 463 971 451 974 q 478 966 471 969 q 489 960 485 963 q 510 960 500 960 q 528 957 521 960 q 544 963 536 960 q 563 965 551 967 q 581 956 569 958 q 600 947 593 954 q 633 940 619 950 q 661 924 646 929 q 686 917 672 918 q 711 924 700 917 q 722 931 714 925 q 732 939 729 936 q 732 943 732 940 q 733 947 732 946 q 737 948 735 949 q 740 949 739 947 q 749 956 743 951 q 761 965 754 961 q 821 938 801 964 q 836 872 840 913 q 833 861 836 868 q 836 849 829 854 q 837 822 835 838 q 833 797 839 807 q 837 773 836 786 q 836 749 838 760 q 835 726 835 738 q 833 704 835 715 q 826 690 832 700 q 818 674 821 681 q 808 649 815 658 q 785 636 801 639 q 739 664 754 643 q 713 710 724 685 q 690 758 701 735 q 654 797 678 782 q 614 833 639 821 q 569 863 589 844 l 558 863 q 537 872 549 871 q 506 875 525 872 q 496 878 500 876 q 488 882 492 881 q 469 876 481 882 q 447 868 458 871 q 428 865 436 865 q 406 863 419 864 q 383 849 393 858 q 363 831 374 839 q 344 819 354 824 q 328 803 335 814 q 317 789 322 797 q 308 774 313 781 q 305 767 306 771 q 303 763 304 764 q 290 746 297 756 q 286 718 283 736 q 263 640 269 688 q 258 549 256 593 q 249 511 251 529 q 249 465 247 493 q 242 444 243 460 q 249 424 242 429 q 249 395 247 410 q 247 369 250 381 q 253 358 251 365 q 258 347 254 351 q 263 292 258 317 q 268 238 267 267 q 279 193 281 222 q 306 152 293 174 q 343 122 318 131 q 383 92 358 101 q 428 68 407 82 q 456 65 442 68 q 484 58 469 61 q 513 55 499 56 q 544 58 528 54 q 556 69 550 64 q 568 79 561 75 q 597 81 583 79 q 622 89 611 82 q 642 104 629 93 q 661 122 654 115 q 664 128 664 125 q 665 133 664 131 q 672 138 668 136 q 679 143 676 140 q 682 151 682 146 q 685 160 682 156 q 695 172 689 165 q 706 185 701 178 q 712 199 710 192 q 721 211 714 207 q 724 230 718 221 q 733 250 731 239 q 735 288 736 269 q 744 318 733 307 q 744 332 742 329 q 747 346 747 335 q 759 355 754 350 q 771 363 764 360 z "},"D":{"ha":1111,"x_min":49,"x_max":1056,"o":"m 597 975 q 619 973 608 967 q 642 978 631 979 q 650 973 649 976 q 657 967 651 969 q 683 955 668 960 q 704 940 697 950 q 728 937 719 942 q 750 932 736 932 q 788 916 771 925 q 824 898 806 907 q 863 882 842 889 q 908 874 883 875 q 926 848 915 858 q 947 828 936 838 q 961 801 947 810 q 983 779 975 793 q 985 772 986 776 q 988 764 985 768 q 991 758 989 761 q 996 753 993 756 q 997 744 997 749 q 999 738 997 740 q 1008 719 1003 726 q 1017 700 1014 711 q 1026 690 1024 697 q 1036 681 1029 683 q 1040 660 1035 669 q 1047 642 1046 650 q 1047 618 1050 631 q 1047 594 1044 606 q 1051 585 1049 589 q 1054 578 1053 582 q 1054 563 1056 571 q 1051 546 1053 556 q 1050 468 1047 508 q 1047 394 1053 428 q 1039 376 1046 385 q 1029 356 1032 367 q 1029 349 1028 353 q 1029 342 1031 344 q 1023 335 1026 338 q 1017 331 1019 333 q 1015 321 1015 326 q 1014 311 1015 315 q 1012 310 1014 310 q 1008 308 1010 310 q 1002 292 1007 304 q 990 276 997 281 q 990 269 989 272 q 992 264 992 267 q 969 229 981 247 q 944 196 958 211 q 903 160 922 179 q 863 121 883 140 q 861 117 860 121 q 860 113 863 114 q 813 90 833 101 q 774 61 792 78 q 718 47 746 54 q 667 28 690 40 q 647 23 656 29 q 629 14 639 17 l 594 14 q 588 12 589 15 q 583 8 588 8 q 562 8 572 8 q 546 1 551 8 l 513 1 q 505 -1 506 3 q 499 -4 504 -6 q 442 5 469 -4 q 388 1 414 14 q 350 4 368 6 q 317 6 332 3 q 290 -1 306 -1 q 257 1 274 0 q 224 3 240 3 q 196 -4 208 3 q 143 -6 168 -1 q 93 -4 118 -11 q 59 24 69 0 q 65 69 49 49 q 83 81 72 78 q 103 85 93 83 q 123 90 114 86 q 138 103 132 93 q 149 103 146 100 q 160 106 153 107 q 168 129 167 117 q 176 153 169 142 q 180 296 183 224 q 176 438 176 368 q 182 520 176 478 q 183 606 188 563 q 181 609 185 610 q 179 613 178 608 q 183 673 181 638 q 183 740 186 708 q 179 753 182 747 q 176 765 176 758 q 175 797 174 783 q 164 814 176 810 q 149 853 163 839 q 117 877 135 867 q 85 899 100 888 q 67 932 69 911 q 81 957 74 943 q 104 975 88 971 q 118 975 111 976 q 132 975 125 974 q 158 978 144 976 q 183 975 172 981 q 198 978 189 978 q 217 978 207 978 q 224 981 221 979 q 232 985 226 983 q 260 976 243 978 q 294 975 276 975 q 330 974 313 975 q 360 967 347 972 q 389 975 372 975 q 422 972 406 975 q 453 969 439 969 q 479 978 468 969 q 499 977 490 975 q 515 978 507 979 q 546 969 531 975 q 585 967 561 963 q 591 970 588 969 q 597 975 594 971 m 533 899 q 519 897 526 900 q 503 891 511 894 q 485 885 494 888 q 465 885 475 882 q 448 876 458 878 q 425 874 438 875 q 418 867 424 868 q 410 861 413 865 l 394 861 q 383 852 388 857 q 375 840 379 847 q 368 833 372 836 q 361 828 364 831 q 358 815 358 824 q 354 800 357 807 q 346 782 351 789 q 339 765 340 775 q 349 726 346 743 q 351 678 353 710 q 347 675 350 675 q 346 672 344 675 q 347 642 351 656 q 343 613 343 628 q 346 609 342 608 q 347 604 350 610 q 347 581 351 590 q 339 561 342 572 q 339 508 335 535 q 336 454 343 481 q 339 433 343 446 q 332 406 335 419 q 332 346 329 378 q 332 286 335 314 q 336 255 340 271 q 332 224 332 239 q 341 184 333 204 q 343 139 349 164 q 347 131 347 135 q 354 124 347 126 q 367 99 357 108 q 388 81 376 90 q 402 69 394 76 q 415 61 410 63 q 426 60 419 60 q 439 61 432 61 q 454 57 446 60 q 467 54 463 54 q 478 58 474 56 q 489 61 482 61 q 498 58 493 61 q 507 54 503 56 q 563 53 535 47 q 615 61 592 58 q 651 90 635 75 q 696 110 668 104 q 767 175 732 142 q 824 256 803 208 q 825 269 821 265 q 828 281 829 274 q 837 293 838 285 q 839 313 836 301 q 843 324 840 319 q 849 333 846 328 q 849 338 850 336 q 849 342 849 339 q 860 364 853 356 q 864 389 867 372 q 869 394 868 390 q 872 400 869 397 q 877 470 878 436 q 879 540 876 504 q 882 557 881 546 q 882 575 883 568 q 869 633 879 607 q 857 689 860 658 q 847 703 849 696 q 842 721 846 711 q 819 752 835 740 q 793 779 803 764 q 782 794 789 786 q 768 808 775 803 q 724 840 746 824 q 667 858 703 857 q 661 863 665 861 q 654 867 657 864 q 636 868 643 865 q 622 874 629 871 q 614 870 619 869 q 601 869 608 871 q 583 876 596 876 q 560 876 571 876 q 546 888 550 881 q 533 899 542 896 z "},"E":{"ha":983,"x_min":56,"x_max":928,"o":"m 833 303 q 842 311 836 307 q 853 321 849 315 q 866 338 860 331 q 890 342 872 344 q 905 324 903 336 q 910 297 907 311 q 915 281 911 289 q 919 265 918 272 q 922 235 922 250 q 928 207 921 221 q 920 160 919 188 q 919 104 921 132 q 914 85 911 96 q 914 61 917 74 q 906 47 911 54 q 896 38 900 40 q 871 21 885 31 q 846 8 857 11 q 812 3 829 4 q 776 3 794 3 q 739 5 757 4 q 703 1 721 6 q 699 2 699 -1 q 696 4 699 6 q 669 -1 685 -3 q 638 -3 654 0 q 611 5 628 11 q 585 -3 594 -1 q 563 -3 574 -4 q 547 1 553 -1 q 515 2 528 8 q 485 -7 501 -4 q 458 -9 471 -8 q 431 -10 446 -10 q 404 -17 419 -17 q 373 -15 389 -18 q 343 -8 357 -12 q 321 1 329 -3 q 294 -7 310 -6 q 263 -8 279 -8 q 228 -8 246 -8 q 194 -10 211 -7 q 150 1 178 6 q 122 -12 138 -11 q 91 -6 106 -12 q 67 13 76 0 q 56 39 57 25 q 61 55 58 47 q 69 71 64 63 q 84 76 76 75 q 94 86 92 78 q 141 103 119 94 q 178 128 163 113 q 203 167 194 144 q 207 225 211 190 q 210 340 213 279 q 210 460 208 401 q 215 473 215 468 q 218 486 214 478 q 213 504 215 497 q 210 529 210 511 q 221 560 221 543 q 216 581 221 571 q 210 600 211 592 q 217 638 210 618 q 214 676 224 657 q 216 751 217 713 q 207 815 215 789 q 198 826 200 821 q 193 840 196 831 q 155 872 175 857 q 100 886 135 886 q 84 913 81 900 q 103 933 88 925 q 141 942 119 940 q 181 939 163 944 q 203 946 190 942 q 228 943 217 950 q 244 949 236 949 q 262 947 253 949 q 281 942 271 944 q 303 942 290 940 q 317 951 308 953 q 333 946 325 949 q 350 948 342 947 q 363 947 358 949 l 367 947 q 378 952 374 950 q 390 953 383 954 q 403 948 397 953 q 415 942 408 943 q 424 944 419 942 q 433 947 428 947 q 439 945 436 947 q 444 942 442 943 q 456 941 450 940 q 467 939 461 942 q 471 936 468 939 q 501 938 483 939 q 531 935 519 938 q 576 942 551 939 q 624 942 600 946 q 637 936 631 940 q 650 932 643 932 q 657 933 653 932 q 665 935 661 935 q 674 933 669 935 q 681 932 678 932 q 688 937 683 933 q 699 942 693 940 q 704 941 701 942 q 710 940 707 940 q 735 940 721 940 q 758 942 749 939 q 767 947 763 943 q 775 951 771 950 q 795 951 783 953 q 818 951 807 950 q 830 953 825 951 q 840 954 835 956 q 872 939 856 951 q 890 919 888 926 q 891 901 893 911 q 890 883 889 892 q 897 866 893 874 q 903 851 901 858 q 903 843 904 847 q 903 835 903 839 q 908 824 904 829 q 913 814 911 819 q 912 793 915 803 q 907 775 908 783 q 904 742 904 760 q 907 711 904 724 q 909 700 907 704 q 910 690 911 696 q 874 672 904 668 q 847 738 847 690 q 840 751 840 744 q 835 765 839 758 q 815 787 828 778 q 800 811 803 796 q 790 815 794 813 q 781 819 786 817 q 766 847 778 838 q 746 868 754 856 q 717 881 733 879 q 683 890 701 883 q 663 901 672 894 q 646 908 654 907 q 607 910 626 913 q 569 906 588 907 q 556 906 563 904 q 543 906 550 907 q 529 901 536 904 q 515 896 522 897 q 497 895 506 894 q 479 893 488 896 q 462 879 475 883 q 442 864 449 875 q 407 856 438 860 q 391 829 396 844 q 379 799 386 814 q 378 752 382 775 q 376 714 375 729 q 381 698 376 706 q 386 682 385 690 q 387 664 389 672 q 383 646 385 656 q 383 616 382 631 q 382 586 385 601 q 388 573 389 581 q 390 557 388 565 q 395 549 392 553 q 400 542 399 546 q 402 533 403 538 q 404 525 401 528 q 421 516 411 515 q 444 515 431 517 q 463 510 454 513 q 485 510 472 507 q 517 531 500 521 q 544 558 533 542 q 547 565 547 561 q 547 572 546 569 q 555 585 550 579 q 563 599 560 592 q 563 603 564 601 q 561 607 561 604 q 569 617 564 613 q 572 629 574 622 q 583 636 578 631 q 593 648 588 642 q 603 660 599 654 q 615 667 608 665 q 637 660 631 669 q 650 639 643 650 q 651 617 647 626 q 657 599 654 607 q 656 592 657 596 q 657 585 656 588 q 659 580 657 582 q 661 575 661 578 q 660 538 664 557 q 661 499 657 519 q 653 488 654 496 q 650 474 653 481 q 647 471 649 471 q 646 468 646 471 q 649 443 643 453 q 657 422 654 433 q 656 392 660 407 q 661 365 653 378 q 658 317 660 339 q 650 276 657 296 q 637 263 643 269 q 622 257 631 257 q 599 270 615 257 q 575 294 582 283 q 574 302 574 297 q 572 310 575 307 q 564 324 569 315 q 561 342 558 333 q 540 369 549 353 q 525 403 532 385 q 490 417 508 411 q 453 431 471 424 q 435 424 446 426 q 418 415 425 421 q 417 410 415 413 q 415 406 418 408 q 410 402 413 403 q 407 399 408 401 q 393 373 399 385 q 390 340 388 361 q 386 324 383 333 q 390 304 389 314 q 390 264 392 285 q 390 224 388 243 q 400 185 393 200 q 404 143 407 169 q 430 110 417 124 q 474 97 443 97 q 485 91 479 94 q 497 86 490 88 q 524 85 513 92 q 547 75 535 78 q 564 83 554 83 q 585 86 574 83 q 599 91 592 88 q 613 97 606 94 q 624 97 618 97 q 635 97 629 96 q 658 108 647 100 q 683 110 668 115 q 764 169 729 133 q 811 263 799 204 q 819 274 818 265 q 825 289 821 282 q 829 292 826 292 q 833 294 832 292 q 833 299 833 297 q 833 303 832 301 z "},"F":{"ha":967,"x_min":54,"x_max":911,"o":"m 882 626 q 850 628 863 622 q 829 644 838 633 q 815 667 821 654 q 804 693 810 681 q 790 711 799 704 q 775 729 782 718 q 766 743 769 736 q 758 757 763 750 q 725 804 742 782 q 718 813 721 808 q 710 822 715 818 q 702 826 707 825 q 693 829 697 826 q 685 840 690 832 q 676 851 681 849 q 640 863 661 864 q 593 874 618 861 q 560 871 581 868 q 515 873 538 872 q 476 874 493 874 q 458 865 469 865 q 431 863 446 865 q 414 853 421 860 q 397 851 407 847 q 372 826 385 840 q 353 793 360 813 q 349 770 347 778 q 350 744 350 763 q 347 729 350 738 q 342 713 343 721 q 342 638 338 672 q 340 587 344 614 q 342 538 336 560 q 356 520 344 526 q 375 510 368 514 q 549 639 529 507 q 569 663 560 650 q 599 672 579 675 q 615 661 606 671 q 626 640 624 651 q 628 605 629 629 q 626 554 626 581 q 626 499 626 526 q 624 453 625 472 q 623 426 621 439 q 624 403 625 414 q 620 396 622 400 q 615 386 618 392 q 613 356 613 374 q 608 331 614 339 q 589 317 603 321 q 568 315 575 314 q 556 328 561 318 q 543 347 550 339 q 535 357 539 354 q 531 371 532 360 q 485 413 511 396 q 431 444 458 429 l 381 444 q 344 419 361 433 q 324 374 326 404 q 324 359 322 367 q 324 343 325 351 q 319 326 322 335 q 317 307 317 317 q 318 297 317 301 q 319 286 319 293 q 315 217 324 251 q 313 153 307 182 q 322 136 315 143 q 335 118 329 129 q 338 103 338 111 q 342 90 339 96 q 367 72 351 78 q 386 56 382 67 q 408 53 397 51 q 429 51 418 54 q 442 43 433 51 q 455 26 450 35 q 460 10 460 17 q 447 6 460 3 q 410 1 433 1 q 374 6 388 0 q 323 1 349 -1 q 274 0 297 3 q 260 -5 267 -1 q 247 -10 254 -8 q 224 -10 240 -11 q 197 -6 208 -8 q 186 -1 192 -4 q 174 6 181 3 q 140 13 154 8 q 110 24 125 18 q 97 17 106 19 q 81 13 89 14 q 65 15 72 13 q 57 24 58 17 q 60 38 54 32 q 76 47 67 43 q 94 53 85 50 q 111 58 104 56 q 127 83 118 72 q 143 106 136 93 q 146 132 138 121 q 157 157 154 143 q 156 169 158 164 q 154 182 154 175 q 151 219 151 197 q 154 257 151 240 q 157 270 154 264 q 161 282 160 276 q 160 299 163 292 q 157 315 157 307 q 160 330 157 322 q 164 346 164 338 q 165 367 167 357 q 164 386 163 378 q 171 412 167 399 q 164 438 175 425 q 163 488 168 461 q 161 549 158 515 q 165 566 163 557 q 168 583 168 575 q 167 594 168 590 q 164 606 165 599 q 165 672 161 638 q 164 733 168 706 q 160 744 164 739 q 157 756 157 750 q 159 767 157 763 q 161 778 161 772 q 149 819 160 801 q 126 851 139 836 q 103 882 114 867 q 88 917 92 897 q 92 931 90 924 q 96 944 93 939 q 131 956 113 956 q 172 957 150 957 q 192 960 181 957 q 214 964 203 963 q 241 967 228 967 q 263 968 254 967 q 322 971 290 971 q 378 968 353 971 q 399 962 389 967 q 419 957 408 957 q 434 963 426 957 q 449 968 442 968 q 480 963 463 969 q 514 953 497 956 q 538 952 528 951 q 557 946 547 953 q 567 949 564 946 q 575 953 569 953 q 626 956 600 953 q 678 960 653 958 q 729 960 704 963 q 776 950 754 958 q 818 950 797 947 q 856 950 839 953 q 866 945 861 949 q 876 939 871 942 q 888 933 883 935 q 896 928 893 932 q 898 917 899 922 q 900 903 897 911 q 907 892 903 896 q 911 882 911 888 q 908 872 911 875 q 904 861 906 868 q 903 834 901 847 q 904 810 904 821 q 900 764 904 786 q 907 721 896 742 q 901 696 903 710 q 899 669 900 682 q 894 644 897 656 q 882 626 890 632 z "},"G":{"ha":992,"x_min":53,"x_max":935,"o":"m 831 960 q 839 919 838 943 q 851 881 840 894 q 842 828 840 860 q 843 774 844 797 q 841 727 840 751 q 840 683 842 703 q 831 648 838 663 q 811 629 825 633 q 780 632 792 624 q 760 654 768 640 q 747 685 753 668 q 735 714 742 701 q 708 749 719 729 q 687 790 697 769 q 665 828 676 810 q 636 863 653 847 q 603 870 621 869 q 569 878 586 871 q 558 888 563 881 q 543 897 553 896 q 516 903 529 899 q 494 910 503 907 q 471 913 486 913 q 449 913 456 914 q 428 901 435 910 q 414 879 421 892 q 372 874 390 881 q 339 853 353 867 q 315 824 325 840 q 297 789 306 807 q 281 757 289 772 q 271 731 274 742 q 270 688 268 708 q 269 649 272 668 q 263 630 267 639 q 257 610 258 621 q 256 538 253 579 q 258 456 258 497 q 259 378 258 418 q 265 299 260 338 q 281 228 269 261 q 314 169 292 194 q 329 157 321 163 q 347 150 338 151 q 351 140 350 142 q 354 131 353 138 q 389 117 371 129 q 426 94 407 104 q 466 79 446 83 q 508 90 486 75 q 517 83 511 88 q 528 83 524 79 q 543 100 540 88 q 553 119 546 113 q 564 116 561 121 q 576 114 567 111 q 595 126 588 118 q 609 142 603 133 q 622 158 615 150 q 640 169 629 165 q 651 221 642 194 q 660 271 661 247 q 647 312 658 294 q 618 342 635 329 q 583 366 601 356 q 547 388 564 376 q 553 430 540 418 q 590 446 567 442 q 638 451 613 450 q 679 464 663 453 q 753 449 711 453 q 826 457 794 446 q 860 449 842 450 q 896 444 879 449 q 924 429 913 440 q 935 393 935 418 q 858 318 879 363 q 843 199 836 274 q 847 93 849 146 q 826 -1 844 40 q 797 -12 810 -14 q 772 -1 783 -10 q 748 19 760 7 q 724 38 736 31 q 695 34 708 33 q 671 35 682 35 q 651 31 660 35 q 636 14 642 26 q 626 16 629 13 q 619 22 624 19 q 583 8 603 18 q 542 -4 563 -1 q 522 -3 532 -6 q 502 0 513 -1 q 483 0 492 1 q 467 -8 474 -1 q 431 6 446 6 q 382 4 415 6 q 372 13 378 10 q 363 19 367 15 q 326 25 342 17 q 290 39 310 33 q 263 68 275 54 q 238 96 251 82 q 213 122 225 108 q 188 149 201 135 q 167 162 179 156 q 147 176 156 168 q 121 217 132 194 q 102 264 110 239 q 88 315 94 289 q 74 365 81 340 q 65 384 71 375 q 57 404 58 393 q 59 462 53 431 q 68 525 65 493 q 74 577 71 557 q 83 624 76 597 q 93 680 92 654 q 108 728 94 706 q 123 738 119 731 q 135 749 126 746 q 148 792 138 774 q 165 833 158 811 q 205 856 188 843 q 250 871 222 868 q 305 910 278 890 q 360 950 332 931 q 372 952 368 954 q 386 950 375 950 q 394 960 393 953 q 403 971 396 967 q 417 970 410 969 q 429 968 425 971 q 480 988 450 989 q 533 985 510 986 q 551 975 542 978 q 572 970 561 972 q 590 965 582 968 q 606 953 599 961 q 633 953 619 956 q 661 947 647 950 q 690 942 675 944 q 719 942 704 939 q 757 953 739 944 q 794 968 775 961 q 831 960 814 967 z "},"H":{"ha":1088,"x_min":54,"x_max":1031,"o":"m 64 24 q 64 30 65 28 q 60 34 63 32 q 56 39 58 36 q 57 50 54 42 q 78 72 65 64 q 107 92 92 81 q 136 133 131 110 q 154 186 142 157 q 154 205 153 194 q 153 222 156 215 q 159 242 158 228 q 157 265 160 257 q 160 272 156 271 q 163 278 164 272 q 163 356 160 314 q 157 426 167 397 q 160 465 160 442 q 157 506 160 489 q 160 512 156 511 q 163 518 164 513 l 163 678 q 160 685 164 685 q 157 692 156 686 q 158 742 160 715 q 158 793 157 768 q 156 801 160 800 q 153 808 151 801 q 154 811 156 807 q 154 818 153 815 q 140 860 144 842 q 113 893 135 878 q 89 902 100 893 q 72 922 78 911 q 65 943 65 933 q 71 956 64 953 q 82 963 76 958 q 92 968 88 967 q 107 967 100 969 q 122 964 114 965 q 155 964 138 963 q 190 964 172 965 q 203 961 201 963 q 204 960 206 960 q 203 961 203 960 q 210 968 203 963 q 255 967 233 965 q 300 972 276 969 q 317 972 311 974 q 335 968 324 971 q 361 964 347 965 q 388 960 375 963 q 409 954 400 958 q 421 942 418 950 q 419 915 421 922 q 415 906 418 908 q 404 903 411 904 q 386 893 397 901 q 373 892 376 896 q 363 890 369 889 q 351 879 354 888 q 342 865 349 871 q 329 854 338 861 q 318 840 321 847 q 317 831 317 836 q 314 819 317 825 q 306 791 310 806 q 294 761 301 776 q 294 724 296 744 q 300 692 292 703 q 316 605 301 635 q 374 550 331 575 q 409 551 393 544 q 439 554 425 557 q 448 549 444 553 q 456 540 451 544 q 465 533 460 536 q 482 533 471 531 q 494 542 489 536 q 506 550 499 547 q 527 551 517 553 q 553 546 538 549 q 585 550 567 553 q 614 542 603 547 q 643 553 629 547 q 676 561 657 560 q 710 711 715 608 q 717 746 717 722 q 710 779 717 769 q 713 786 714 781 q 713 796 711 792 q 700 831 706 814 q 685 861 694 847 q 659 885 675 875 q 617 901 643 896 q 603 915 608 913 q 604 926 604 925 q 604 928 604 928 q 605 928 604 928 q 606 933 606 928 q 636 957 617 951 q 688 960 656 963 q 726 964 704 958 q 768 968 749 969 q 778 965 778 967 q 776 964 778 964 q 772 966 774 964 q 778 972 771 968 q 815 969 796 964 q 856 972 835 975 q 886 964 867 963 q 918 972 906 965 q 935 965 929 969 q 950 960 940 960 q 973 962 965 958 q 992 951 981 965 q 999 947 996 946 q 1003 947 1001 947 q 1005 943 1004 947 q 1006 924 1006 939 q 995 910 1000 918 q 981 897 990 901 q 969 895 975 894 q 956 893 963 896 q 932 878 942 888 q 908 865 922 868 q 884 835 889 850 q 868 801 879 821 q 868 789 869 796 q 869 779 867 782 q 863 738 863 765 q 867 692 864 711 q 860 651 860 679 q 867 611 860 624 q 864 601 863 608 q 864 590 865 594 q 869 574 869 582 q 868 554 868 567 q 874 532 872 544 q 868 511 875 519 q 868 463 868 483 q 868 423 868 442 q 868 384 868 404 q 869 338 868 364 q 869 333 871 335 q 864 329 867 332 q 867 324 863 324 q 869 318 871 324 q 863 292 863 311 q 867 261 864 272 q 860 241 861 256 q 860 211 858 226 q 863 206 861 208 q 867 201 865 204 q 868 184 869 192 q 872 169 867 176 q 894 150 881 157 q 919 132 907 143 q 932 116 926 125 q 946 100 938 107 q 986 81 965 88 q 1019 60 1007 74 q 1031 44 1031 49 q 1024 36 1031 39 q 1004 -1 1024 13 q 957 -20 985 -15 q 898 -23 929 -25 q 844 -10 867 -21 q 820 -14 833 -17 q 799 -6 807 -11 q 779 -12 788 -11 q 763 -13 771 -14 q 744 -12 754 -12 q 718 -14 733 -11 q 689 -12 701 -17 q 660 -6 676 -8 q 626 -5 642 -3 q 600 1 611 -7 q 592 7 596 8 q 585 3 589 6 q 579 0 582 0 q 574 10 576 0 q 576 22 576 13 q 574 33 576 31 q 579 43 576 39 q 578 54 582 47 q 594 77 582 67 q 621 96 606 88 q 652 112 636 104 q 682 128 668 119 q 709 183 696 146 q 713 272 722 221 q 710 279 711 278 q 706 286 708 281 q 708 296 710 289 q 708 308 707 303 q 706 315 710 315 q 703 322 701 315 q 706 353 704 338 q 704 383 707 369 q 701 388 704 386 q 699 393 699 390 q 699 400 697 397 q 700 406 701 403 q 685 436 696 419 q 660 456 675 453 q 601 458 632 463 q 539 456 569 453 q 501 458 519 458 q 463 464 482 458 q 433 462 447 456 q 403 468 418 468 q 348 448 367 468 q 322 408 329 428 q 323 403 321 406 q 324 397 325 400 q 321 393 324 394 q 318 390 318 392 q 319 384 318 388 q 321 378 321 381 q 314 358 318 371 q 317 329 310 344 q 310 298 310 321 q 317 265 310 275 q 314 218 313 244 q 314 168 315 192 q 322 144 318 156 q 331 122 325 132 q 347 106 336 113 q 378 100 357 100 q 407 76 393 89 q 436 54 421 64 q 438 35 439 46 q 440 10 438 24 q 432 6 435 4 q 426 10 429 7 q 418 15 422 14 q 406 10 414 17 q 354 5 378 7 q 307 6 331 3 q 294 8 301 7 q 282 10 288 10 q 254 5 271 10 q 218 1 238 0 q 215 1 213 1 q 221 1 217 1 q 227 1 225 1 q 224 1 229 1 q 194 5 208 1 q 167 6 181 8 q 150 -2 157 4 q 132 -6 143 -8 q 116 1 125 -4 q 96 10 107 7 q 78 14 85 13 q 64 24 71 15 z "},"I":{"ha":556,"x_min":56,"x_max":500,"o":"m 89 100 q 124 101 110 90 q 151 121 139 113 q 173 122 165 118 q 189 129 181 126 q 193 140 192 136 q 199 149 194 143 q 199 158 199 153 q 197 165 200 164 q 204 190 201 175 q 207 222 207 206 q 204 254 207 239 q 197 279 201 269 q 199 303 200 289 q 199 331 199 318 q 194 349 196 338 q 199 368 193 361 q 199 404 199 385 q 197 439 200 424 q 202 475 207 456 q 197 513 197 494 q 204 538 204 519 q 197 563 204 556 q 200 578 200 568 q 197 594 200 589 q 203 621 204 601 q 201 651 203 640 q 207 670 207 657 q 201 690 207 683 q 203 728 204 707 q 203 769 201 750 q 197 789 200 781 q 196 811 194 797 q 178 853 186 835 q 139 883 169 872 q 88 897 104 883 q 74 942 71 910 q 83 953 78 947 q 94 965 88 960 q 131 965 113 963 q 168 969 150 967 q 202 972 186 972 q 231 965 218 972 q 258 968 246 965 q 286 968 271 971 q 298 963 293 967 q 307 958 303 958 q 324 960 317 956 q 342 965 331 964 q 349 963 344 965 q 357 961 353 961 q 403 967 376 961 q 442 968 429 972 q 457 955 454 965 q 461 932 460 944 q 439 912 456 919 q 407 897 422 904 q 377 866 388 882 q 357 833 367 850 q 351 692 350 765 q 358 544 353 618 q 353 515 353 531 q 355 485 353 500 q 359 456 357 469 q 361 429 361 442 q 363 398 369 414 q 361 358 357 382 q 365 344 364 350 q 361 332 367 339 q 358 308 364 318 q 358 282 353 297 q 356 277 360 278 q 353 272 353 276 l 353 242 q 365 194 358 215 q 375 149 371 172 q 399 126 383 135 q 431 109 414 117 q 467 93 449 101 q 497 74 485 85 q 500 65 494 71 q 499 46 499 54 q 497 31 499 38 q 476 13 489 24 q 447 0 464 3 q 415 4 432 -3 q 375 14 397 11 q 326 13 350 17 q 282 7 301 10 q 221 4 249 4 q 163 7 193 4 q 132 10 147 10 q 106 11 117 10 q 90 10 97 13 q 75 11 82 8 q 58 31 58 15 q 56 63 58 47 q 70 81 64 71 q 89 100 76 92 z "},"J":{"ha":721,"x_min":56,"x_max":665,"o":"m 538 976 q 549 976 543 974 q 561 976 556 978 q 584 972 572 975 q 611 969 596 968 q 615 972 613 969 q 619 974 618 974 q 649 957 632 971 q 664 935 665 943 q 649 910 658 918 q 615 896 639 901 q 593 884 600 893 q 571 872 586 875 q 560 858 568 865 q 550 844 553 851 q 550 831 549 838 q 549 813 551 824 q 545 806 549 810 q 540 797 542 801 q 539 768 538 783 q 546 739 540 753 q 543 717 543 731 q 546 694 543 703 q 540 680 540 688 q 542 664 540 672 q 544 649 543 656 q 540 639 544 643 q 540 605 542 624 q 546 576 539 586 q 543 515 544 550 q 549 458 542 481 q 547 453 546 457 q 547 446 549 449 q 549 440 546 440 q 553 436 551 439 q 551 430 554 431 q 547 424 547 429 q 545 382 543 403 q 549 336 547 361 q 547 331 550 332 q 544 328 544 331 q 544 318 544 324 q 546 310 543 313 q 540 274 536 294 q 542 239 544 254 q 538 228 542 233 q 533 217 535 222 q 535 206 533 210 q 531 200 536 203 q 531 189 532 194 q 532 181 529 183 q 521 151 525 165 q 510 123 517 136 q 495 98 504 110 q 469 76 486 86 q 467 70 467 72 q 463 64 467 68 q 456 62 457 65 q 449 61 456 58 q 417 34 438 46 q 375 14 397 22 q 347 7 361 8 q 313 3 332 6 q 308 1 310 3 q 303 0 306 0 q 291 3 296 0 q 279 7 286 6 q 263 7 271 8 q 249 7 256 6 q 229 16 238 10 q 210 26 221 22 q 194 31 201 29 q 178 33 188 32 q 158 45 167 39 q 136 54 150 51 q 124 68 129 61 q 110 78 119 75 q 103 90 110 85 q 100 101 97 94 q 78 141 83 118 q 61 181 74 164 q 62 186 61 183 q 63 193 63 189 q 61 199 64 197 q 57 203 58 200 q 58 209 56 208 q 63 213 61 210 q 62 219 63 217 q 61 225 61 222 q 94 290 76 258 q 156 344 113 322 q 211 340 188 347 q 258 322 235 332 q 275 298 269 311 q 289 272 281 285 q 286 258 286 267 q 289 244 286 250 q 285 238 285 242 q 285 228 286 233 q 282 226 285 226 q 281 225 281 226 q 278 215 278 221 q 275 206 278 208 q 256 184 267 193 q 229 164 244 175 q 221 153 226 157 q 217 142 215 150 q 226 124 217 131 q 249 114 236 118 q 276 107 263 110 q 300 101 290 104 q 339 118 321 108 q 369 143 357 128 q 378 170 368 157 q 393 194 389 183 q 392 199 394 196 q 392 204 390 201 q 396 212 393 207 q 397 225 399 217 q 394 229 396 228 q 392 235 393 231 q 394 276 394 253 q 392 317 394 299 q 399 335 396 326 q 400 360 401 343 q 396 372 397 367 q 400 382 394 376 q 399 412 399 396 q 400 443 400 428 q 399 473 400 458 q 394 499 399 488 q 397 519 394 508 q 401 539 399 529 q 403 558 403 549 q 399 579 404 568 q 401 615 400 594 q 394 647 401 636 q 397 673 399 661 q 392 695 394 685 q 390 715 390 706 q 397 733 390 724 q 397 752 396 742 q 394 769 397 763 q 400 803 404 782 q 397 836 396 824 q 386 858 390 847 q 371 875 382 868 q 365 877 368 878 q 360 879 363 876 q 356 883 357 881 q 351 889 354 886 q 315 901 335 900 q 283 918 294 903 q 289 949 278 939 q 321 961 300 958 q 369 964 342 964 q 425 967 397 964 q 472 971 451 969 q 515 974 492 972 q 525 981 524 979 q 526 983 526 983 q 528 981 526 983 q 538 976 529 979 z "},"K":{"ha":1099,"x_min":56,"x_max":1043,"o":"m 1000 911 q 992 905 993 908 q 989 897 992 901 q 967 881 979 888 q 944 867 956 874 q 921 851 932 860 q 903 832 910 843 q 821 783 850 815 q 768 718 792 751 q 760 717 761 719 q 754 714 758 715 q 721 679 739 696 q 688 643 703 663 q 683 635 685 640 q 679 626 682 629 q 664 615 672 619 q 651 603 656 610 q 644 583 644 594 q 638 565 644 572 q 639 542 633 549 q 651 526 644 536 q 672 488 665 508 q 703 454 679 468 q 719 417 706 435 q 747 382 732 399 q 762 357 756 371 q 775 332 768 343 q 785 320 779 325 q 794 310 792 315 q 795 303 796 307 q 796 299 794 300 q 805 292 799 294 q 814 286 811 290 q 816 280 815 283 q 818 275 817 276 q 838 256 825 264 q 860 236 850 249 q 863 228 863 233 q 867 221 864 224 q 892 196 878 206 q 917 169 906 186 q 924 159 919 165 q 939 150 929 153 q 941 144 936 146 q 942 138 946 142 q 958 122 949 128 q 975 110 967 117 q 1017 96 1006 111 q 1039 68 1028 81 q 1040 53 1036 58 q 1042 36 1043 47 q 1027 21 1038 28 q 1007 7 1017 14 q 968 7 988 10 q 931 2 949 4 q 896 0 913 0 q 864 7 879 0 q 815 2 840 4 q 765 0 790 0 q 717 3 740 0 q 678 17 694 7 q 626 58 625 15 q 644 76 635 65 q 671 92 654 88 q 679 99 674 96 q 688 107 685 101 q 689 116 690 110 q 690 129 688 122 q 694 135 692 132 q 696 146 696 138 q 693 150 694 150 q 690 153 692 150 q 691 157 689 156 q 692 161 693 158 q 689 163 690 163 q 686 164 686 163 q 685 172 685 167 q 685 181 686 178 q 676 192 682 188 q 674 208 671 197 q 638 260 660 235 q 601 310 617 285 q 602 313 601 313 q 603 314 603 313 q 562 367 585 342 q 517 421 539 393 q 496 423 504 426 q 480 414 488 419 q 465 402 472 408 q 446 396 457 396 q 418 358 431 376 q 396 318 406 339 q 392 292 399 301 q 388 263 385 282 q 383 246 385 258 q 381 219 382 233 q 381 190 381 204 q 382 168 381 176 q 390 154 385 157 q 407 144 396 151 q 433 126 418 138 q 464 117 447 114 q 515 56 497 89 q 494 23 513 35 q 449 6 475 11 q 392 3 422 1 q 336 10 361 4 q 313 9 325 4 q 290 17 301 14 q 284 15 285 19 q 278 14 283 11 q 265 17 271 18 q 251 15 258 17 q 235 10 243 13 q 217 10 226 8 q 213 12 215 10 q 208 14 210 14 q 198 8 203 13 q 189 3 193 4 q 160 -1 175 -1 q 129 3 144 0 q 118 3 124 4 q 107 3 113 1 q 99 8 103 4 q 88 17 94 13 q 72 25 81 21 q 60 36 63 29 q 60 43 58 39 q 56 47 63 47 q 70 76 61 60 q 99 99 79 93 q 129 101 115 103 q 154 106 143 99 q 165 117 160 110 q 178 131 171 124 q 200 145 190 140 q 214 161 210 150 q 215 176 213 171 q 221 188 217 181 l 221 235 q 217 250 217 240 q 219 270 218 260 q 221 291 221 281 q 215 310 221 301 q 218 325 218 314 q 215 342 218 336 q 218 347 215 346 q 221 350 221 347 q 221 376 221 367 q 228 392 221 385 q 226 436 232 417 q 228 471 219 456 q 228 483 226 476 q 226 493 229 490 q 228 499 225 499 q 232 504 232 499 q 231 514 231 508 q 229 522 232 519 q 233 527 229 526 q 235 532 236 528 q 235 539 233 535 q 233 543 236 543 q 238 556 238 547 q 238 573 239 564 q 238 590 238 582 q 242 601 238 599 q 238 611 238 606 q 240 623 239 617 q 242 636 242 629 q 236 649 242 643 q 238 656 239 651 q 239 665 238 661 q 235 686 235 675 q 236 710 235 697 q 239 735 238 722 q 236 763 240 749 q 241 788 244 774 q 233 813 238 803 q 235 839 236 825 q 232 860 235 853 q 203 885 226 871 q 161 903 181 900 q 144 903 153 904 q 129 903 136 901 q 126 906 129 906 q 119 907 122 906 q 113 938 108 918 q 142 963 117 957 q 153 963 147 964 q 165 963 158 961 q 249 971 206 967 q 318 974 293 975 q 325 974 324 971 q 331 976 326 976 q 340 974 336 976 q 346 969 343 972 q 381 972 360 972 q 425 969 403 972 q 453 967 439 968 q 479 964 468 967 q 498 956 490 961 q 507 939 506 950 q 503 926 508 932 q 496 913 499 921 q 457 901 475 907 q 425 888 439 896 q 415 878 418 885 q 408 867 411 871 q 399 854 401 856 q 393 842 396 853 q 389 797 390 824 q 390 749 388 771 q 384 718 383 739 q 388 685 385 697 q 381 663 381 678 q 388 642 381 649 q 384 608 385 629 q 390 578 383 588 q 390 542 385 558 q 396 513 396 525 q 399 509 397 510 q 401 506 401 508 q 444 510 426 501 q 476 526 463 518 q 531 583 508 549 q 569 639 554 617 q 580 643 576 640 q 590 647 583 646 q 613 673 599 663 q 633 699 626 683 q 672 729 656 710 q 697 764 688 749 q 703 769 700 767 q 710 776 707 772 q 717 790 714 783 q 722 803 719 797 q 731 813 726 810 q 738 822 735 817 q 737 826 739 825 q 736 829 735 826 q 738 833 736 832 q 742 835 740 833 q 741 842 743 839 q 744 849 739 846 q 739 867 738 858 q 735 883 740 876 q 727 888 732 886 q 719 892 722 889 q 715 901 717 894 q 710 913 713 908 q 698 932 703 924 q 704 950 693 940 q 731 960 715 961 q 771 963 747 960 q 791 968 783 964 q 810 969 799 972 q 873 963 836 964 q 938 965 910 963 q 947 969 944 967 q 956 969 950 971 q 965 965 958 969 q 980 953 972 960 q 993 940 988 947 q 1000 929 999 933 q 999 919 1001 924 q 1000 911 996 914 z "},"L":{"ha":964,"x_min":56,"x_max":908,"o":"m 469 932 q 463 915 465 925 q 450 900 461 904 q 431 897 442 897 q 411 893 421 896 q 394 885 403 890 q 379 875 386 879 q 361 856 364 865 q 350 832 358 847 q 351 822 353 824 q 347 813 350 819 l 347 747 q 349 740 344 740 q 351 735 353 740 q 349 710 349 725 q 356 689 350 694 q 354 631 353 661 q 363 582 356 601 q 360 551 360 569 q 363 521 360 533 q 360 516 364 517 q 357 510 357 515 q 352 457 360 482 q 351 407 344 432 q 346 381 346 400 q 351 354 346 361 q 350 336 349 347 q 350 317 351 325 q 352 310 349 310 q 356 304 356 310 q 353 296 353 303 q 356 286 353 289 q 350 273 351 282 q 350 253 349 264 q 352 244 351 246 q 354 236 353 243 q 359 222 356 229 q 363 211 363 214 q 362 194 364 203 q 361 174 360 185 q 363 170 361 171 q 367 165 364 169 q 367 155 368 161 q 368 146 365 149 q 394 122 375 133 q 433 107 414 110 q 497 102 461 104 q 565 103 533 100 q 584 107 575 104 q 601 110 593 110 q 616 108 608 110 q 631 107 624 106 q 640 110 636 107 q 651 117 644 114 q 660 119 656 119 q 668 121 665 119 q 697 141 683 128 q 725 164 711 154 q 735 167 731 167 q 743 171 740 168 q 763 192 757 179 q 774 217 769 204 q 781 240 778 229 q 793 258 785 251 q 797 279 793 271 q 804 294 800 288 q 813 310 808 301 q 817 329 817 318 q 834 354 828 340 q 856 381 840 368 q 889 364 879 382 q 903 332 899 346 q 906 315 904 328 q 908 288 907 303 q 908 259 908 274 q 907 236 908 244 q 903 228 907 233 q 899 217 900 224 q 899 210 897 214 q 900 204 901 207 q 897 201 899 201 q 894 197 894 200 q 893 165 892 182 q 896 133 894 149 q 894 128 897 128 q 890 122 890 128 q 886 49 893 71 q 863 4 879 26 q 847 3 854 3 q 833 7 839 4 q 823 3 829 4 q 810 3 817 3 q 797 3 803 4 q 786 0 790 3 q 676 5 735 6 q 571 7 618 4 q 530 3 551 3 q 485 7 508 4 q 463 12 474 8 q 440 18 453 15 q 382 19 411 22 q 325 18 353 15 q 290 18 306 19 q 260 7 275 17 q 255 9 256 6 q 250 11 254 13 q 219 4 236 3 q 186 8 203 6 q 154 13 169 11 q 126 7 139 14 q 83 15 106 11 q 56 33 61 18 q 62 69 57 58 q 82 96 67 81 q 106 103 96 101 q 135 107 117 104 q 165 116 153 108 q 184 133 176 124 q 197 155 192 143 q 210 178 203 167 q 211 199 208 192 q 217 215 214 206 q 217 272 214 242 q 211 322 219 303 q 213 327 214 322 q 214 335 213 332 q 211 369 206 349 q 214 417 217 390 q 208 431 210 425 q 214 443 207 436 l 214 515 q 208 529 210 524 q 214 543 207 535 q 213 601 213 571 q 211 656 214 631 q 215 663 211 661 q 217 671 219 664 q 215 678 219 678 q 211 685 211 679 q 214 703 214 692 q 211 721 214 714 q 217 754 221 735 q 214 760 215 757 q 211 767 213 764 q 213 787 210 778 q 214 807 215 796 q 210 816 213 814 q 210 826 207 818 q 190 861 204 849 q 157 889 176 874 q 110 900 129 889 q 88 931 90 911 q 94 951 85 944 q 117 961 103 958 q 149 964 132 964 q 178 964 165 964 q 201 960 189 958 q 225 965 213 963 q 249 967 238 967 q 268 960 260 968 q 311 960 289 960 q 349 964 333 961 q 376 960 364 967 q 406 957 388 954 q 443 956 422 960 q 469 932 464 951 z "},"M":{"ha":1279,"x_min":56,"x_max":1224,"o":"m 647 394 q 682 413 668 399 q 690 451 685 432 q 707 481 694 469 q 710 508 706 494 q 719 533 714 521 q 731 559 725 546 q 738 586 736 572 q 738 599 739 593 q 738 611 738 606 q 747 634 740 622 q 756 658 753 646 q 756 665 757 661 q 756 672 754 669 q 760 681 757 678 q 765 690 763 685 q 773 714 769 700 q 779 740 776 728 q 790 774 785 758 q 797 810 794 790 q 797 818 799 814 q 797 826 796 822 q 820 876 804 854 q 844 922 836 899 q 876 935 857 932 q 916 939 894 939 q 961 939 938 939 q 1007 942 985 939 q 1017 944 1013 942 q 1026 949 1021 946 q 1042 950 1033 951 q 1057 951 1050 949 q 1088 960 1074 956 q 1118 965 1103 965 q 1148 964 1129 965 q 1178 958 1167 963 q 1184 953 1182 957 q 1190 949 1186 950 q 1201 946 1196 946 q 1210 944 1207 946 q 1221 929 1218 939 q 1222 908 1224 919 q 1216 886 1221 897 q 1206 869 1211 875 q 1183 854 1196 860 q 1158 842 1169 849 q 1092 820 1114 842 q 1056 768 1071 799 q 1056 716 1054 740 q 1053 667 1057 692 q 1049 658 1051 663 q 1046 647 1046 653 q 1048 594 1040 619 q 1056 542 1056 568 q 1052 511 1056 526 q 1060 483 1049 496 q 1054 463 1053 474 q 1056 439 1056 451 q 1051 372 1056 407 q 1049 306 1046 338 q 1053 285 1050 294 q 1049 264 1056 275 q 1051 235 1053 249 q 1048 206 1050 221 q 1044 177 1046 192 q 1046 147 1043 163 q 1056 124 1047 140 q 1071 103 1065 108 q 1094 89 1082 94 q 1117 75 1107 83 q 1160 64 1139 75 q 1182 33 1182 53 q 1172 14 1181 18 q 1151 10 1164 10 q 1124 13 1139 10 q 1096 14 1108 15 q 1084 10 1089 14 q 1075 7 1079 7 q 1066 8 1069 7 q 1056 11 1063 10 q 1001 14 1033 14 q 942 14 969 14 q 925 12 933 14 q 910 11 917 10 q 899 13 903 11 q 890 14 894 14 q 873 10 881 14 q 851 7 865 6 q 844 10 847 7 q 836 14 840 13 q 801 22 819 19 q 783 40 783 24 q 799 58 783 56 q 832 68 814 61 q 870 90 849 74 q 894 128 892 107 q 895 153 897 143 q 901 175 893 164 q 900 206 906 193 q 892 233 894 219 q 889 290 888 261 q 892 349 890 319 q 894 406 894 378 q 888 463 893 435 q 890 489 892 475 q 881 522 888 503 q 877 529 879 525 q 874 538 875 533 q 871 569 871 553 q 871 597 871 585 q 874 622 871 610 q 863 639 876 633 q 843 615 851 628 q 832 586 835 603 q 833 578 832 583 q 832 569 833 574 q 823 553 829 560 q 811 538 817 546 q 803 520 806 529 q 794 504 801 511 q 779 449 789 474 q 758 401 769 425 q 758 368 765 381 q 744 344 750 356 q 738 325 740 335 q 731 306 735 315 q 721 289 726 296 q 710 274 715 282 q 710 256 713 264 q 704 241 708 249 q 695 226 700 233 q 689 213 690 219 q 689 199 688 206 q 689 185 690 192 q 682 170 688 178 q 675 154 676 163 q 675 144 674 149 q 675 136 676 140 q 665 116 672 125 q 661 94 658 107 q 642 69 650 83 q 626 42 635 56 q 580 52 597 33 q 564 100 563 71 q 549 125 556 113 q 532 149 543 138 q 522 185 529 168 q 507 218 515 203 q 506 244 511 233 q 497 267 500 256 q 497 274 496 269 q 497 281 499 278 q 485 306 494 294 q 472 332 476 318 q 469 348 469 342 q 463 361 469 354 q 460 388 465 376 q 451 410 454 399 q 452 417 451 414 q 451 424 453 421 q 447 433 450 429 q 442 442 443 438 q 440 451 439 446 q 438 461 440 456 q 431 473 435 468 q 428 483 428 478 q 428 494 426 489 q 428 504 429 500 q 418 519 425 513 q 406 535 411 525 q 399 555 401 543 q 392 576 397 567 q 384 590 389 583 q 378 607 379 596 q 368 620 371 613 q 354 625 365 628 q 342 613 344 624 q 340 590 340 603 q 340 565 340 578 q 333 546 339 553 q 339 474 344 513 q 333 400 333 436 q 336 381 333 389 q 336 363 339 372 q 331 350 335 356 q 326 338 326 344 q 331 315 325 326 q 336 290 336 303 q 335 257 336 275 q 336 219 333 239 q 342 208 338 213 q 347 196 346 203 q 348 174 350 182 q 353 156 346 165 q 355 149 354 153 q 357 143 356 146 q 367 135 361 138 q 378 128 374 132 q 388 113 385 121 q 396 97 390 104 q 434 72 415 85 q 451 25 453 58 q 437 15 444 19 q 422 7 429 11 l 404 7 q 384 -1 393 3 q 357 -3 375 -6 q 340 4 347 -1 q 324 11 332 10 q 308 8 317 11 q 292 4 299 4 q 269 7 281 3 q 246 11 258 11 q 203 4 224 10 q 167 11 182 -1 q 144 8 156 4 q 125 19 133 11 q 115 39 117 28 q 119 61 113 50 q 144 76 126 72 q 176 89 161 81 q 190 101 183 93 q 204 117 197 110 q 214 124 210 122 q 221 129 218 126 q 228 147 228 139 q 239 163 228 156 q 240 184 236 176 q 249 199 244 192 q 250 269 256 236 q 249 338 244 301 q 251 358 251 347 q 249 381 250 369 q 242 441 246 411 q 242 503 239 471 q 243 560 244 531 q 239 618 242 590 q 237 650 236 635 q 235 679 238 665 q 230 697 233 689 q 225 713 226 706 q 225 746 222 729 q 221 776 228 763 q 195 806 215 788 q 160 831 175 824 q 133 836 147 836 q 103 842 118 836 q 73 863 88 847 q 57 894 58 879 q 58 911 56 901 q 64 928 61 921 q 88 952 72 943 q 119 965 103 961 q 149 968 135 968 q 181 965 163 968 q 203 963 192 964 q 225 958 214 961 q 237 953 232 956 q 249 949 242 950 q 287 948 267 946 q 324 949 307 950 q 345 944 335 947 q 363 942 356 942 q 399 947 379 942 q 442 949 419 953 q 457 935 449 942 q 472 919 465 929 q 492 869 488 900 q 504 810 497 838 q 508 801 506 806 q 511 790 510 796 q 511 779 513 785 q 511 767 510 774 q 519 733 514 750 q 532 701 525 717 q 539 691 535 696 q 546 679 543 686 q 550 656 550 668 q 553 632 550 643 q 569 602 557 617 q 585 564 582 588 q 589 533 588 549 q 594 504 590 517 q 602 493 597 497 q 608 482 607 489 q 610 465 611 474 q 613 449 610 456 q 617 440 614 444 q 622 429 619 435 q 632 410 629 418 q 647 394 635 401 z "},"N":{"ha":1125,"x_min":56,"x_max":1071,"o":"m 64 54 q 87 73 74 65 q 114 88 100 81 q 141 102 128 94 q 163 122 154 110 q 174 144 169 133 q 189 167 179 156 q 191 190 190 182 q 197 208 192 199 q 197 234 200 221 q 196 258 194 247 q 198 263 196 261 q 201 267 200 264 q 204 299 204 281 q 203 335 204 317 q 202 371 203 354 q 204 400 201 388 q 208 459 208 429 q 204 522 207 489 q 203 579 201 549 q 206 641 204 610 q 208 703 208 672 q 204 764 208 735 q 207 810 213 789 q 190 846 201 831 q 168 873 182 861 q 132 885 154 885 q 74 907 103 897 q 64 919 69 914 q 56 932 58 925 q 61 944 58 939 q 67 956 64 950 q 92 964 75 964 q 117 971 108 964 q 145 972 133 968 q 168 978 157 975 q 190 984 179 982 q 218 983 201 986 q 231 978 225 982 q 243 971 236 974 q 260 972 251 969 q 275 971 268 974 q 281 968 278 971 q 290 965 285 965 q 301 963 297 963 q 311 961 306 964 q 321 951 318 957 q 329 938 324 944 q 359 912 342 922 q 383 892 376 901 q 388 879 388 886 q 392 865 389 872 q 399 858 394 861 q 406 850 403 854 q 409 841 408 846 q 413 833 410 836 q 423 822 417 826 q 436 814 429 818 q 444 799 439 803 q 453 782 450 794 q 481 757 469 771 q 505 728 493 743 q 528 698 517 713 q 557 672 540 683 q 574 642 561 653 q 589 611 586 631 q 618 593 603 606 q 630 572 621 579 q 650 557 639 564 q 672 522 658 538 q 689 485 686 507 q 698 476 692 479 q 704 464 704 474 q 730 443 722 458 q 749 414 738 428 q 769 394 758 403 q 792 375 781 386 q 801 375 796 374 q 808 374 807 376 q 822 387 818 379 q 831 401 826 394 q 834 463 833 431 q 835 528 835 494 q 838 594 836 561 q 844 654 839 626 q 840 674 840 663 q 835 693 840 686 q 834 744 836 721 q 831 790 832 768 q 800 836 822 817 q 788 867 803 856 q 758 889 774 879 q 742 890 746 883 q 728 900 738 897 q 723 900 725 901 q 719 900 721 899 q 697 922 706 908 q 689 951 689 936 q 706 967 699 958 q 726 979 714 976 q 765 981 744 983 q 806 976 785 979 q 846 973 826 974 q 882 979 865 972 q 892 976 885 978 q 909 974 900 975 q 928 972 918 972 q 943 971 938 971 q 966 980 954 972 q 990 986 978 988 q 1014 978 1001 986 q 1056 970 1042 985 q 1068 926 1071 956 q 1008 882 1049 897 q 990 866 1001 872 q 969 853 979 860 q 952 838 960 847 q 943 814 944 829 q 933 807 939 813 q 929 788 936 796 q 921 768 922 779 q 921 753 919 761 q 921 739 922 746 q 917 732 919 735 q 913 725 914 729 q 913 694 908 710 q 921 665 918 679 q 918 621 915 642 q 908 586 921 600 q 915 537 915 568 q 908 488 915 506 q 911 453 918 472 q 908 415 904 435 q 916 402 911 407 q 924 390 921 397 q 919 365 921 378 q 914 339 917 351 q 918 300 921 324 q 913 264 915 276 q 917 257 913 261 q 915 222 918 233 q 914 188 911 210 q 912 183 915 183 q 908 181 908 183 q 912 154 906 165 q 908 132 918 143 q 908 78 911 100 q 893 35 904 56 q 883 32 888 33 q 869 32 878 31 q 860 40 863 35 q 851 47 857 44 q 840 52 846 50 q 829 60 833 54 q 818 79 824 65 q 803 99 811 89 q 783 115 794 108 q 763 151 782 139 q 733 181 744 164 q 726 197 728 188 q 719 213 724 206 q 697 239 710 228 q 675 264 685 250 q 672 273 672 268 q 668 282 671 278 q 665 285 667 285 q 660 289 663 286 q 660 292 660 290 q 660 296 661 294 q 643 310 654 304 q 628 324 632 317 q 628 331 628 331 q 619 341 622 338 q 610 353 615 344 q 601 366 607 358 q 593 383 596 374 q 559 418 574 399 q 525 453 544 438 q 510 475 518 464 q 492 493 503 486 q 485 510 490 504 q 478 526 481 517 q 460 550 463 539 q 429 568 446 557 q 401 594 413 579 q 398 602 399 597 q 394 610 397 607 q 380 628 388 621 q 367 647 372 636 q 354 657 365 649 q 340 666 350 660 q 324 672 331 672 q 307 665 313 672 q 298 647 301 657 q 292 627 294 638 q 283 610 289 617 q 282 590 288 599 q 279 572 276 581 q 283 565 279 569 q 283 553 286 560 q 281 551 283 551 q 279 549 279 550 q 279 540 278 544 q 281 532 281 535 q 278 527 279 529 q 275 522 276 525 q 276 517 275 519 q 276 513 278 515 q 274 508 276 510 q 272 506 272 507 q 269 473 269 490 q 265 443 269 456 q 267 404 272 424 q 265 367 263 385 q 270 344 267 356 q 272 315 274 333 q 269 301 271 308 q 272 283 268 294 q 274 281 272 281 q 276 279 275 279 q 276 258 279 268 q 275 238 272 249 q 276 235 274 235 q 281 232 279 235 q 281 216 279 225 q 279 203 282 207 q 288 172 286 188 q 297 143 289 156 q 320 119 307 129 q 343 96 333 110 q 372 86 356 92 q 399 73 388 81 q 413 55 410 65 q 401 29 415 44 q 376 19 388 26 q 350 10 365 11 q 325 13 339 10 q 303 7 311 17 q 267 6 285 6 q 238 0 249 7 q 158 6 201 7 q 79 14 114 6 q 72 22 76 18 q 64 31 67 25 l 64 54 z "},"O":{"ha":964,"x_min":54,"x_max":911,"o":"m 464 976 q 494 985 478 985 q 526 982 510 985 q 559 978 543 979 q 590 981 575 976 q 625 969 611 978 q 652 952 639 961 q 680 935 665 943 q 717 926 694 926 q 770 856 740 886 q 835 799 800 826 q 854 755 840 771 q 882 722 868 739 q 885 678 875 697 q 900 636 894 658 q 901 600 904 618 q 897 563 897 582 q 905 473 899 515 q 906 390 911 431 q 888 328 903 358 q 875 261 874 297 q 853 230 863 246 q 829 200 843 214 q 831 186 831 188 q 829 174 832 185 q 808 159 819 165 q 787 145 797 153 q 768 128 776 138 q 757 103 760 118 q 732 92 742 100 q 713 74 722 83 q 693 58 704 65 q 664 51 682 51 q 653 38 657 46 q 642 22 649 29 q 627 22 635 22 q 611 21 619 22 q 574 4 596 7 q 527 2 551 1 q 479 3 503 3 q 439 -4 456 4 q 419 3 428 7 q 396 3 410 0 q 349 16 371 7 q 306 37 326 25 q 265 62 285 49 q 226 86 246 75 q 174 160 196 119 q 121 232 153 200 q 107 266 118 251 q 90 300 96 281 q 88 324 88 311 q 83 347 88 336 q 76 360 81 354 q 69 374 71 367 q 67 428 64 401 q 68 483 71 456 q 60 510 65 497 q 57 543 54 522 q 87 659 64 601 q 128 769 110 717 q 145 783 136 776 q 161 800 154 789 q 164 823 160 814 q 176 838 168 832 q 192 849 183 844 q 210 860 201 853 q 244 894 229 875 q 279 928 260 914 q 357 958 319 940 q 428 996 394 975 q 441 995 436 997 q 449 990 446 993 q 456 982 453 986 q 464 976 458 978 m 385 908 q 364 888 376 897 q 338 870 351 879 q 311 850 324 861 q 290 825 299 839 q 286 809 286 818 q 283 792 286 800 q 252 715 272 758 q 225 635 232 671 q 221 581 221 611 q 222 518 221 550 q 225 453 224 486 q 225 389 226 419 q 235 281 224 332 q 270 188 247 231 q 324 114 293 146 q 392 63 356 82 q 431 55 415 67 q 465 43 447 43 q 478 46 472 43 q 491 50 485 49 q 503 51 497 51 q 515 43 510 50 q 547 61 526 58 q 588 68 568 64 q 617 93 599 82 q 647 115 635 104 q 660 131 654 121 q 674 149 665 140 q 690 165 685 160 q 699 177 696 171 q 706 192 703 183 q 715 218 710 201 q 722 239 719 231 q 726 254 725 247 q 728 270 728 261 q 728 292 728 279 q 733 348 726 319 q 743 408 740 376 q 742 502 749 456 q 738 588 735 549 q 744 619 739 607 q 747 644 750 632 q 739 661 744 653 q 731 678 733 669 q 719 723 724 701 q 713 764 715 744 q 675 824 689 789 q 638 885 661 860 q 608 893 621 885 q 580 910 594 901 q 548 923 565 918 q 508 919 531 928 q 493 926 500 918 q 481 926 486 933 q 431 919 450 928 q 385 908 413 910 z "},"P":{"ha":981,"x_min":53,"x_max":925,"o":"m 488 24 q 491 11 492 19 q 488 -1 490 3 q 435 -11 464 -8 q 374 -14 406 -14 q 312 -12 343 -14 q 253 -10 281 -11 q 230 -1 242 -1 q 199 -4 218 -1 q 171 -5 183 -7 q 150 -10 158 -3 q 130 -1 139 -6 q 115 11 121 3 q 120 38 113 31 q 136 54 128 46 l 169 54 q 202 83 190 63 q 225 118 214 103 q 226 258 222 193 q 225 396 231 322 q 228 446 226 421 q 228 496 231 471 q 222 519 226 508 q 217 540 217 529 q 220 556 217 549 q 224 572 224 564 q 223 583 224 576 q 222 594 222 590 q 219 599 221 597 q 217 604 218 601 q 213 710 211 657 q 211 815 215 764 q 191 844 204 833 q 164 867 178 856 q 57 917 90 874 q 62 951 53 940 q 88 969 71 961 q 97 976 93 972 q 104 981 101 979 q 122 981 111 982 q 144 981 133 979 q 169 983 160 982 q 186 975 179 985 q 214 974 203 978 q 236 965 225 969 q 258 969 244 968 q 279 965 271 971 q 294 974 285 974 q 313 974 303 975 q 332 971 322 972 q 350 975 342 969 q 374 968 361 972 q 401 965 388 964 q 411 969 407 967 q 419 972 415 971 q 463 972 439 975 q 506 972 486 969 q 522 972 514 974 q 539 972 531 971 q 601 974 571 975 q 656 965 631 972 q 675 968 667 969 q 690 963 683 967 q 703 953 697 958 q 718 946 710 949 l 732 946 q 747 935 740 942 q 768 929 754 929 q 789 910 775 919 q 801 902 794 906 q 813 894 808 899 q 816 890 815 893 q 819 885 817 888 q 828 881 824 882 q 838 876 833 879 q 876 830 863 857 q 907 776 889 803 q 909 744 906 758 q 917 715 913 729 q 923 688 921 701 q 922 657 925 674 q 917 647 921 650 q 910 638 913 643 q 906 619 907 626 q 899 601 904 611 q 872 563 888 581 q 846 525 857 546 q 823 513 833 521 q 803 497 813 506 q 782 483 793 489 q 757 474 771 476 q 747 466 753 468 q 736 458 740 464 q 694 449 713 456 q 649 444 676 442 q 620 435 636 436 q 587 435 604 435 q 553 434 569 435 q 528 425 538 433 q 451 423 482 428 q 400 393 419 418 q 389 368 394 382 q 381 351 383 357 q 378 335 378 346 q 368 294 367 319 q 367 243 369 268 q 372 230 372 239 q 378 215 372 221 l 378 171 q 381 148 388 160 q 378 121 375 136 q 389 94 385 107 q 400 69 393 81 q 431 47 411 53 q 464 25 450 40 q 476 25 469 24 q 488 24 483 26 m 447 864 q 422 844 435 854 q 411 815 408 835 q 408 811 411 813 q 407 806 406 810 q 408 793 406 799 q 395 753 397 776 q 389 708 393 731 q 392 705 390 706 q 393 701 393 704 q 392 683 389 693 q 393 663 396 674 q 390 654 393 658 q 386 644 386 650 q 385 616 383 633 q 386 583 388 599 q 383 555 383 565 q 389 532 382 544 q 417 502 404 517 q 457 483 431 488 q 485 483 471 481 q 514 483 499 486 q 530 478 522 482 q 547 476 538 475 q 565 483 553 483 q 585 488 578 482 l 603 488 q 630 500 621 490 q 651 517 639 510 q 661 520 656 519 q 669 524 667 521 q 685 543 679 531 q 694 568 692 556 q 717 597 708 581 q 724 642 726 614 q 729 675 732 653 q 729 715 726 697 q 725 718 728 718 q 724 721 722 718 q 715 752 721 739 q 701 777 708 765 q 685 801 693 789 q 674 829 678 814 q 653 848 664 840 q 629 864 642 856 q 622 867 624 867 q 584 869 603 871 q 551 878 565 867 q 526 874 542 869 q 500 876 510 879 q 474 867 486 869 q 447 864 463 864 z "},"Q":{"ha":975,"x_min":56,"x_max":919,"o":"m 778 826 q 783 806 779 815 q 793 790 788 797 q 819 762 801 778 q 838 732 836 746 q 839 729 838 729 q 842 728 840 728 q 841 722 843 725 q 840 717 839 719 q 849 699 843 707 q 860 683 856 690 q 863 677 861 681 q 867 672 865 674 q 865 667 867 669 q 864 663 864 665 q 871 650 867 656 q 879 639 875 644 q 880 614 876 624 q 886 594 883 604 q 885 576 883 588 q 890 560 886 564 q 888 531 889 549 q 893 506 886 513 q 893 488 890 496 q 888 477 886 486 q 889 461 889 468 q 892 442 897 450 q 889 417 886 433 q 892 408 892 411 q 893 399 893 406 q 882 388 886 394 q 881 358 882 368 q 875 338 881 349 q 878 329 878 332 q 879 321 879 326 q 861 299 864 310 q 844 279 858 289 q 844 274 843 275 q 846 269 846 272 q 825 233 835 250 q 800 197 815 215 q 778 158 797 174 q 744 125 760 143 q 744 115 747 118 q 738 107 740 113 q 735 92 739 100 q 735 74 732 83 q 740 63 736 67 q 743 56 744 60 l 756 56 q 757 45 757 50 q 758 38 757 40 q 786 24 765 26 q 822 28 807 21 q 843 50 838 35 q 856 69 849 65 q 898 61 885 78 q 918 31 911 44 q 917 25 919 26 q 913 21 914 24 q 913 14 914 18 q 914 8 911 10 q 908 -12 908 3 q 911 -36 908 -26 q 895 -62 899 -47 q 871 -85 892 -76 q 849 -115 854 -100 q 816 -135 838 -132 q 774 -143 794 -137 q 748 -152 758 -147 q 722 -154 738 -157 q 706 -153 717 -153 q 685 -150 696 -153 q 668 -143 675 -149 q 654 -132 661 -137 q 640 -121 647 -126 q 625 -114 633 -115 q 599 -75 610 -94 q 574 -36 589 -56 q 574 -33 574 -33 q 575 -31 575 -32 q 562 -10 568 -19 q 542 7 556 0 q 469 13 506 10 q 397 18 433 15 q 381 25 390 25 q 363 28 372 25 q 344 35 351 31 q 322 42 338 39 q 290 59 301 44 q 261 79 278 74 q 235 111 251 96 q 204 142 219 126 q 205 145 204 144 q 206 147 206 146 q 173 179 190 167 q 143 211 156 192 q 138 222 140 215 q 133 233 136 229 q 122 250 128 243 q 111 265 117 257 q 112 279 114 274 q 106 290 110 285 q 97 299 101 294 q 93 311 93 304 q 90 315 93 314 q 88 317 88 315 q 89 320 88 319 q 89 324 90 321 q 81 344 86 335 q 74 365 76 353 q 76 371 76 367 q 76 378 75 375 q 69 403 71 392 q 60 426 67 415 q 63 431 60 431 q 65 435 65 432 q 65 443 64 438 q 64 450 67 449 q 67 489 74 469 q 57 522 61 508 q 58 540 61 529 q 57 557 56 550 q 61 565 58 561 q 65 575 64 569 q 65 592 67 583 q 64 608 63 600 q 66 611 64 611 q 69 614 68 611 q 82 647 72 635 q 88 679 82 667 q 94 707 93 692 q 116 726 106 717 q 138 744 126 736 q 138 753 133 751 q 139 761 143 754 q 188 816 169 788 q 236 872 206 844 q 258 881 247 879 q 278 890 268 883 q 286 899 283 893 q 294 907 289 904 q 303 910 299 910 q 313 914 308 911 q 319 921 317 917 q 325 928 322 925 q 347 942 335 935 q 374 956 360 949 q 389 963 382 958 q 403 968 396 967 q 431 972 413 971 q 458 972 450 972 q 490 969 469 972 q 522 972 511 965 q 536 965 528 971 q 574 958 556 963 q 611 949 592 953 q 643 931 629 943 q 676 917 657 918 q 721 868 696 893 q 778 826 746 843 m 242 444 q 251 418 244 426 q 256 388 257 410 q 263 376 258 381 q 268 361 268 371 q 257 352 261 357 q 256 339 253 347 q 264 317 258 328 q 274 294 269 306 q 278 282 276 288 q 285 274 279 276 q 324 278 310 265 q 347 301 338 290 q 381 322 367 308 q 414 339 394 336 q 426 339 421 340 q 439 339 432 338 q 465 347 454 342 q 493 350 476 353 q 525 343 508 346 q 553 332 542 340 q 559 325 557 329 q 565 318 561 321 q 571 317 568 317 q 576 315 574 317 q 610 285 594 303 q 646 267 625 267 q 677 286 663 268 q 694 314 692 304 q 694 319 696 317 q 693 324 693 321 q 696 326 693 325 q 699 328 699 326 q 698 331 700 331 q 697 333 696 332 q 708 353 700 344 q 704 378 715 361 q 708 407 706 397 q 715 432 711 417 q 711 447 711 438 q 713 464 711 456 q 715 481 714 472 q 711 494 715 489 q 713 500 710 500 q 715 506 717 500 l 715 544 q 708 557 708 549 q 710 576 708 565 q 713 597 713 586 q 707 618 713 608 q 709 638 710 625 q 704 656 708 651 q 703 681 706 671 q 696 699 700 690 q 688 715 692 707 q 685 736 685 724 q 683 740 685 739 q 679 743 681 740 q 682 753 682 744 q 652 804 668 781 q 619 854 636 828 q 607 863 611 857 q 599 874 603 868 q 589 883 594 879 q 571 886 583 888 q 535 900 556 894 q 491 908 514 906 q 445 908 468 910 q 404 900 422 907 q 386 885 399 889 q 367 872 374 882 q 348 849 358 861 q 328 826 338 838 q 313 803 319 815 q 306 779 306 792 q 291 762 297 771 q 288 738 285 753 q 277 716 281 731 q 278 683 274 701 q 266 667 271 676 q 264 640 261 658 q 256 610 257 629 q 260 599 261 604 q 257 587 260 593 q 250 574 254 581 q 244 563 246 568 q 247 537 242 547 q 254 514 251 526 q 244 500 246 508 q 244 482 243 492 q 245 463 244 472 q 242 444 246 453 m 394 139 q 407 119 400 126 q 433 107 414 113 q 444 101 439 104 q 453 96 449 97 q 465 97 460 94 q 476 100 469 99 q 490 99 483 100 q 503 100 496 99 q 534 114 522 103 q 558 136 546 125 q 560 148 557 143 q 565 161 563 153 q 556 195 560 181 q 554 229 551 210 q 526 257 540 243 q 492 274 513 271 q 447 273 464 278 q 420 259 431 268 q 403 239 410 250 q 392 218 397 228 q 393 215 392 215 q 394 211 394 214 q 389 203 388 207 q 391 184 397 192 q 382 167 385 176 q 388 151 386 156 q 394 139 390 147 z "},"R":{"ha":976,"x_min":56,"x_max":925,"o":"m 306 960 q 358 967 329 963 q 410 967 386 972 q 433 970 421 971 q 458 968 446 969 q 483 967 471 967 q 507 971 496 967 q 553 960 528 964 q 594 946 578 957 q 644 937 622 943 q 689 925 665 931 q 706 909 697 917 q 728 900 714 901 q 743 886 736 893 q 760 875 750 879 q 782 840 772 857 q 808 806 792 822 q 815 784 810 793 q 825 764 819 775 q 824 759 825 761 q 824 753 822 757 q 826 748 822 749 q 829 743 831 747 q 827 728 826 735 q 830 715 828 721 q 832 702 832 708 q 828 692 832 696 q 827 684 828 689 q 829 679 826 679 q 808 629 818 651 q 790 582 797 607 q 753 549 769 568 q 718 514 738 529 q 689 501 706 506 q 665 483 672 497 q 667 465 664 471 q 674 456 669 460 q 697 407 681 428 q 721 358 714 386 q 737 324 732 342 q 751 290 742 307 q 750 285 751 288 q 750 279 749 283 q 753 269 753 276 q 757 257 754 263 q 762 251 758 254 q 769 240 765 247 q 774 226 772 235 q 781 210 776 218 q 792 198 785 203 q 813 196 799 193 q 831 208 826 199 q 843 225 835 217 q 863 232 854 225 q 882 239 872 239 q 904 226 897 239 q 918 206 911 213 q 915 192 915 197 q 918 140 925 167 q 901 97 911 113 q 901 90 903 94 q 903 85 900 86 q 891 56 896 71 q 867 26 886 40 q 847 17 858 21 q 824 6 835 13 q 810 -4 817 1 q 797 -12 804 -10 q 784 -12 790 -14 q 772 -8 778 -10 q 715 -1 744 -6 q 675 21 686 4 q 674 26 674 24 q 674 31 675 28 q 655 47 665 42 q 633 64 644 53 q 617 106 628 88 q 594 146 606 125 q 596 170 599 160 q 590 189 593 181 q 585 205 588 197 q 589 221 583 213 q 589 248 588 233 q 583 269 590 263 q 586 283 585 276 q 585 297 588 290 q 583 301 585 300 q 581 304 581 301 q 578 332 578 318 q 565 354 578 346 q 542 402 564 378 q 479 433 519 426 q 438 443 457 436 q 390 444 419 450 q 361 422 371 439 q 340 394 351 406 l 340 311 q 344 297 343 304 q 340 285 346 290 q 340 278 340 282 q 342 272 339 274 q 339 238 332 254 q 349 206 346 221 q 347 188 346 199 q 347 169 347 178 q 358 140 354 151 q 374 115 363 129 q 408 100 392 108 q 442 83 425 92 q 461 60 457 74 q 460 35 465 47 q 440 14 454 22 q 408 6 426 6 q 393 6 400 6 q 376 6 386 7 q 365 5 371 6 q 351 6 358 4 q 326 7 339 7 q 299 10 313 7 q 250 10 274 13 q 238 6 243 8 q 228 1 233 3 q 212 4 218 1 q 193 10 206 7 q 140 8 165 13 q 90 10 115 4 q 72 19 79 13 q 57 32 64 26 q 65 60 57 49 q 86 79 74 71 q 113 96 99 88 q 140 114 128 104 q 153 132 146 125 q 165 150 161 139 q 165 158 167 154 q 168 165 163 163 q 168 172 167 168 q 167 176 169 176 q 172 207 174 193 q 166 233 169 221 q 160 258 163 246 q 165 285 158 271 q 165 292 164 288 q 163 297 165 296 q 169 320 169 304 q 163 343 169 336 q 165 369 165 354 q 163 396 165 385 q 172 427 169 407 q 169 467 174 447 q 175 483 175 472 q 169 499 175 493 q 176 541 171 518 q 169 583 181 564 q 172 590 172 585 q 172 597 171 594 q 169 603 172 603 q 167 608 165 603 q 169 644 169 624 q 167 679 169 664 q 175 708 171 690 q 169 739 179 725 q 172 745 172 740 q 172 753 171 750 q 167 779 168 764 q 165 810 165 794 q 155 833 160 821 q 143 854 150 844 q 136 863 140 858 q 128 871 132 868 q 113 875 121 875 q 97 878 106 875 q 72 901 85 885 q 57 926 58 917 q 63 946 56 933 q 83 964 71 958 q 99 966 90 967 q 119 967 108 965 q 157 972 135 969 q 199 971 179 974 q 220 962 213 968 q 247 960 228 956 q 277 966 258 963 q 306 960 296 969 m 543 543 q 568 551 554 546 q 590 564 582 557 q 611 593 606 575 q 619 622 617 611 q 628 635 628 628 q 635 650 629 642 q 635 656 636 654 q 633 661 633 658 q 648 686 644 667 q 643 721 651 706 q 645 727 646 722 q 646 735 644 732 q 630 784 639 763 q 611 825 621 806 q 595 837 601 829 q 581 851 589 844 q 564 863 574 858 q 538 864 554 867 q 524 877 533 874 q 502 881 514 881 q 477 881 490 882 q 453 882 464 881 q 438 885 447 882 q 422 886 429 888 q 392 868 408 882 q 360 854 376 854 q 350 843 353 847 q 343 835 347 839 q 344 824 346 826 q 340 817 343 822 q 340 779 340 799 q 342 744 339 760 q 335 728 335 742 q 338 708 335 715 q 332 690 331 704 q 338 672 333 676 q 336 608 333 640 q 350 565 339 576 q 369 556 361 561 q 388 546 378 551 q 419 542 401 544 q 453 539 436 540 q 487 540 471 538 q 514 550 503 542 q 527 543 521 546 q 543 543 533 540 z "},"S":{"ha":800,"x_min":56,"x_max":744,"o":"m 668 839 q 671 834 668 835 q 674 829 674 833 q 669 760 671 799 q 669 694 667 722 q 660 668 663 683 q 653 640 658 653 q 638 620 649 626 q 606 622 628 614 q 567 681 579 653 q 533 739 556 710 q 527 758 536 751 q 508 776 518 765 q 503 786 506 781 q 499 796 501 792 q 478 815 490 807 q 453 832 465 822 q 428 856 440 843 q 394 871 417 868 q 370 874 381 867 q 347 881 360 881 q 334 879 340 882 q 317 875 328 876 q 303 869 310 874 q 289 861 296 865 q 269 849 279 854 q 249 838 258 844 q 218 805 228 824 q 201 774 208 786 q 201 757 203 767 q 207 746 200 747 q 222 692 210 714 q 267 656 235 671 q 288 652 281 657 q 306 646 294 647 q 331 628 315 635 q 363 617 346 621 q 397 608 381 613 q 429 596 414 603 q 471 585 454 594 q 507 569 488 576 q 546 557 532 568 q 574 535 560 546 l 597 535 l 606 526 q 618 501 607 511 q 640 478 629 492 q 673 460 661 471 q 693 435 685 449 q 707 408 701 422 q 721 382 713 394 q 726 356 719 367 q 732 329 733 346 q 734 324 731 324 q 738 318 738 324 q 735 315 735 318 q 736 308 736 311 q 742 276 743 296 q 744 235 742 256 q 742 230 744 231 q 739 226 739 229 q 738 207 740 214 q 732 193 736 200 q 733 178 732 182 q 723 155 725 167 q 714 132 721 143 q 690 104 703 115 q 676 74 676 93 q 639 49 658 60 q 604 21 619 38 q 578 15 590 24 q 553 4 565 7 q 541 4 547 3 q 529 4 535 6 q 509 -1 518 3 q 492 -6 500 -6 q 481 -2 486 -6 q 469 1 476 1 q 457 -3 463 1 q 444 -8 451 -8 q 410 -3 425 -11 q 375 11 394 6 q 335 17 351 8 q 300 28 319 25 q 295 28 297 29 q 290 28 293 26 q 272 37 279 32 q 258 47 265 42 q 242 54 251 51 q 219 56 233 57 q 207 53 215 54 q 194 49 199 51 q 188 42 190 46 q 182 35 185 38 q 170 30 176 32 q 158 25 164 28 q 140 11 149 18 q 119 1 132 4 q 63 67 58 14 q 58 96 56 75 q 57 131 61 117 q 58 135 56 135 q 63 139 61 136 q 61 153 63 147 q 65 163 60 160 q 65 171 64 165 q 64 178 67 176 q 65 183 63 182 q 69 186 68 183 q 69 247 68 215 q 67 306 69 278 q 69 310 67 308 q 72 314 72 311 q 80 351 71 340 q 104 378 89 363 q 125 378 113 376 q 144 374 138 379 q 160 356 151 369 q 172 332 169 342 q 174 324 175 329 q 175 317 174 319 q 191 295 181 303 q 210 275 201 288 q 216 261 214 269 q 222 246 218 253 q 239 229 229 235 q 257 213 249 224 q 285 193 275 207 q 295 181 289 188 q 308 165 301 174 q 323 143 318 154 q 349 132 328 132 q 368 124 358 128 q 386 115 378 121 q 413 113 401 117 q 428 115 419 115 q 443 113 436 114 q 465 115 458 108 q 483 125 472 122 q 513 129 499 129 q 539 136 526 129 q 552 147 544 139 q 567 163 560 154 q 579 178 574 171 q 588 189 585 185 q 593 194 590 193 q 596 197 596 196 q 597 206 597 200 q 597 214 596 211 q 601 216 599 215 q 603 218 603 217 q 603 224 604 221 q 606 229 601 226 l 606 254 q 601 261 607 258 q 591 301 599 286 q 568 333 583 315 q 531 349 547 339 q 499 370 515 360 q 465 390 483 381 q 425 401 447 399 q 412 410 421 411 q 392 411 403 408 q 380 417 385 413 q 369 425 375 422 q 347 433 358 431 q 329 444 336 435 q 240 476 281 457 q 168 522 200 494 l 160 522 q 150 533 153 526 q 143 547 147 540 q 125 564 136 557 q 107 581 114 571 q 98 606 100 592 q 88 631 96 619 q 89 635 88 633 q 89 642 90 638 q 81 660 88 649 q 74 682 75 672 q 76 713 72 696 q 74 749 79 731 q 77 756 78 751 q 78 765 76 760 q 79 767 78 767 q 82 768 81 767 q 81 772 83 771 q 81 775 79 772 q 92 794 85 786 q 97 815 100 803 q 101 820 104 817 q 100 826 99 824 q 121 860 107 844 q 146 892 135 875 q 160 905 151 900 q 179 915 169 910 q 198 927 189 921 q 213 942 207 933 q 236 947 225 944 q 256 956 247 949 q 297 958 275 957 q 336 956 318 958 q 354 955 344 953 q 369 958 364 957 q 403 957 388 963 q 436 949 419 951 q 447 949 442 947 q 457 949 451 950 q 467 942 464 946 q 475 935 469 938 q 498 925 483 929 q 524 918 513 921 q 540 917 535 915 q 557 921 546 919 q 569 922 564 922 q 581 921 575 921 q 605 931 593 924 q 628 935 617 938 q 652 915 639 932 q 667 886 665 897 q 665 876 667 881 q 665 867 664 872 q 669 855 667 861 q 668 839 671 849 z "},"T":{"ha":960,"x_min":56,"x_max":906,"o":"m 881 624 q 863 628 869 624 q 851 642 856 633 q 844 659 847 650 q 839 675 840 668 q 819 738 828 706 q 793 796 810 769 q 741 842 772 828 q 678 876 710 856 q 642 883 661 881 q 605 884 622 886 q 573 874 588 882 q 551 847 558 865 q 540 776 540 819 q 542 696 539 733 q 544 624 543 664 q 546 540 546 583 q 544 453 547 496 q 542 369 540 410 q 541 285 543 332 q 542 195 539 239 q 558 117 544 151 q 603 71 571 83 q 647 63 622 63 q 690 53 671 64 q 703 40 696 50 q 707 22 710 31 q 700 15 707 19 q 684 6 693 10 q 667 -2 675 1 q 654 -6 658 -6 q 631 -2 643 -6 q 605 7 618 1 q 578 16 592 13 q 551 19 565 19 q 533 15 543 19 q 513 6 524 10 q 491 3 503 3 q 467 13 479 4 q 437 6 453 4 q 400 7 421 8 q 370 1 385 7 q 342 -6 356 -6 q 326 -2 335 -6 q 310 3 318 1 q 290 -2 299 3 q 274 -6 281 -7 q 253 10 263 -3 q 254 39 243 24 q 272 42 261 46 q 289 33 282 39 q 301 43 297 35 q 318 56 306 51 q 334 57 325 58 q 351 58 343 56 q 374 76 363 63 q 395 107 386 89 q 410 147 404 125 q 415 190 415 169 q 410 229 414 210 q 403 268 406 249 q 404 334 400 299 q 406 404 408 369 q 401 471 403 440 q 400 536 399 501 q 406 562 401 550 q 410 585 410 574 q 408 601 411 592 q 406 621 406 611 q 406 660 404 640 q 408 701 408 681 q 404 723 407 713 q 400 744 401 733 q 399 779 399 761 q 399 814 400 797 q 394 844 397 831 q 383 867 392 858 q 351 881 372 879 q 308 880 331 883 q 265 869 285 876 q 238 854 246 861 q 230 843 232 850 q 222 831 228 836 q 210 825 215 828 q 196 821 204 822 q 158 744 172 790 q 132 653 144 697 q 117 611 126 631 q 92 592 107 592 q 70 603 76 592 q 63 631 64 615 q 63 663 61 647 q 64 689 64 679 q 62 749 64 718 q 58 811 60 781 q 56 872 56 842 q 63 928 56 901 q 93 942 75 940 q 131 944 111 944 q 169 943 150 943 q 203 950 188 943 q 217 944 210 947 q 232 940 225 940 q 250 945 242 940 q 267 950 258 950 q 280 945 274 950 q 293 940 286 940 q 303 942 297 939 q 315 944 310 944 q 328 942 322 944 q 339 940 333 940 q 376 944 358 940 q 413 947 393 949 q 431 943 422 946 q 449 940 440 940 q 487 946 468 940 q 525 940 506 951 q 547 949 536 946 q 574 944 558 951 q 594 951 582 949 q 618 954 606 954 q 641 951 631 954 q 658 942 651 949 q 684 944 672 949 q 707 940 696 939 q 722 945 715 940 q 736 951 728 950 q 749 951 743 953 q 761 950 756 949 q 808 962 785 951 q 861 961 832 972 q 881 943 875 956 q 890 914 888 931 q 890 878 892 897 q 888 840 889 858 q 895 765 885 797 q 903 699 906 732 q 892 661 900 683 q 881 624 885 639 z "},"U":{"ha":1024,"x_min":56,"x_max":968,"o":"m 874 285 q 866 272 869 278 q 860 258 863 265 q 858 253 858 256 q 856 249 857 251 q 853 235 854 242 q 851 222 853 229 q 842 202 847 211 q 833 183 838 193 q 832 164 832 174 q 831 146 832 154 q 818 122 824 133 q 806 99 813 110 q 785 84 794 92 q 767 68 775 76 q 758 58 763 63 q 749 49 754 53 q 738 39 743 43 q 728 31 733 35 q 713 24 721 28 q 699 19 706 21 q 688 17 692 18 q 678 13 683 15 q 673 10 675 11 q 668 8 671 10 q 657 7 663 7 q 646 6 651 7 q 637 1 642 3 q 626 -4 632 -1 q 607 -12 621 -7 l 517 -12 q 513 -12 514 -12 q 511 -11 513 -11 q 497 -6 500 -6 q 486 -10 494 -6 q 465 -8 474 -14 q 454 -4 463 -7 q 442 -4 449 -4 q 429 -3 436 -4 q 414 1 419 -3 q 408 3 411 3 q 403 6 406 4 q 390 8 396 7 q 376 10 383 8 q 357 18 367 14 q 339 29 347 22 q 321 40 332 36 q 297 53 308 47 q 275 68 285 58 q 270 72 272 71 q 265 74 268 72 q 257 80 261 76 q 250 89 253 83 q 235 111 244 101 q 219 132 226 121 q 206 156 213 144 q 192 178 200 167 q 188 183 189 181 q 186 188 188 185 q 185 198 185 193 q 183 208 185 203 q 179 221 183 215 q 172 233 175 226 q 167 242 169 238 q 163 253 165 247 l 163 274 q 160 290 163 282 q 156 304 158 297 q 158 313 157 308 q 160 321 160 317 q 163 348 163 335 q 163 375 163 361 q 162 407 163 390 q 164 440 161 424 q 171 460 165 446 q 171 517 174 489 q 167 526 168 522 q 164 535 167 529 q 163 563 164 549 q 163 592 163 576 q 165 597 165 597 q 170 610 168 604 q 168 622 172 615 q 167 625 167 624 q 165 628 167 626 q 167 653 160 640 q 167 668 172 660 q 165 678 163 672 q 167 683 165 682 q 172 704 172 699 q 167 725 172 710 q 171 740 169 732 q 172 756 172 747 l 172 776 q 168 784 169 781 q 164 793 167 788 q 162 810 163 801 q 161 828 161 819 q 149 847 154 842 q 140 861 142 854 q 122 881 138 871 q 99 892 110 888 q 86 898 92 894 q 75 904 81 901 q 64 915 69 907 q 60 923 61 919 q 57 931 58 926 q 56 940 56 933 q 62 953 58 947 q 69 963 65 958 q 74 965 72 965 q 79 967 76 967 q 85 968 82 967 q 149 968 117 968 q 214 967 182 968 q 247 967 231 967 q 279 968 263 967 q 292 967 286 968 q 306 967 299 967 q 317 965 313 967 q 324 963 321 964 q 332 958 328 961 q 372 958 351 957 q 411 957 392 958 l 436 944 q 444 934 442 942 q 443 921 446 926 q 432 908 439 913 q 410 898 421 903 q 388 892 400 893 q 374 883 379 889 q 363 872 369 876 q 351 864 357 868 q 340 856 346 860 q 331 842 336 849 q 324 826 326 836 q 323 785 324 807 q 322 743 322 764 q 321 738 321 740 q 319 732 321 735 q 319 696 310 714 q 321 681 322 689 q 315 667 318 675 q 313 633 313 649 q 314 600 313 617 q 315 588 314 592 q 322 571 315 585 q 326 533 325 551 q 324 494 326 514 q 323 479 322 488 q 324 463 324 471 q 324 449 324 456 q 321 436 324 443 q 314 422 319 431 q 315 397 311 408 q 322 374 318 385 q 322 350 322 363 q 324 326 322 338 q 326 302 325 314 q 326 278 326 290 q 329 267 326 275 q 335 247 335 257 q 343 226 336 236 q 346 217 346 224 q 351 201 346 210 q 356 190 356 196 q 360 176 357 183 q 400 133 374 151 q 417 121 408 126 q 435 108 426 115 q 450 103 439 106 q 458 101 454 103 q 465 97 461 100 q 486 93 474 93 q 497 92 492 93 q 507 89 501 92 q 509 88 508 89 q 511 88 510 88 q 521 90 515 88 q 538 90 529 92 q 563 83 550 83 q 590 83 576 82 q 606 88 597 83 q 615 92 611 90 q 644 98 631 94 q 672 106 657 101 q 690 119 682 113 q 708 131 697 125 q 719 140 714 132 q 731 156 725 149 q 742 171 736 164 q 747 181 744 176 q 751 190 749 186 q 758 199 754 194 q 764 208 761 203 q 767 218 767 214 q 776 254 767 235 q 777 263 776 258 q 778 269 778 267 q 778 275 778 272 q 779 281 779 278 q 786 296 785 288 q 788 309 788 303 q 789 322 788 315 q 794 343 789 333 q 793 364 799 354 q 793 383 789 374 q 795 389 794 386 q 797 396 796 392 l 797 486 q 797 502 797 494 q 797 518 796 510 q 799 572 800 546 q 796 625 799 599 q 793 636 793 633 q 792 651 789 643 q 797 672 797 665 q 797 686 797 679 q 799 700 797 693 q 799 747 801 724 q 797 772 797 760 q 797 797 797 785 q 790 814 794 806 q 782 831 786 822 q 750 872 768 857 l 746 876 q 727 896 733 883 q 714 919 721 908 q 714 924 714 919 q 715 927 714 926 q 715 929 715 928 q 731 944 722 938 q 750 954 744 950 q 786 954 769 963 q 796 951 793 950 q 813 954 810 954 q 822 951 815 954 q 838 950 829 947 q 845 953 842 951 q 853 956 849 954 q 864 956 858 957 q 873 952 868 953 q 882 949 878 951 q 913 947 897 947 q 943 947 928 947 q 960 938 956 947 q 964 930 963 933 q 968 922 965 926 l 968 918 q 963 908 965 913 q 958 897 961 903 q 921 860 940 878 q 886 818 901 842 l 882 781 q 874 762 878 771 q 864 742 869 753 l 864 704 q 864 648 864 676 q 865 590 864 619 q 867 583 867 588 q 871 575 868 579 q 869 550 876 564 q 865 539 868 547 q 864 457 865 499 q 867 374 863 415 q 874 353 868 367 l 874 285 z "},"V":{"ha":936,"x_min":56,"x_max":881,"o":"m 169 781 q 163 815 174 803 q 140 838 151 826 q 136 847 138 842 q 131 857 135 851 q 109 878 121 869 q 86 894 97 886 q 67 914 75 903 q 56 942 58 925 q 69 960 61 953 q 86 974 78 967 q 97 974 93 975 q 104 971 100 972 q 117 974 111 971 q 133 974 124 976 q 153 984 140 982 q 178 985 165 986 q 205 982 192 983 q 226 982 218 981 q 278 979 251 978 q 331 981 306 981 q 378 978 356 982 q 421 961 401 975 q 400 890 433 921 q 374 874 389 881 q 356 849 360 867 q 356 806 351 828 q 360 760 361 785 q 367 747 363 753 q 376 736 372 742 q 378 708 374 719 q 385 685 382 696 q 386 672 388 678 q 386 658 385 665 q 394 642 389 649 q 401 626 399 635 q 406 599 406 613 q 418 575 407 585 q 420 547 414 556 q 432 526 426 538 q 435 511 435 519 q 438 496 435 503 q 442 491 439 493 q 444 486 444 489 q 457 442 451 464 q 481 410 463 421 q 501 413 492 408 q 515 424 510 417 q 520 435 518 428 q 526 450 522 443 q 543 471 535 463 q 554 492 551 479 q 560 526 557 511 q 575 550 563 542 q 580 586 583 568 q 582 621 576 604 q 596 649 586 636 q 614 676 606 663 q 619 711 614 696 q 631 739 624 726 q 628 769 622 754 q 640 794 633 785 q 624 853 638 829 q 579 885 611 876 q 572 899 576 893 q 564 911 567 904 q 565 936 567 925 q 568 957 563 947 q 595 973 574 965 q 635 983 617 981 q 649 983 642 985 q 664 983 657 982 q 679 990 675 986 q 693 992 683 994 q 714 990 704 989 q 731 994 724 992 q 781 991 756 993 q 826 983 806 989 q 862 965 847 978 q 881 931 876 953 q 868 914 878 917 q 844 903 858 911 q 831 889 835 896 q 813 882 826 882 q 784 855 799 867 q 756 828 769 843 q 737 791 751 808 q 719 749 722 774 q 710 738 713 746 q 700 726 707 729 q 700 713 704 719 q 699 694 696 706 q 690 678 692 688 q 686 658 688 668 q 682 640 685 649 q 671 626 679 632 q 651 554 664 586 q 626 485 638 522 q 627 479 625 479 q 631 476 629 479 q 624 456 629 465 q 615 439 618 447 l 615 433 q 617 431 615 432 q 608 411 613 418 q 601 388 604 404 q 598 374 601 381 q 590 362 594 368 q 583 349 586 356 q 582 335 581 343 q 568 296 574 315 q 551 261 563 276 q 553 235 551 247 q 551 210 556 224 q 544 199 549 204 q 538 188 540 194 q 538 182 536 185 q 538 176 539 179 q 520 148 531 161 q 507 122 510 135 q 507 108 506 115 q 507 94 508 101 q 494 71 504 81 q 486 46 485 61 q 470 28 479 38 q 451 11 461 18 q 428 4 440 4 q 406 17 417 4 q 401 26 401 21 q 397 40 400 32 q 376 88 392 64 q 356 136 361 113 q 356 147 356 142 q 353 153 357 151 q 353 175 356 165 q 347 193 351 185 q 338 209 342 201 q 332 225 333 217 q 333 240 331 232 q 333 256 335 247 q 326 272 332 264 q 318 289 321 281 q 319 306 321 299 q 315 319 318 313 q 307 331 311 325 q 301 342 303 336 q 299 374 299 357 q 296 401 300 390 q 283 424 290 413 q 275 446 276 435 q 276 463 274 454 q 275 481 278 472 q 266 497 272 490 q 253 511 260 504 q 242 526 247 518 q 240 544 238 533 q 233 567 239 549 q 218 610 226 585 q 201 663 210 635 q 185 715 192 690 q 173 758 178 740 q 169 781 168 776 z "},"W":{"ha":1372,"x_min":56,"x_max":1317,"o":"m 428 958 q 442 926 447 938 q 422 908 438 915 q 389 893 407 900 q 363 875 371 886 q 357 859 360 869 q 353 836 354 849 q 353 810 353 824 q 354 788 353 797 q 363 771 357 781 q 371 750 368 761 q 377 711 376 732 q 383 672 378 690 q 394 652 388 661 q 404 632 401 643 q 413 588 413 610 q 418 543 414 565 q 433 507 422 522 q 454 467 444 492 q 463 438 460 454 q 472 406 467 421 q 483 381 476 392 q 500 369 489 369 q 522 387 514 368 q 533 417 529 406 q 555 477 546 446 q 575 540 564 508 q 588 570 581 556 q 600 600 596 585 q 602 639 603 619 q 607 674 601 658 q 622 703 613 690 q 633 726 631 715 q 639 792 640 756 q 624 846 638 828 q 610 856 618 853 q 592 867 603 858 q 581 881 585 872 q 571 893 576 889 q 561 897 568 894 q 547 904 554 900 q 533 913 539 908 q 525 925 526 918 q 538 953 522 944 q 577 966 554 963 q 624 972 600 969 q 663 978 649 974 q 722 967 690 969 q 783 966 753 965 q 842 966 814 967 q 894 958 871 965 q 892 928 899 939 q 879 911 886 918 q 865 906 872 907 q 850 901 857 904 q 822 878 838 894 q 803 853 806 863 q 803 829 799 842 q 810 800 807 817 q 810 785 811 793 q 810 769 808 776 q 822 721 813 746 q 836 669 831 696 q 842 642 839 654 q 850 619 844 631 q 861 598 854 608 q 871 576 868 588 q 879 534 878 556 q 886 493 881 513 q 896 458 890 479 q 911 419 901 438 q 934 386 921 400 q 965 374 947 372 q 988 394 985 376 q 1000 432 992 411 q 1019 477 1007 453 q 1039 526 1031 501 q 1058 585 1049 554 q 1076 646 1067 615 q 1083 676 1081 661 q 1089 708 1086 692 q 1097 740 1092 725 q 1106 769 1103 756 q 1104 837 1108 804 q 1079 885 1100 869 q 1064 893 1072 890 q 1049 899 1056 896 q 1036 908 1042 903 q 1029 922 1031 913 q 1047 960 1025 947 q 1097 975 1068 972 q 1115 973 1106 975 q 1131 972 1124 971 q 1165 978 1147 974 q 1200 969 1183 982 q 1230 976 1211 975 q 1267 972 1249 976 q 1300 960 1286 968 q 1315 938 1314 951 q 1300 908 1317 921 q 1274 888 1283 894 q 1239 865 1254 872 q 1213 840 1224 858 q 1206 822 1208 833 q 1200 800 1204 810 q 1187 774 1193 788 q 1174 746 1181 761 q 1163 715 1167 731 q 1153 685 1158 700 q 1125 620 1140 651 q 1106 569 1110 589 q 1104 548 1103 558 q 1103 529 1106 538 q 1092 508 1100 518 q 1081 488 1085 499 q 1060 411 1068 450 q 1039 335 1053 372 q 1030 317 1036 325 q 1021 300 1024 310 q 1018 282 1018 292 q 1015 264 1018 272 q 999 221 1008 243 q 981 174 989 199 q 976 153 978 163 q 971 132 974 143 q 963 114 968 122 q 954 97 957 106 q 949 71 951 86 q 941 41 946 56 q 927 16 936 26 q 904 6 918 6 q 881 17 893 6 q 858 44 869 28 q 839 81 847 61 q 828 117 831 100 q 828 139 826 126 q 828 167 831 151 q 822 191 826 176 q 813 221 818 206 q 803 250 808 236 q 797 274 799 264 q 788 340 790 307 q 774 406 785 374 q 761 426 769 417 q 750 447 753 436 q 746 468 747 457 q 742 490 744 479 q 731 510 738 501 q 718 532 724 519 q 710 554 713 543 q 702 572 707 565 q 690 579 697 578 q 668 572 682 581 q 654 556 660 568 q 644 527 649 543 q 636 494 640 511 q 628 464 632 478 q 610 426 621 439 q 592 393 599 413 q 581 341 582 368 q 574 288 579 314 q 560 253 569 269 q 544 219 550 238 q 530 153 535 185 q 520 92 525 121 q 506 38 515 64 q 475 -8 496 13 q 430 10 446 -8 q 405 56 414 29 q 390 115 396 83 q 378 171 385 146 q 370 190 375 182 q 363 208 365 199 q 358 237 358 222 q 351 267 357 251 q 340 291 347 279 q 331 314 333 303 q 330 332 328 322 q 331 350 332 342 q 317 393 328 374 q 299 435 306 413 q 295 456 296 446 q 292 476 294 467 q 281 498 288 488 q 271 519 274 508 q 265 555 265 536 q 260 590 264 574 q 240 630 253 611 q 221 669 228 649 q 212 710 214 689 q 204 750 210 731 q 197 768 201 760 q 189 785 192 776 q 186 802 186 793 q 183 819 186 811 q 155 856 176 839 q 113 882 133 874 q 97 884 104 885 q 83 888 90 883 q 65 908 74 893 q 57 932 56 924 q 66 945 57 938 q 88 960 75 953 q 113 974 100 968 q 136 979 126 979 q 158 974 147 979 q 181 967 168 968 q 201 969 190 965 q 221 972 211 972 q 240 965 232 971 q 257 958 249 960 q 293 965 276 957 q 328 975 310 972 q 354 973 342 976 q 378 965 367 969 q 403 958 390 961 q 428 958 415 956 z "},"X":{"ha":1032,"x_min":56,"x_max":978,"o":"m 935 981 q 965 965 951 978 q 975 935 978 953 q 959 913 972 919 q 936 893 946 906 q 920 888 925 894 q 904 885 915 882 q 844 847 874 865 q 792 800 815 828 l 792 792 q 779 768 785 781 q 768 742 774 756 q 734 707 749 726 q 713 660 719 688 q 674 608 692 636 q 642 549 656 581 q 639 547 639 550 q 636 546 639 544 q 628 529 632 535 l 632 525 q 628 515 631 518 q 624 504 625 511 q 642 468 635 488 q 665 438 650 449 q 690 373 674 401 q 725 318 707 344 q 760 265 743 292 q 789 206 778 239 q 809 170 800 189 q 828 134 818 151 q 850 102 838 117 q 882 79 863 88 q 919 80 904 76 q 956 78 935 83 q 963 53 963 71 q 960 25 963 36 q 940 17 951 18 q 917 17 928 17 q 896 15 906 17 q 881 3 886 13 q 851 6 865 7 q 822 3 836 6 q 793 -2 807 0 q 765 -1 779 -4 q 731 10 747 1 q 697 18 715 18 q 660 16 678 19 q 624 11 643 13 q 608 22 615 17 q 593 35 600 28 q 608 68 597 54 q 643 81 618 82 q 648 105 649 93 q 657 128 647 117 q 626 195 644 163 q 579 253 607 228 q 562 303 574 275 q 534 349 550 331 q 498 371 518 368 q 454 346 478 374 q 426 309 443 332 q 406 275 410 286 q 403 263 403 268 q 403 254 404 257 q 381 211 393 232 q 360 169 368 190 q 350 126 351 149 q 363 79 349 104 q 383 63 369 67 q 401 47 396 58 q 394 31 400 36 q 385 18 389 25 q 264 8 328 8 q 151 21 200 8 q 149 26 151 26 q 154 51 147 42 q 172 66 161 60 q 193 76 182 72 q 213 86 204 81 q 236 113 226 97 q 265 131 246 129 q 306 208 281 175 q 354 276 331 242 q 353 283 356 282 q 351 292 350 285 q 398 356 379 319 q 436 426 417 392 q 431 450 435 439 q 419 468 428 461 q 421 478 421 469 q 413 497 415 488 q 403 515 410 506 q 388 532 396 524 q 376 550 381 540 q 374 558 374 554 q 374 567 375 563 q 365 581 371 574 q 353 594 358 588 q 350 611 353 604 q 343 624 347 618 q 335 638 339 631 q 331 656 331 644 q 317 680 324 668 q 300 700 310 692 q 295 716 303 710 q 283 729 288 722 q 276 748 278 738 q 267 764 275 758 q 263 781 269 776 q 254 796 256 785 q 238 815 244 804 q 225 835 232 825 q 208 851 218 844 q 185 861 199 858 q 176 867 182 865 q 168 871 171 868 q 140 876 150 868 q 113 890 131 885 q 108 891 110 892 q 103 890 106 890 q 76 903 89 893 q 61 918 64 914 q 57 935 58 925 q 58 950 56 944 q 71 966 61 961 q 90 978 81 971 q 129 980 110 976 q 168 981 149 983 q 181 978 176 979 q 193 978 186 976 q 217 983 203 979 q 249 983 232 986 q 262 989 251 989 q 276 983 272 989 q 317 983 297 985 q 349 974 336 981 q 371 982 360 981 q 393 974 382 983 q 416 976 407 979 q 440 967 425 974 q 464 954 451 961 q 474 929 476 947 q 466 916 472 922 q 453 907 460 910 q 434 888 443 900 q 410 875 425 876 q 400 837 400 856 q 407 801 400 818 q 416 787 411 793 q 424 769 421 781 q 436 744 426 756 q 447 721 446 733 q 465 701 458 714 q 479 676 471 688 l 479 664 q 497 634 490 651 q 519 606 504 617 q 522 605 521 604 q 526 604 524 606 q 536 597 532 601 q 550 592 540 592 q 572 598 558 592 q 592 608 585 604 q 621 641 610 621 q 643 678 632 661 q 643 684 644 682 q 642 689 642 686 q 664 724 653 708 q 679 764 675 739 q 698 791 694 772 q 713 824 701 810 l 713 847 q 711 851 713 850 q 708 854 710 851 q 710 861 711 857 q 710 869 708 865 q 699 888 706 881 q 686 904 692 894 q 664 915 671 906 q 646 931 657 924 q 651 959 642 951 q 676 969 661 967 q 706 972 690 971 q 731 981 721 974 q 756 982 742 981 q 781 981 771 983 q 835 977 803 976 q 896 981 867 978 q 935 981 918 983 z "},"Y":{"ha":1093,"x_min":56,"x_max":1038,"o":"m 913 935 q 947 935 931 935 q 981 933 964 935 q 990 929 986 931 q 997 926 993 928 q 1006 925 1001 925 q 1014 924 1010 925 q 1029 911 1024 919 q 1036 893 1038 903 l 1036 885 q 1033 876 1036 882 q 1015 861 1026 865 q 996 846 1004 854 q 990 841 993 843 q 982 836 986 839 q 974 832 978 835 q 964 828 969 829 q 952 824 957 826 q 940 819 947 822 q 935 818 938 818 q 929 818 932 818 l 921 814 q 908 808 914 811 q 897 799 903 804 q 879 781 889 789 q 872 776 878 779 q 869 774 871 775 q 867 772 868 774 q 855 756 861 763 q 842 743 849 750 q 828 728 835 736 q 817 711 822 721 q 811 706 815 707 q 799 699 804 703 q 788 693 793 696 q 785 692 785 692 q 783 690 783 692 q 774 671 778 681 q 765 655 769 663 q 757 639 761 647 q 749 620 753 629 q 738 603 744 611 q 733 596 735 600 q 729 589 732 592 q 724 579 726 583 q 718 571 721 575 q 706 556 710 560 q 701 550 703 553 q 699 544 700 547 q 690 531 696 538 q 681 517 685 524 q 674 508 678 513 q 668 501 671 504 q 653 486 660 494 q 647 476 650 481 q 640 465 644 471 q 628 451 633 460 q 625 440 625 444 q 624 429 625 435 q 620 420 622 425 q 618 410 618 415 q 617 393 617 404 q 615 389 615 390 q 614 386 615 388 q 610 375 611 378 q 607 340 607 357 q 607 306 607 322 q 603 293 604 299 q 600 281 601 288 q 600 264 600 272 q 601 247 600 256 q 606 236 604 242 q 607 224 608 231 l 607 167 q 607 150 607 158 q 610 133 607 142 q 614 124 613 128 q 618 114 615 119 q 622 107 619 113 q 634 94 628 100 q 647 81 640 88 q 654 76 653 78 q 664 72 660 74 q 674 68 668 71 q 688 67 681 67 q 701 63 694 67 q 708 64 706 61 q 713 65 710 65 q 729 64 722 68 q 744 57 736 61 q 758 50 751 53 q 769 43 765 47 q 778 35 774 39 q 781 15 785 25 q 769 3 779 7 q 760 -1 765 0 q 751 -6 756 -3 l 724 -6 q 710 0 715 -3 q 701 1 706 0 q 690 1 696 1 q 683 5 686 4 q 674 8 679 6 q 638 10 656 10 q 601 10 621 11 q 587 10 594 10 q 572 11 579 11 q 549 8 563 11 q 546 7 546 7 l 544 7 q 525 1 535 1 q 513 3 518 3 q 500 3 507 3 q 486 7 493 6 q 472 8 479 8 q 449 8 461 8 q 426 10 438 8 q 411 6 417 10 q 403 3 406 3 q 390 1 396 1 q 379 1 385 1 q 363 13 368 1 q 360 18 360 15 q 358 24 360 21 q 357 36 354 29 q 360 43 360 42 q 369 57 361 49 q 382 65 376 61 q 393 72 388 68 q 409 86 401 79 q 424 100 417 93 q 451 146 443 117 q 456 157 453 149 q 460 172 460 165 q 465 193 460 179 q 465 213 469 201 l 461 225 l 461 297 q 464 306 463 301 q 468 315 465 310 q 467 328 467 322 q 467 342 467 335 q 461 354 464 346 q 460 365 461 360 q 460 374 460 369 q 453 390 454 385 q 451 397 451 393 q 449 406 451 401 q 443 421 444 413 q 436 436 442 429 q 431 447 433 442 q 425 458 428 453 q 417 476 419 469 q 410 496 411 486 q 407 503 410 500 q 401 514 403 508 q 396 525 399 519 q 391 537 394 532 q 385 547 388 542 q 381 557 383 553 q 376 567 379 561 q 372 575 375 571 q 367 583 369 579 q 361 594 363 589 q 349 621 354 608 q 336 646 343 633 q 329 657 333 653 q 322 667 325 661 q 319 675 319 672 q 306 694 318 685 q 300 697 303 696 q 294 700 297 699 l 289 706 q 281 718 286 713 q 274 729 276 724 q 266 743 269 736 q 260 757 263 750 l 249 768 q 242 777 246 772 q 236 789 239 782 q 231 797 233 793 q 225 807 228 801 q 215 818 219 813 q 204 831 210 824 q 201 833 201 832 q 197 835 200 833 q 181 842 189 839 q 164 850 172 846 q 155 851 158 850 q 146 851 151 851 q 129 859 138 856 q 113 867 121 863 q 100 868 106 868 q 89 869 94 868 q 81 872 86 869 q 60 892 69 879 q 56 903 56 896 l 56 919 q 61 935 56 929 q 76 947 72 943 q 87 952 82 950 q 96 957 92 954 q 128 951 114 960 q 155 950 142 950 q 182 949 168 950 q 193 944 185 947 q 196 943 194 943 q 217 942 207 943 q 236 943 226 942 q 245 946 242 944 q 251 949 249 947 q 288 951 271 950 q 322 949 306 951 q 358 951 340 951 q 393 950 375 950 l 410 950 q 450 931 431 938 q 461 925 456 926 q 469 924 467 925 q 477 921 474 922 q 485 917 481 919 q 493 904 490 914 q 490 896 493 901 q 488 892 489 893 q 486 889 488 892 q 473 876 479 882 q 457 865 467 869 q 454 863 456 864 q 451 860 453 863 q 443 851 449 853 q 435 843 436 847 q 431 835 432 839 q 428 828 431 832 q 427 817 428 822 q 426 807 426 813 q 433 771 426 785 q 435 763 435 767 q 438 756 435 758 q 450 731 444 744 q 464 704 456 718 q 482 686 472 696 q 499 665 492 676 q 500 660 500 663 q 503 646 501 653 q 507 632 504 639 q 510 625 510 629 q 511 617 510 621 q 515 609 514 613 q 518 601 517 606 q 528 582 522 596 q 542 568 535 575 q 553 551 549 561 q 575 538 560 543 q 586 537 581 538 q 599 536 592 536 q 619 546 614 536 q 633 565 626 557 q 647 582 640 572 q 653 595 650 589 q 660 608 657 601 q 673 623 667 615 q 685 640 679 631 q 692 650 686 644 q 701 666 696 656 q 708 683 706 676 q 715 693 708 690 q 720 697 718 696 q 725 699 722 697 q 731 702 728 701 q 736 706 733 703 q 746 724 742 713 q 747 726 747 726 q 751 741 749 735 q 756 754 754 747 q 761 769 758 765 q 765 786 765 778 q 767 801 767 792 q 766 814 767 808 q 765 826 765 819 q 756 844 761 838 q 742 858 751 856 q 732 865 736 861 q 725 871 728 868 q 717 881 721 876 q 710 889 713 885 q 711 910 704 899 q 726 929 719 918 q 733 933 726 931 q 754 934 744 933 q 775 936 764 935 q 784 939 779 938 q 794 940 789 940 q 823 942 810 942 q 851 942 836 943 q 866 942 858 942 q 881 943 874 942 q 904 939 893 943 l 913 935 z "},"Z":{"ha":881,"x_min":54,"x_max":826,"o":"m 257 986 q 319 980 289 979 q 381 979 350 981 q 389 974 385 976 q 399 968 393 971 q 426 967 413 967 q 456 965 440 967 q 467 973 463 969 q 478 979 472 976 q 486 979 482 979 q 494 975 490 979 q 509 964 501 968 q 525 953 517 960 l 569 953 q 586 964 575 956 q 611 966 599 965 q 635 964 624 967 q 643 957 640 963 q 657 956 650 949 q 690 956 671 972 q 687 953 692 954 q 676 953 682 953 q 666 954 671 953 q 663 957 661 956 q 671 964 664 961 q 686 966 678 965 q 701 967 694 967 q 715 977 708 974 q 728 983 721 981 q 735 992 729 983 q 739 1006 736 994 q 757 1013 744 1018 q 783 989 769 1007 q 806 945 796 971 q 817 893 817 919 q 813 869 817 879 q 807 849 810 860 q 799 829 804 838 q 763 765 779 792 q 741 744 751 751 q 721 728 731 736 q 715 723 718 725 q 708 717 711 721 q 686 689 696 697 q 683 683 683 686 q 682 676 683 679 q 671 651 678 664 q 657 632 664 638 q 653 628 654 629 q 649 625 651 628 q 633 610 640 618 q 618 590 625 601 q 608 576 613 582 q 596 564 603 571 q 593 558 593 561 q 592 551 593 554 q 589 544 590 547 q 586 539 588 542 q 572 525 578 535 q 560 508 567 515 q 538 481 550 500 l 533 476 q 519 460 525 471 q 506 439 513 450 q 494 419 500 428 q 482 401 489 411 q 471 382 476 392 q 461 361 465 372 q 447 339 454 349 q 433 319 440 329 q 420 306 426 314 q 408 288 414 297 q 399 275 404 281 q 390 264 394 269 q 374 242 381 254 q 363 214 367 231 q 356 197 360 204 q 350 181 353 189 q 349 165 349 176 q 353 151 351 158 q 357 138 354 144 q 368 126 360 126 q 381 119 376 124 q 407 108 393 107 l 438 108 q 456 94 444 100 q 472 93 467 94 q 490 95 482 93 q 506 107 499 97 l 538 107 q 545 101 542 104 q 551 96 549 99 q 578 93 558 93 q 638 96 597 93 q 650 103 644 99 q 663 110 656 108 q 680 122 669 111 q 694 139 690 132 q 708 160 701 150 q 722 178 714 171 q 735 199 729 189 q 746 225 742 210 q 752 246 749 236 q 758 265 756 256 q 763 271 760 268 q 781 285 771 283 q 800 281 790 286 l 804 276 q 810 260 807 268 q 815 246 813 253 q 819 220 818 232 q 824 197 819 208 q 822 175 826 185 q 819 169 819 172 q 817 161 819 165 l 817 99 q 816 75 818 86 q 811 53 814 64 q 814 51 813 50 q 816 53 815 51 q 817 55 817 54 q 818 51 818 56 l 818 4 q 799 -3 818 0 q 755 -10 779 -7 q 709 -13 731 -12 q 683 -11 688 -14 q 665 3 671 -3 q 654 10 658 8 q 643 13 650 13 q 622 14 636 14 l 611 14 q 594 23 601 18 q 579 28 586 28 q 538 28 558 28 q 497 28 518 29 q 484 28 490 28 q 471 25 478 28 q 457 15 463 19 l 436 15 q 419 24 428 24 q 400 24 410 25 q 394 21 397 22 q 386 17 390 19 q 360 13 381 14 q 283 15 339 13 q 281 19 279 17 q 287 24 283 22 q 292 27 290 26 q 290 28 294 28 q 274 27 282 26 q 260 28 267 28 q 252 21 256 24 q 246 15 249 18 q 199 10 222 8 q 151 8 175 11 q 113 -3 135 -7 q 71 28 89 8 q 67 36 68 32 q 64 47 65 40 q 64 55 64 53 q 65 57 64 57 q 66 58 65 57 q 68 65 67 60 q 74 88 71 74 q 110 147 88 119 q 136 174 125 167 q 157 190 147 181 q 175 214 167 200 q 181 219 178 217 q 188 225 185 222 q 202 244 194 236 q 217 263 210 251 q 228 281 224 271 q 239 300 233 290 q 256 327 247 314 q 275 349 264 340 q 282 358 278 354 q 294 376 289 367 q 306 393 299 385 q 317 405 313 397 q 329 419 322 413 q 348 439 338 431 q 368 456 358 447 q 388 476 381 465 q 407 510 396 490 q 428 539 415 528 q 431 545 431 542 q 433 551 432 549 q 443 567 438 561 q 461 600 454 578 q 478 628 467 617 q 484 631 481 631 q 490 635 488 632 q 496 646 493 638 q 507 660 501 658 q 517 665 513 663 q 528 674 522 667 q 533 680 531 678 q 538 685 535 682 q 549 707 544 696 q 558 729 553 718 q 574 758 565 744 q 593 779 582 771 q 597 783 596 781 q 600 789 597 786 q 606 817 607 801 l 606 825 q 597 843 601 835 q 585 854 592 851 q 569 869 578 864 q 551 882 560 875 l 517 882 q 496 882 506 882 q 475 883 486 882 q 451 886 464 886 q 426 883 439 886 q 408 882 417 882 q 390 882 399 882 l 290 882 q 276 872 283 879 q 260 867 268 865 q 248 857 254 861 q 235 851 242 853 q 226 844 232 850 q 211 822 218 835 q 196 800 204 810 q 190 789 192 796 q 185 775 188 782 q 176 758 179 767 q 171 735 172 749 q 168 728 171 733 q 151 697 160 713 q 133 668 143 682 q 125 663 128 663 q 93 663 108 658 q 85 667 89 663 q 68 694 75 676 q 64 708 65 703 q 63 724 64 715 q 63 739 63 732 q 61 759 61 750 q 61 776 61 768 q 58 789 60 783 q 56 800 57 794 l 56 839 q 61 864 58 849 l 61 933 q 60 935 60 938 q 58 935 60 932 q 57 958 54 946 l 61 979 q 91 1000 61 996 q 157 1002 121 1004 q 224 994 193 1000 q 257 986 254 989 z "},"[":{"ha":486,"x_min":58,"x_max":432,"o":"m 69 -35 q 70 -30 69 -32 q 71 -25 71 -28 q 68 -18 71 -19 q 75 7 74 -6 q 78 22 78 14 q 78 39 78 31 q 78 56 78 47 q 75 71 78 64 q 68 96 74 83 q 71 119 71 103 q 70 133 71 126 q 69 147 69 140 q 69 158 69 150 q 67 182 68 167 q 66 215 67 197 q 65 251 65 232 q 66 288 65 271 q 67 319 67 304 q 69 356 67 350 q 70 373 69 364 q 71 392 71 382 q 71 410 71 401 q 68 426 71 419 q 74 467 74 438 l 74 535 q 73 570 74 553 q 71 603 72 588 q 69 630 69 619 q 68 644 68 640 q 75 669 75 650 q 68 694 75 689 q 71 710 71 699 q 68 726 71 722 q 75 753 75 732 q 72 783 75 769 q 78 801 78 789 q 72 822 78 817 q 74 860 76 838 l 74 901 q 68 921 71 915 q 67 943 67 926 q 63 989 67 961 q 58 1042 58 1015 q 68 1083 58 1064 q 101 1097 76 1100 q 116 1098 110 1097 q 129 1100 122 1099 q 157 1100 142 1103 q 169 1094 167 1097 q 178 1090 174 1090 q 194 1092 189 1088 q 213 1097 201 1094 q 224 1096 218 1097 q 233 1096 228 1096 q 243 1094 238 1096 q 264 1093 258 1094 l 275 1093 q 321 1099 299 1093 q 360 1100 346 1104 q 375 1086 372 1097 q 379 1064 379 1075 q 357 1043 375 1053 q 341 1036 349 1040 q 325 1029 333 1032 q 301 1021 317 1021 q 287 1021 294 1021 q 272 1022 279 1021 q 258 1024 265 1024 q 244 1024 251 1024 q 228 1015 232 1024 q 224 938 226 985 l 224 849 q 224 803 224 825 q 225 757 225 781 q 227 715 226 735 q 229 676 228 694 q 225 657 226 669 q 224 625 224 644 q 224 586 224 606 q 226 544 225 567 q 231 465 228 503 q 232 435 232 447 q 232 417 232 424 q 235 385 240 401 q 232 346 228 368 q 235 311 235 340 q 236 280 236 296 q 236 246 236 264 l 236 182 q 232 149 236 153 q 229 124 236 135 q 229 99 225 113 q 228 93 231 94 q 224 89 224 93 l 224 58 q 236 -8 229 31 q 241 -44 239 -28 q 246 -72 243 -61 q 279 -89 254 -87 q 333 -93 304 -92 q 363 -95 349 -94 q 390 -97 376 -96 q 429 -110 417 -99 q 432 -118 428 -111 q 421 -161 429 -146 q 379 -183 411 -178 q 354 -183 371 -186 q 317 -179 338 -182 q 297 -176 306 -178 q 276 -174 288 -175 q 246 -169 260 -172 q 197 -171 219 -167 q 174 -174 185 -172 q 153 -176 164 -175 q 86 -162 106 -181 q 64 -117 68 -144 q 65 -67 60 -93 q 69 -35 69 -42 z "},"\\":{"ha":563,"x_min":57,"x_max":510,"o":"m 297 776 l 299 775 q 304 733 296 751 q 310 715 307 724 q 314 694 313 706 q 315 683 315 690 q 314 674 314 681 q 319 650 317 663 q 325 624 321 638 q 331 599 328 611 q 336 574 333 586 l 336 565 q 337 561 336 563 q 338 558 338 560 q 347 532 342 542 q 360 508 356 522 q 368 481 365 496 l 376 451 q 381 442 379 446 q 385 433 382 438 q 390 419 390 425 q 392 400 394 413 q 390 389 390 394 q 390 376 390 383 q 396 351 393 364 q 404 324 399 338 q 425 265 414 296 q 430 249 428 257 q 435 233 432 240 q 439 219 438 226 q 442 204 440 211 q 451 164 446 183 q 461 125 456 144 q 472 85 467 106 q 481 40 476 64 q 485 14 485 28 l 489 -11 q 503 -58 496 -40 q 508 -92 510 -81 q 501 -112 508 -103 q 493 -131 496 -124 q 483 -137 488 -133 q 474 -143 478 -140 q 465 -149 469 -146 q 454 -157 461 -153 q 425 -154 436 -153 q 396 -144 414 -156 q 379 -110 385 -126 q 374 -92 376 -100 q 369 -74 371 -83 q 366 -54 367 -64 q 363 -35 365 -44 q 360 -15 361 -25 q 356 4 358 -6 q 346 25 353 15 q 340 35 343 31 q 335 46 338 40 q 332 60 332 54 q 331 68 331 64 q 329 76 331 72 q 325 92 328 83 q 319 107 322 100 q 313 124 315 115 q 308 140 311 132 q 308 145 308 143 q 307 150 307 147 q 306 160 307 157 q 299 172 304 164 q 295 179 296 175 q 292 186 294 183 q 288 205 289 196 q 286 224 286 214 q 283 243 285 233 q 278 263 282 253 q 271 274 275 268 q 267 279 268 276 q 264 285 267 282 l 264 297 q 264 311 267 304 q 257 331 263 321 q 253 340 254 336 q 250 350 253 344 q 246 365 247 357 q 243 379 244 372 q 240 396 240 388 q 236 411 239 404 q 233 431 233 425 q 228 451 231 444 q 215 492 219 469 q 210 512 213 503 q 203 531 207 521 q 196 543 201 535 q 192 549 193 546 q 189 556 192 553 q 188 571 188 560 q 188 586 190 579 q 181 617 185 601 q 172 649 176 633 q 164 679 168 664 q 153 710 160 694 q 147 718 150 715 q 142 728 144 724 q 129 781 132 750 q 118 835 129 808 q 111 847 117 839 q 108 853 108 850 q 104 860 107 857 q 103 871 103 865 q 103 882 103 876 q 101 906 106 894 q 99 919 100 913 q 96 936 99 926 q 88 965 93 954 q 82 975 85 971 q 76 985 79 981 q 74 1000 74 993 q 72 1010 72 1006 q 69 1019 72 1014 q 67 1032 69 1024 q 64 1043 64 1040 q 67 1057 64 1053 q 68 1071 69 1065 q 64 1081 68 1078 q 60 1090 61 1086 q 61 1107 57 1101 q 61 1124 64 1117 q 68 1131 65 1126 q 74 1140 71 1135 q 89 1157 78 1150 q 103 1157 97 1158 q 117 1156 108 1156 q 131 1160 122 1157 q 143 1163 139 1163 q 165 1151 154 1160 q 182 1136 176 1143 q 188 1124 185 1133 q 193 1107 190 1118 q 197 1100 196 1104 q 200 1093 197 1096 q 207 1081 206 1085 q 210 1065 210 1076 q 213 1051 210 1060 q 218 1035 215 1044 q 224 1015 221 1026 q 230 993 228 1004 q 235 971 232 982 q 256 892 243 931 q 271 819 269 851 q 285 800 281 813 q 291 788 288 793 q 297 776 294 782 z "},"]":{"ha":458,"x_min":57,"x_max":407,"o":"m 393 963 l 393 863 l 393 849 q 393 838 393 843 q 394 825 393 832 q 395 813 394 818 q 396 801 396 807 q 397 793 396 796 q 397 789 397 790 q 397 758 390 769 q 402 747 400 753 q 407 736 404 742 q 401 728 399 735 q 399 721 404 724 q 399 705 399 715 q 400 676 400 694 q 399 640 400 658 q 399 601 399 621 q 397 563 397 582 q 396 525 396 543 q 397 481 396 488 q 386 463 392 467 q 382 436 378 456 q 382 429 382 435 q 383 413 382 424 q 384 392 383 403 q 386 369 385 381 q 387 347 386 358 q 389 325 388 336 q 390 308 389 314 q 390 301 390 303 l 390 272 q 388 261 388 264 q 388 251 386 257 q 396 228 388 246 q 395 218 396 222 q 394 210 394 214 q 394 192 393 201 q 396 181 394 188 q 399 160 396 174 q 401 138 399 151 q 402 130 401 132 q 403 126 403 128 l 403 100 q 402 88 403 94 q 401 74 401 82 q 402 67 401 72 q 403 50 403 61 l 403 4 l 403 -40 q 403 -56 403 -51 q 404 -62 404 -61 q 405 -78 404 -69 q 406 -99 406 -87 q 399 -143 406 -118 q 376 -182 390 -167 q 333 -194 360 -196 q 304 -189 318 -187 q 275 -185 288 -189 q 245 -186 260 -186 q 215 -187 231 -186 q 184 -188 200 -187 q 153 -190 168 -189 l 132 -194 q 111 -194 121 -197 q 86 -182 99 -193 q 67 -162 71 -171 q 60 -143 61 -156 q 60 -119 57 -131 q 68 -99 61 -107 q 82 -89 72 -89 q 118 -85 108 -86 q 153 -86 131 -82 q 167 -88 160 -87 q 183 -90 175 -89 q 217 -83 199 -90 q 219 -46 219 -69 l 219 11 q 220 40 219 26 q 222 65 221 53 q 228 99 222 88 q 224 117 224 104 q 223 130 224 124 q 222 143 222 136 q 222 157 222 150 q 221 171 221 164 q 220 183 221 178 q 219 192 219 189 q 224 210 221 193 q 224 226 224 218 q 225 244 225 235 q 224 263 225 254 q 224 278 224 271 q 219 297 221 296 q 224 326 221 315 q 231 350 224 336 q 231 364 228 357 q 229 374 231 372 q 235 392 235 382 q 229 410 235 401 q 231 447 231 429 q 235 482 232 464 q 236 553 239 514 q 236 560 236 554 q 238 576 236 565 q 238 599 238 588 q 239 624 239 611 q 240 648 239 636 q 240 671 240 660 q 241 688 240 682 q 242 696 242 694 q 239 703 242 703 q 236 708 236 704 q 238 747 242 731 q 236 785 233 771 q 243 804 236 793 q 239 825 247 814 q 242 847 242 836 q 239 871 242 860 q 242 876 239 876 q 244 881 244 876 l 244 903 q 239 911 244 910 l 239 919 q 240 928 239 924 q 242 938 240 932 q 242 947 242 943 q 243 954 243 951 q 244 961 243 958 q 244 965 244 964 q 239 972 242 969 q 240 981 236 975 q 232 990 239 988 q 215 992 226 992 l 197 992 q 179 997 186 992 q 156 997 167 996 q 138 999 146 997 q 114 1017 121 1001 q 115 1038 115 1024 q 118 1056 115 1051 q 157 1068 136 1063 q 196 1061 181 1075 q 231 1060 214 1060 q 267 1060 249 1060 q 303 1060 285 1061 q 340 1058 321 1060 l 354 1058 q 363 1060 358 1060 q 372 1060 368 1060 q 389 1058 383 1060 q 397 1054 397 1058 l 393 963 z "},"^":{"ha":706,"x_min":58,"x_max":653,"o":"m 138 750 q 121 749 126 750 q 103 750 114 747 q 93 757 99 751 q 85 764 92 761 l 76 768 q 72 771 74 769 q 67 774 69 772 q 60 788 61 782 q 60 801 58 797 q 65 808 64 806 q 69 813 68 811 q 72 815 69 814 q 78 829 75 828 q 82 832 81 831 q 86 835 83 833 q 90 838 89 836 q 93 840 90 839 l 107 854 q 124 872 113 864 q 137 885 131 879 q 150 897 143 890 q 174 918 160 908 q 175 926 171 921 q 181 935 178 933 q 179 936 179 935 q 193 944 189 938 q 203 954 194 950 q 206 956 203 956 q 211 958 206 956 q 224 968 219 964 q 229 974 226 971 q 235 979 232 976 q 240 981 239 979 q 243 988 243 983 q 247 994 246 994 q 251 1000 247 996 q 255 1003 254 1001 q 258 1006 256 1004 q 259 1008 258 1007 q 260 1010 260 1008 q 261 1013 260 1011 q 265 1015 261 1015 q 272 1018 267 1015 q 282 1025 279 1021 l 290 1038 q 292 1039 292 1039 q 294 1040 293 1039 q 299 1046 294 1043 q 311 1056 303 1050 q 324 1067 314 1058 q 326 1069 324 1069 q 332 1072 326 1069 q 334 1075 333 1074 q 336 1078 335 1076 q 340 1082 336 1079 q 347 1093 340 1082 q 356 1106 351 1103 l 356 1107 l 356 1106 q 358 1104 356 1104 l 360 1104 q 363 1101 363 1101 q 364 1100 363 1100 q 366 1097 365 1099 q 369 1094 367 1096 q 372 1092 371 1093 q 374 1089 372 1090 q 381 1085 379 1086 q 384 1083 383 1083 q 388 1081 385 1082 q 393 1072 388 1076 q 399 1067 399 1069 q 401 1063 399 1064 l 404 1057 q 410 1054 407 1054 q 415 1053 413 1054 l 415 1049 q 418 1044 415 1047 q 424 1040 421 1042 q 426 1035 426 1038 q 429 1029 426 1031 q 440 1021 435 1024 q 450 1014 444 1019 l 450 1010 q 457 1001 451 1007 q 461 999 460 1000 q 465 994 463 997 q 466 992 465 993 q 465 988 467 990 q 472 981 465 982 q 478 979 475 981 l 482 979 q 503 954 496 968 q 521 929 510 939 q 540 910 529 922 q 556 889 551 899 q 568 881 563 886 q 581 871 574 876 q 592 860 588 865 q 601 849 597 854 q 604 847 603 847 q 607 844 606 846 q 611 843 610 843 q 615 842 613 843 q 626 826 621 835 q 636 810 631 818 q 644 794 640 803 q 653 778 649 786 q 635 763 649 768 q 601 750 622 758 q 569 750 582 747 q 555 753 563 751 q 539 756 547 754 q 526 769 529 765 q 513 783 522 776 q 488 833 506 810 q 460 881 468 857 q 440 900 447 890 q 426 919 432 910 q 417 940 422 931 q 408 960 413 950 q 399 965 400 961 q 390 972 393 971 q 389 974 388 974 q 390 976 390 975 q 381 983 383 978 q 378 988 378 986 q 376 993 378 990 q 374 1001 376 996 q 367 1010 372 1007 q 365 1015 368 1014 l 360 1021 l 358 1022 l 344 994 l 342 994 q 339 993 339 994 q 336 988 336 992 q 333 983 336 986 q 331 981 332 982 q 329 978 331 979 q 324 974 326 976 l 319 969 q 317 965 317 967 q 311 956 313 961 q 306 947 308 953 q 304 943 304 946 q 303 941 304 942 q 303 939 303 940 q 301 938 301 938 q 299 936 300 938 q 294 933 294 936 q 281 918 289 929 q 269 900 272 907 l 269 893 q 257 878 265 883 q 242 861 246 871 q 239 854 239 860 q 239 849 239 854 q 235 844 236 846 q 231 842 233 843 q 222 836 225 839 q 210 825 218 833 q 201 814 203 818 q 200 808 200 813 q 199 804 201 807 q 194 797 199 799 l 188 790 q 183 785 183 788 q 181 782 182 783 q 179 779 181 781 l 171 775 q 163 771 164 772 q 160 765 160 769 q 157 761 160 764 q 152 758 154 758 q 147 756 150 757 q 138 750 140 753 z "}}}
